SplineFontDB: 3.2
FontName: Game Font
FullName: Game Font
FamilyName: Game Font
Weight: Book
Copyright: Copyright (c) 2020, MuseScore BVBA (http://www.musescore.org/)
Version: 0.5
ItalicAngle: 0
UnderlinePosition: -101
UnderlineWidth: 51
Ascent: 819
Descent: 205
InvalidEm: 0
sfntRevision: 0x00010000
LayerCount: 2
Layer: 0 1 "Back" 1
Layer: 1 1 "Fore" 0
HasVMetrics: 1
XUID: [1021 985 745227502 32200]
StyleMap: 0x0040
FSType: 0
OS2Version: 4
OS2_WeightWidthSlopeOnly: 0
OS2_UseTypoMetrics: 0
CreationTime: 1536333813
ModificationTime: 1700028280
PfmFamily: 81
TTFWeight: 400
TTFWidth: 5
LineGap: 0
VLineGap: 0
Panose: 0 0 0 0 0 0 0 0 0 0
OS2TypoAscent: 2060
OS2TypoAOffset: 0
OS2TypoDescent: -2060
OS2TypoDOffset: 0
OS2TypoLinegap: 0
OS2WinAscent: 2060
OS2WinAOffset: 0
OS2WinDescent: 2060
OS2WinDOffset: 0
HheadAscent: 2060
HheadAOffset: 0
HheadDescent: -2060
HheadDOffset: 0
OS2SubXSize: 666
OS2SubYSize: 614
OS2SubXOff: 0
OS2SubYOff: 77
OS2SupXSize: 666
OS2SupYSize: 614
OS2SupXOff: 0
OS2SupYOff: 358
OS2StrikeYSize: 51
OS2StrikeYPos: 169
OS2CapHeight: 486
OS2XHeight: 282
OS2Vendor: 'PfEd'
OS2CodePages: 00000001.00000000
OS2UnicodeRanges: 00000000.10000000.00000000.00000000
MarkAttachClasses: 1
DEI: 91125
ShortTable: cvt  2
  34
  648
EndShort
ShortTable: maxp 16
  1
  0
  133
  476
  51
  0
  0
  2
  0
  1
  1
  0
  64
  46
  0
  0
EndShort

StartChar: .notdef
Encoding: 65536 -1 0
Width: 374
GlyphClass: 1
Flags: W
LayerCount: 2
Fore
SplineSet
34 0 m 1,0,-1
 34 682 l 1,1,-1
 306 682 l 1,2,-1
 306 0 l 1,3,-1
 34 0 l 1,0,-1
68 34 m 1,4,-1
 272 34 l 1,5,-1
 272 648 l 1,6,-1
 68 648 l 1,7,-1
 68 34 l 1,4,-1
EndSplineSet
EndChar

StartChar: plus
Encoding: 43 43 4
Width: 460
GlyphClass: 1
Flags: W
LayerCount: 2
Fore
SplineSet
197 87 m 1,0,1
 129 103 129 103 80 150 c 0,2,3
 52 177 52 177 36 213 c 0,4,5
 34 217 34 217 27 241 c 1,6,-1
 -2 241 l 1,7,-1
 -2 251 l 1,8,-1
 24 251 l 1,9,10
 19 276 19 276 19 297 c 0,11,12
 19 353 19 353 42 404 c 1,13,-1
 -2 404 l 1,14,-1
 -2 415 l 1,15,-1
 46 415 l 1,16,17
 76 476 76 476 156 552 c 2,18,19
 156 552 156 552 172 568 c 1,20,-1
 -2 568 l 1,21,-1
 -2 579 l 1,22,-1
 183 579 l 1,23,24
 183 579 183 579 197 593 c 0,25,26
 198 594 198 594 200 596 c 2,27,-1
 202 597 l 1,28,29
 201 602 201 602 200 606.5 c 128,-1,30
 199 611 199 611 198.5 614 c 128,-1,31
 198 617 198 617 197.5 619 c 128,-1,32
 197 621 197 621 197 622 c 2,33,-1
 197 624 l 1,34,35
 190 661 190 661 188 708 c 0,36,37
 188 712 188 712 187.5 719.5 c 128,-1,38
 187 727 187 727 187 732 c 1,39,-1
 -2 732 l 1,40,-1
 -2 742 l 1,41,-1
 187 742 l 1,42,43
 187 815 187 815 206 858 c 0,44,45
 226 906 226 906 258 936 c 0,46,47
 284 961 284 961 301 961 c 0,48,49
 310 961 310 961 321 947 c 0,50,51
 345 914 345 914 356 835 c 0,52,53
 363 778 363 778 359 742 c 1,54,-1
 1022 742 l 1,55,-1
 1022 732 l 1,56,-1
 357 732 l 1,57,58
 353 710 353 710 350 699 c 0,59,60
 350 683 350 683 320 626 c 0,61,62
 307 601 307 601 292 579 c 1,63,-1
 1022 579 l 1,64,-1
 1022 568 l 1,65,-1
 284 568 l 1,66,67
 259 533 259 533 247 521 c 1,68,69
 254 480 254 480 265 415 c 1,70,-1
 1022 415 l 1,71,-1
 1022 404 l 1,72,-1
 318 404 l 1,73,-1
 321 404 l 1,74,75
 364 391 364 391 397 349 c 0,76,77
 419 318 419 318 427 283 c 0,78,79
 431 261 431 261 431 251 c 1,80,-1
 1022 251 l 1,81,-1
 1022 241 l 1,82,-1
 431 241 l 1,83,84
 429 201 429 201 409 166 c 0,85,86
 374 110 374 110 321 93 c 0,87,88
 321 92 321 92 321.5 90 c 128,-1,89
 322 88 322 88 322 87 c 1,90,-1
 1022 87 l 1,91,-1
 1022 77 l 1,92,-1
 324 77 l 1,93,94
 325 70 325 70 327.5 56 c 128,-1,95
 330 42 330 42 331 36 c 0,96,97
 345 -42 345 -42 339 -84 c 0,98,99
 333 -136 333 -136 297 -162 c 0,100,101
 261 -184 261 -184 218 -184 c 0,102,103
 206 -184 206 -184 201 -183 c 0,104,105
 146 -177 146 -177 117 -142 c 0,106,107
 102 -123 102 -123 100 -98 c 128,-1,108
 98 -73 98 -73 110 -50 c 0,109,110
 122 -29 122 -29 138 -19 c 0,111,112
 155 -8 155 -8 182 -10 c 0,113,114
 225 -14 225 -14 241 -47 c 0,115,116
 249 -67 249 -67 247.5 -86 c 128,-1,117
 246 -105 246 -105 236 -118 c 0,118,119
 219 -141 219 -141 185 -150 c 0,120,121
 183 -151 183 -151 183 -152 c 2,122,-1
 185 -153 l 2,123,124
 204 -159 204 -159 225 -158 c 0,125,126
 255 -156 255 -156 279 -140 c 0,127,128
 315 -114 315 -114 315 -55 c 0,129,130
 315 -16 315 -16 297 77 c 1,131,-1
 -2 77 l 1,132,-1
 -2 87 l 1,133,-1
 197 87 l 1,0,1
293 251 m 1,134,-1
 380 251 l 1,135,-1
 380 252 l 1,136,137
 374 282 374 282 349.5 306 c 128,-1,138
 325 330 325 330 280 328 c 1,139,140
 284 307 284 307 293 251 c 1,134,-1
82 251 m 1,141,-1
 142 251 l 1,142,143
 138 296 138 296 161 339 c 0,144,145
 189 389 189 389 236 404 c 1,146,-1
 134 404 l 1,147,148
 118 383 118 383 107 362 c 0,149,150
 82 314 82 314 82 270 c 2,151,-1
 82 251 l 1,141,-1
84 241 m 1,152,153
 87 221 87 221 94 205 c 0,154,155
 104 181 104 181 124 161 c 0,156,157
 160 127 160 127 207 114 c 0,158,159
 247 104 247 104 290 113 c 0,160,161
 290 115 290 115 289 119.5 c 128,-1,162
 288 124 288 124 288 126 c 0,163,164
 284 145 284 145 276 188 c 128,-1,165
 268 231 268 231 266 241 c 1,166,-1
 185 241 l 1,167,168
 187 207 187 207 211 189 c 0,169,170
 213 188 213 188 217.5 185 c 128,-1,171
 222 182 222 182 224 181 c 0,172,173
 241 171 241 171 238 163 c 0,174,175
 237 161 237 161 233 159 c 0,176,177
 225 156 225 156 210 161.5 c 128,-1,178
 195 167 195 167 188 172 c 0,179,180
 154 192 154 192 144 239 c 0,181,182
 144 240 144 240 143.5 240 c 128,-1,183
 143 240 143 240 143 241 c 1,184,-1
 84 241 l 1,152,153
186 251 m 1,185,-1
 264 251 l 1,186,187
 262 262 262 262 257.5 286.5 c 128,-1,188
 253 311 253 311 251 324 c 1,189,190
 227 318 227 318 211 303 c 128,-1,191
 195 288 195 288 188 262 c 0,192,193
 186 254 186 254 186 251 c 1,185,-1
295 241 m 1,194,195
 303 192 303 192 315 128 c 0,196,197
 316 125 316 125 316 120 c 1,198,199
 355 135 355 135 373 180 c 0,200,201
 383 207 383 207 381 241 c 1,202,-1
 295 241 l 1,194,195
142 415 m 1,203,-1
 234 415 l 1,204,205
 224 469 224 469 220 493 c 1,206,207
 203 476 203 476 194 468 c 0,208,209
 163 440 163 440 142 415 c 1,203,-1
224 742 m 1,210,-1
 310 742 l 2,211,212
 311 744 311 744 313 750 c 128,-1,213
 315 756 315 756 316 758 c 0,214,215
 335 819 335 819 314 858 c 0,216,217
 310 866 310 866 305 868 c 2,218,-1
 302 868 l 2,219,220
 290 868 290 868 275 854 c 0,221,222
 246 830 246 830 233 785 c 0,223,224
 227 766 227 766 224 742 c 1,210,-1
223 732 m 1,225,226
 220 691 220 691 227 646 c 2,227,-1
 230 625 l 1,228,229
 287 687 287 687 306 732 c 1,230,-1
 223 732 l 1,225,226
EndSplineSet
EndChar

StartChar: hyphen
Encoding: 45 45 5
Width: 720
GlyphClass: 1
Flags: W
LayerCount: 2
Fore
SplineSet
-76 87 m 1,0,-1
 1148 87 l 1,1,-1
 1148 77 l 1,2,-1
 -76 77 l 1,3,-1
 -76 87 l 1,0,-1
309 251 m 2,4,5
 312 253 312 253 346 282 c 0,6,7
 384 316 384 316 422 390 c 0,8,9
 423 392 423 392 425.5 397 c 128,-1,10
 428 402 428 402 429 404 c 1,11,-1
 -76 404 l 1,12,-1
 -76 415 l 1,13,-1
 434 415 l 1,14,15
 465 487 465 487 465 548 c 0,16,17
 465 552 465 552 464.5 558.5 c 128,-1,18
 464 565 464 565 464 568 c 1,19,-1
 368 568 l 1,20,21
 365 533 365 533 335 516 c 0,22,23
 316 505 316 505 293 505 c 0,24,25
 279 505 279 505 268 509 c 0,26,27
 237 520 237 520 225 546 c 0,28,29
 219 560 219 560 218 568 c 1,30,-1
 -76 568 l 1,31,-1
 -76 579 l 1,32,-1
 217 579 l 1,33,-1
 217 588 l 2,34,35
 217 607 217 607 221 623 c 0,36,37
 234 673 234 673 281 708 c 0,38,39
 303 724 303 724 335 732 c 1,40,-1
 -76 732 l 1,41,-1
 -76 742 l 1,42,-1
 1148 742 l 1,43,-1
 1148 732 l 1,44,-1
 421 732 l 1,45,46
 477 720 477 720 510 681 c 0,47,48
 544 641 544 641 550 579 c 1,49,-1
 1148 579 l 1,50,-1
 1148 568 l 1,51,-1
 551 568 l 1,52,-1
 551 549 l 2,53,54
 551 487 551 487 512 415 c 1,55,-1
 1148 415 l 1,56,-1
 1148 404 l 1,57,-1
 506 404 l 1,58,59
 482 362 482 362 446 323 c 0,60,61
 417 292 417 292 364 251 c 1,62,-1
 1148 251 l 1,63,-1
 1148 241 l 1,64,-1
 350 241 l 1,65,66
 324 221 324 221 291.5 202.5 c 128,-1,67
 259 184 259 184 240 175.5 c 128,-1,68
 221 167 221 167 220 167 c 2,69,-1
 219 166 l 2,70,71
 218 166 218 166 217 166 c 0,72,73
 207 166 207 166 205 174 c 0,74,75
 202 184 202 184 212 190 c 0,76,77
 248 207 248 207 295 241 c 1,78,-1
 -76 241 l 1,79,-1
 -76 251 l 1,80,-1
 309 251 l 2,4,5
464 579 m 1,81,82
 455 713 455 713 365 713 c 0,83,84
 327 713 327 713 304 700 c 0,85,86
 283 688 283 688 271 670 c 0,87,88
 257 649 257 649 254 628 c 1,89,90
 261 635 261 635 277 642 c 0,91,92
 286 645 286 645 298 645 c 0,93,94
 317 645 317 645 336 633 c 0,95,96
 366 614 366 614 368 579 c 1,97,-1
 464 579 l 1,81,82
578 491 m 128,-1,99
 578 505 578 505 587 515 c 128,-1,100
 596 525 596 525 609 525 c 128,-1,101
 622 525 622 525 631.5 515 c 128,-1,102
 641 505 641 505 641 491 c 0,103,104
 641 478 641 478 631.5 468 c 128,-1,105
 622 458 622 458 609 458 c 128,-1,106
 596 458 596 458 587 467.5 c 128,-1,98
 578 477 578 477 578 491 c 128,-1,99
578 654 m 128,-1,108
 578 668 578 668 587 677.5 c 128,-1,109
 596 687 596 687 609 687 c 128,-1,110
 622 687 622 687 631.5 677 c 128,-1,111
 641 667 641 667 641 654 c 128,-1,112
 641 641 641 641 631.5 631 c 128,-1,113
 622 621 622 621 609 621 c 128,-1,114
 596 621 596 621 587 630.5 c 128,-1,107
 578 640 578 640 578 654 c 128,-1,108
EndSplineSet
EndChar

StartChar: zero
Encoding: 48 48 6
Width: 460
GlyphClass: 1
Flags: W
LayerCount: 2
Fore
SplineSet
230 521 m 128,-1,1
 312 521 312 521 367 446 c 128,-1,2
 422 371 422 371 422 260 c 128,-1,3
 422 149 422 149 367 74.5 c 128,-1,4
 312 0 312 0 230 0 c 128,-1,5
 148 0 148 0 93.5 74.5 c 128,-1,6
 39 149 39 149 39 260 c 128,-1,7
 39 371 39 371 93.5 446 c 128,-1,0
 148 521 148 521 230 521 c 128,-1,1
291 402 m 2,8,9
 291 433 291 433 276 456 c 128,-1,10
 261 479 261 479 230 479 c 128,-1,11
 199 479 199 479 184.5 456.5 c 128,-1,12
 170 434 170 434 170 402 c 2,13,-1
 170 118 l 2,14,15
 170 86 170 86 184.5 63.5 c 128,-1,16
 199 41 199 41 230 41 c 128,-1,17
 261 41 261 41 276 64 c 128,-1,18
 291 87 291 87 291 118 c 2,19,-1
 291 402 l 2,8,9
EndSplineSet
EndChar

StartChar: one
Encoding: 49 49 7
Width: 460
VWidth: 1284
GlyphClass: 1
Flags: W
LayerCount: 2
Fore
SplineSet
383 47 m 2,0,1
 395 47 395 47 395 35 c 2,2,-1
 395 12 l 2,3,4
 395 0 395 0 383 0 c 2,5,-1
 103 0 l 2,6,7
 91 0 91 0 91 12 c 2,8,-1
 91 35 l 2,9,10
 91 47 91 47 103 47 c 2,11,-1
 181 47 l 1,12,-1
 181 396 l 1,13,-1
 108 271 l 2,14,15
 104 265 104 265 98 265 c 0,16,17
 96 265 96 265 92 267 c 2,18,-1
 72 279 l 2,19,20
 66 283 66 283 66 289 c 0,21,22
 66 293 66 293 67 295 c 2,23,-1
 182 494 l 1,24,-1
 186 498 l 2,25,26
 190 500 190 500 192 500 c 2,27,-1
 293 500 l 2,28,29
 306 500 306 500 306 487 c 2,30,-1
 306 47 l 1,31,-1
 383 47 l 2,0,1
EndSplineSet
EndChar

StartChar: two
Encoding: 50 50 8
Width: 460
VWidth: 1284
GlyphClass: 1
Flags: W
LayerCount: 2
Fore
SplineSet
380 209 m 2,0,1
 386 223 386 223 398 223 c 0,2,3
 416 223 416 223 416 204 c 0,4,5
 416 184 416 184 402 137.5 c 128,-1,6
 388 91 388 91 374 61 c 0,7,8
 361 34 361 34 333 17 c 128,-1,9
 305 0 305 0 279 0 c 0,10,11
 228 0 228 0 199 43 c 0,12,13
 196 48 196 48 187 63 c 128,-1,14
 178 78 178 78 173 84.5 c 128,-1,15
 168 91 168 91 159 97.5 c 128,-1,16
 150 104 150 104 139 104 c 0,17,18
 108 104 108 104 105 88 c 0,19,20
 104 85 104 85 104 79 c 0,21,22
 104 66 104 66 113 45 c 0,23,24
 116 38 116 38 116 32 c 0,25,26
 116 19 116 19 105.5 9.5 c 128,-1,27
 95 0 95 0 82 0 c 0,28,29
 45 0 45 0 45 51 c 0,30,31
 45 72 45 72 52.5 95 c 128,-1,32
 60 118 60 118 68 130 c 2,33,-1
 76 142 l 2,34,35
 95 170 95 170 132 199 c 128,-1,36
 169 228 169 228 199.5 248 c 128,-1,37
 230 268 230 268 254 302 c 128,-1,38
 278 336 278 336 278 377 c 0,39,40
 278 437 278 437 251 454 c 0,41,42
 234 465 234 465 208 465 c 0,43,44
 186 465 186 465 173 460 c 0,45,46
 150 454 150 454 150 441 c 0,47,48
 150 432 150 432 157 430 c 0,49,50
 177 423 177 423 190.5 402 c 128,-1,51
 204 381 204 381 204 359 c 0,52,53
 204 328 204 328 182 306 c 128,-1,54
 160 284 160 284 128 284 c 128,-1,55
 96 284 96 284 73.5 306 c 128,-1,56
 51 328 51 328 51 359 c 0,57,58
 51 380 51 380 58.5 401.5 c 128,-1,59
 66 423 66 423 84 446.5 c 128,-1,60
 102 470 102 470 140.5 485 c 128,-1,61
 179 500 179 500 234 500 c 128,-1,62
 289 500 289 500 326.5 486.5 c 128,-1,63
 364 473 364 473 380.5 451.5 c 128,-1,64
 397 430 397 430 403 411 c 128,-1,65
 409 392 409 392 409 372 c 0,66,67
 409 321 409 321 378.5 284 c 128,-1,68
 348 247 348 247 272 223 c 0,69,70
 168 190 168 190 138 151 c 1,71,72
 153 154 153 154 165 154 c 0,73,74
 191 154 191 154 228.5 133.5 c 128,-1,75
 266 113 266 113 301 113 c 0,76,77
 308 113 308 113 315 115 c 128,-1,78
 322 117 322 117 327.5 120.5 c 128,-1,79
 333 124 333 124 338.5 129.5 c 128,-1,80
 344 135 344 135 348 140 c 128,-1,81
 352 145 352 145 356.5 153 c 128,-1,82
 361 161 361 161 363 165.5 c 128,-1,83
 365 170 365 170 368.5 178.5 c 128,-1,84
 372 187 372 187 373.5 190 c 128,-1,85
 375 193 375 193 378 201 c 2,86,-1
 380 209 l 2,0,1
EndSplineSet
EndChar

StartChar: three
Encoding: 51 51 9
Width: 460
VWidth: 1272
GlyphClass: 1
Flags: W
LayerCount: 2
Fore
SplineSet
313 266 m 1,0,1
 409 236 409 236 409 145 c 0,2,3
 409 92 409 92 377 58 c 128,-1,4
 345 24 345 24 301.5 12 c 128,-1,5
 258 0 258 0 204 0 c 0,6,7
 133 0 133 0 92 38 c 0,8,9
 72 57 72 57 62 79 c 128,-1,10
 52 101 52 101 52 114 c 2,11,-1
 52 126 l 2,12,13
 52 154 52 154 71 173.5 c 128,-1,14
 90 193 90 193 118 193 c 128,-1,15
 146 193 146 193 165 173.5 c 128,-1,16
 184 154 184 154 184 126 c 0,17,18
 184 100 184 100 165.5 80.5 c 128,-1,19
 147 61 147 61 122 60 c 1,20,21
 144 44 144 44 189 44 c 0,22,23
 278 44 278 44 278 131 c 0,24,25
 278 231 278 231 209 240 c 0,26,27
 191 243 191 243 136 246 c 0,28,29
 131 246 131 246 127.5 249 c 128,-1,30
 124 252 124 252 123 255 c 2,31,-1
 122 258 l 1,32,-1
 122 279 l 2,33,34
 124 293 124 293 136 293 c 0,35,36
 182 293 182 293 218 299 c 0,37,38
 278 309 278 309 278 375 c 0,39,40
 278 414 278 414 251.5 435 c 128,-1,41
 225 456 225 456 189 456 c 0,42,43
 158 456 158 456 136 440 c 1,44,-1
 133 437 l 1,45,46
 155 433 155 433 169.5 414.5 c 128,-1,47
 184 396 184 396 184 373 c 0,48,49
 184 345 184 345 165 326 c 128,-1,50
 146 307 146 307 118 307 c 128,-1,51
 90 307 90 307 71 326 c 128,-1,52
 52 345 52 345 52 373 c 1,53,-1
 53 375 l 1,54,-1
 52 375 l 1,55,56
 52 380 52 380 52.5 388.5 c 128,-1,57
 53 397 53 397 62 418.5 c 128,-1,58
 71 440 71 440 86.5 456.5 c 128,-1,59
 102 473 102 473 138 486.5 c 128,-1,60
 174 500 174 500 223 500 c 128,-1,61
 272 500 272 500 308.5 487.5 c 128,-1,62
 345 475 345 475 362 459 c 128,-1,63
 379 443 379 443 389 422.5 c 128,-1,64
 399 402 399 402 400.5 392 c 128,-1,65
 402 382 402 382 402 375 c 2,66,-1
 402 370 l 2,67,68
 402 300 402 300 315 266 c 1,69,-1
 313 266 l 1,0,1
EndSplineSet
EndChar

StartChar: four
Encoding: 52 52 10
Width: 460
VWidth: 1272
GlyphClass: 1
Flags: W
LayerCount: 2
Fore
SplineSet
34 124 m 2,0,1
 30 124 30 124 27 125.5 c 128,-1,2
 24 127 24 127 23 128 c 2,3,-1
 22 130 l 2,4,5
 16 141 16 141 12 149 c 0,6,7
 10 153 10 153 10.5 157 c 128,-1,8
 11 161 11 161 12 164 c 2,9,-1
 14 166 l 1,10,11
 65 235 65 235 98 338 c 0,12,13
 125 421 125 421 130 496 c 0,14,15
 132 509 132 509 144 509 c 2,16,-1
 296 509 l 2,17,18
 303 509 303 509 307 505 c 2,19,-1
 329 482 l 2,20,21
 338 473 338 473 327 458 c 0,22,23
 206 297 206 297 92 173 c 1,24,-1
 210 173 l 1,25,-1
 210 257 l 2,26,27
 210 264 210 264 214 268 c 2,28,-1
 307 353 l 2,29,30
 314 360 314 360 323 355 c 2,31,-1
 336 349 l 2,32,33
 344 346 344 346 344 336 c 2,34,-1
 344 173 l 1,35,-1
 435 173 l 2,36,37
 441 173 441 173 445.5 168.5 c 128,-1,38
 450 164 450 164 450 158 c 2,39,-1
 450 139 l 2,40,41
 450 133 450 133 445.5 128.5 c 128,-1,42
 441 124 441 124 435 124 c 2,43,-1
 344 124 l 1,44,-1
 344 48 l 1,45,-1
 435 48 l 2,46,47
 450 48 450 48 450 34 c 2,48,-1
 450 14 l 2,49,50
 450 0 450 0 435 0 c 2,51,-1
 125 0 l 2,52,53
 111 0 111 0 111 14 c 2,54,-1
 111 34 l 2,55,56
 111 48 111 48 125 48 c 2,57,-1
 210 48 l 1,58,-1
 210 124 l 1,59,-1
 34 124 l 2,0,1
EndSplineSet
EndChar

StartChar: five
Encoding: 53 53 11
Width: 460
VWidth: 1272
GlyphClass: 1
Flags: W
LayerCount: 2
Fore
SplineSet
65 473 m 2,0,1
 64 485 64 485 71 490 c 128,-1,2
 78 495 78 495 88 495 c 2,3,-1
 100 494 l 1,4,5
 181 483 181 483 217 483 c 0,6,7
 273 483 273 483 344 500 c 0,8,9
 356 502 356 502 358 502 c 0,10,11
 376 502 376 502 376 487 c 0,12,13
 376 483 376 483 374 477 c 0,14,15
 353 418 353 418 302 398 c 0,16,17
 271 386 271 386 217 386 c 0,18,19
 207 386 207 386 132 391 c 1,20,-1
 131 391 l 2,21,22
 119 391 119 391 119 380 c 2,23,-1
 119 315 l 2,24,25
 119 308 119 308 126 308 c 0,26,27
 130 308 130 308 131 309 c 0,28,29
 174 338 174 338 230 338 c 0,30,31
 297 338 297 338 346 306 c 0,32,33
 374 287 374 287 391 250 c 128,-1,34
 408 213 408 213 408 172 c 0,35,36
 408 101 408 101 362 54 c 0,37,38
 309 0 309 0 217 0 c 0,39,40
 161 0 161 0 116 24 c 0,41,42
 53 61 53 61 53 128 c 0,43,44
 53 156 53 156 72 178 c 128,-1,45
 91 200 91 200 120 200 c 0,46,47
 153 200 153 200 174 182.5 c 128,-1,48
 195 165 195 165 195 130 c 0,49,50
 195 118 195 118 192.5 108 c 128,-1,51
 190 98 190 98 186.5 91.5 c 128,-1,52
 183 85 183 85 177.5 79.5 c 128,-1,53
 172 74 172 74 169 71.5 c 128,-1,54
 166 69 166 69 160 66 c 2,55,-1
 154 62 l 2,56,57
 150 59 150 59 150 55 c 128,-1,58
 150 51 150 51 155 49 c 0,59,60
 166 42 166 42 198 42 c 2,61,-1
 206 42 l 2,62,63
 238 43 238 43 258 65.5 c 128,-1,64
 278 88 278 88 284 114 c 128,-1,65
 290 140 290 140 290 170 c 0,66,67
 290 282 290 282 204 282 c 0,68,69
 191 282 191 282 179.5 279 c 128,-1,70
 168 276 168 276 160 270.5 c 128,-1,71
 152 265 152 265 146.5 260 c 128,-1,72
 141 255 141 255 136.5 246.5 c 128,-1,73
 132 238 132 238 130 234 c 128,-1,74
 128 230 128 230 126 222 c 2,75,-1
 123 215 l 2,76,77
 120 206 120 206 108 208 c 0,78,79
 106 208 106 208 99 209.5 c 128,-1,80
 92 211 92 211 83.5 213 c 128,-1,81
 75 215 75 215 72 216 c 0,82,83
 63 218 63 218 65 232 c 0,84,85
 69 300 69 300 70 357 c 2,86,-1
 70 371 l 1,87,-1
 65 473 l 2,0,1
EndSplineSet
EndChar

StartChar: six
Encoding: 54 54 12
Width: 460
VWidth: 1272
GlyphClass: 1
Flags: W
LayerCount: 2
Fore
SplineSet
278 299 m 0,0,1
 334 299 334 299 377.5 264.5 c 128,-1,2
 421 230 421 230 421 161 c 0,3,4
 421 120 421 120 400 86.5 c 128,-1,5
 379 53 379 53 349 35.5 c 128,-1,6
 319 18 319 18 293 9 c 128,-1,7
 267 0 267 0 251 0 c 0,8,9
 228 0 228 0 212.5 2 c 128,-1,10
 197 4 197 4 171.5 15 c 128,-1,11
 146 26 146 26 118 47 c 0,12,13
 40 116 40 116 40 233 c 0,14,15
 40 301 40 301 66 366 c 0,16,17
 86 412 86 412 135 456.5 c 128,-1,18
 184 501 184 501 245 501 c 0,19,20
 314 501 314 501 352.5 473 c 128,-1,21
 391 445 391 445 403 410 c 0,22,23
 410 396 410 396 410 377 c 2,24,-1
 410 376 l 1,25,-1
 410 374 l 2,26,27
 410 346 410 346 390.5 327 c 128,-1,28
 371 308 371 308 343 308 c 128,-1,29
 315 308 315 308 296.5 327 c 128,-1,30
 278 346 278 346 278 374 c 0,31,32
 278 392 278 392 289 409.5 c 128,-1,33
 300 427 300 427 316 434 c 1,34,35
 298 454 298 454 265 454 c 0,36,37
 227 454 227 454 205 428.5 c 128,-1,38
 183 403 183 403 178 369 c 0,39,40
 173 339 173 339 173 319 c 0,41,42
 173 302 173 302 178 265 c 1,43,44
 210 299 210 299 278 299 c 0,0,1
240 43 m 128,-1,46
 266 43 266 43 284 73 c 128,-1,47
 302 103 302 103 302 146 c 128,-1,48
 302 189 302 189 283.5 220 c 128,-1,49
 265 251 265 251 240 251 c 128,-1,50
 215 251 215 251 196.5 220 c 128,-1,51
 178 189 178 189 178 146 c 128,-1,52
 178 103 178 103 196 73 c 128,-1,45
 214 43 214 43 240 43 c 128,-1,46
EndSplineSet
EndChar

StartChar: seven
Encoding: 55 55 13
Width: 460
VWidth: 1272
GlyphClass: 1
Flags: W
LayerCount: 2
Fore
SplineSet
409 492 m 0,0,1
 415 418 415 418 393 356 c 0,2,3
 333 186 333 186 325 157 c 0,4,5
 317 129 317 129 317 94 c 128,-1,6
 317 59 317 59 319.5 40.5 c 128,-1,7
 322 22 322 22 324 17 c 0,8,9
 326 11 326 11 318 3 c 0,10,11
 317 2 317 2 315.5 1 c 128,-1,12
 314 0 314 0 313 -1 c 0,13,14
 304 -7 304 -7 298 -7 c 0,15,16
 296 -7 296 -7 283.5 -5 c 128,-1,17
 271 -3 271 -3 254.5 -1.5 c 128,-1,18
 238 0 238 0 223 -1 c 0,19,20
 206 -2 206 -2 189 -4.5 c 128,-1,21
 172 -7 172 -7 164 -7 c 0,22,23
 145 -7 145 -7 149 12 c 0,24,25
 151 50 151 50 202 123 c 0,26,27
 218 146 218 146 252 203 c 128,-1,28
 286 260 286 260 312 305 c 2,29,-1
 338 350 l 1,30,31
 333 345 333 345 315.5 341.5 c 128,-1,32
 298 338 298 338 284 337 c 2,33,-1
 269 336 l 2,34,35
 224 336 224 336 193 356 c 128,-1,36
 162 376 162 376 149 376 c 0,37,38
 124 376 124 376 110.5 359 c 128,-1,39
 97 342 97 342 97 321 c 2,40,-1
 97 288 l 2,41,42
 97 276 97 276 86 276 c 2,43,-1
 62 276 l 2,44,45
 51 276 51 276 51 288 c 2,46,-1
 51 477 l 2,47,48
 51 489 51 489 62 489 c 2,49,-1
 86 489 l 2,50,51
 97 489 97 489 97 477 c 2,52,-1
 97 428 l 1,53,54
 101 437 101 437 111 450 c 128,-1,55
 121 463 121 463 147 481 c 128,-1,56
 173 499 173 499 202 499 c 0,57,58
 225 499 225 499 243.5 485.5 c 128,-1,59
 262 472 262 472 272.5 455 c 128,-1,60
 283 438 283 438 297 424.5 c 128,-1,61
 311 411 311 411 325 411 c 0,62,63
 344 411 344 411 354.5 431.5 c 128,-1,64
 365 452 365 452 366 472 c 2,65,-1
 367 492 l 2,66,67
 368 506 368 506 379 506 c 2,68,-1
 400 506 l 2,69,70
 409 504 409 504 409 492 c 0,0,1
EndSplineSet
EndChar

StartChar: eight
Encoding: 56 56 14
Width: 460
VWidth: 1272
GlyphClass: 1
Flags: W
LayerCount: 2
Fore
SplineSet
353 272 m 1,0,1
 424 236 424 236 424 150 c 0,2,3
 424 88 424 88 367 44 c 128,-1,4
 310 0 310 0 230 0 c 128,-1,5
 150 0 150 0 93.5 44 c 128,-1,6
 37 88 37 88 37 150 c 0,7,8
 37 222 37 222 109 263 c 1,9,10
 50 300 50 300 50 372 c 0,11,12
 50 428 50 428 102.5 467 c 128,-1,13
 155 506 155 506 230 506 c 128,-1,14
 305 506 305 506 358 467 c 128,-1,15
 411 428 411 428 411 372 c 128,-1,16
 411 316 411 316 353 272 c 1,0,1
230 58 m 0,17,18
 276 58 276 58 303.5 78 c 128,-1,19
 331 98 331 98 331 121 c 0,20,21
 331 141 331 141 315.5 158.5 c 128,-1,22
 300 176 300 176 270.5 191 c 128,-1,23
 241 206 241 206 218 215 c 128,-1,24
 195 224 195 224 161 235 c 0,25,26
 155 233 155 233 146.5 228.5 c 128,-1,27
 138 224 138 224 123.5 202.5 c 128,-1,28
 109 181 109 181 109 150 c 0,29,30
 109 109 109 109 144 83.5 c 128,-1,31
 179 58 179 58 230 58 c 0,17,18
296 300 m 1,32,33
 337 320 337 320 337 382 c 0,34,35
 337 417 337 417 307.5 438 c 128,-1,36
 278 459 278 459 230 459 c 0,37,38
 195 459 195 459 172 444.5 c 128,-1,39
 149 430 149 430 149 402 c 0,40,41
 149 346 149 346 296 300 c 1,32,33
EndSplineSet
EndChar

StartChar: nine
Encoding: 57 57 15
Width: 460
VWidth: 1272
GlyphClass: 1
Flags: W
LayerCount: 2
Fore
SplineSet
183 202 m 0,0,1
 127 202 127 202 83.5 236.5 c 128,-1,2
 40 271 40 271 40 340 c 0,3,4
 40 381 40 381 61 414.5 c 128,-1,5
 82 448 82 448 112 465.5 c 128,-1,6
 142 483 142 483 168 492 c 128,-1,7
 194 501 194 501 210 501 c 0,8,9
 233 501 233 501 248.5 499 c 128,-1,10
 264 497 264 497 289.5 486 c 128,-1,11
 315 475 315 475 343 454 c 0,12,13
 421 385 421 385 421 267 c 0,14,15
 421 200 421 200 395 135 c 0,16,17
 375 89 375 89 326 44.5 c 128,-1,18
 277 0 277 0 216 0 c 0,19,20
 147 0 147 0 108 28 c 128,-1,21
 69 56 69 56 57 91 c 0,22,23
 51 103 51 103 51 124 c 2,24,-1
 51 125 l 1,25,-1
 51 127 l 2,26,27
 51 155 51 155 70.5 174 c 128,-1,28
 90 193 90 193 118 193 c 128,-1,29
 146 193 146 193 164.5 174 c 128,-1,30
 183 155 183 155 183 127 c 0,31,32
 183 109 183 109 171.5 91.5 c 128,-1,33
 160 74 160 74 144 67 c 1,34,35
 162 47 162 47 196 47 c 0,36,37
 234 47 234 47 256 72.5 c 128,-1,38
 278 98 278 98 283 132 c 0,39,40
 288 162 288 162 288 181 c 0,41,42
 288 199 288 199 283 236 c 1,43,44
 251 202 251 202 183 202 c 0,0,1
221 459 m 128,-1,46
 196 459 196 459 177.5 428 c 128,-1,47
 159 397 159 397 159 354 c 128,-1,48
 159 311 159 311 177 281 c 128,-1,49
 195 251 195 251 221 251 c 128,-1,50
 247 251 247 251 265 281 c 128,-1,51
 283 311 283 311 283 354 c 128,-1,52
 283 397 283 397 264.5 428 c 128,-1,45
 246 459 246 459 221 459 c 128,-1,46
EndSplineSet
EndChar

StartChar: less
Encoding: 60 60 16
Width: 208
GlyphClass: 1
Flags: W
LayerCount: 2
Fore
SplineSet
206 261 m 0,0,1
 208 245 208 245 208 236 c 0,2,3
 208 160 208 160 154 99 c 128,-1,4
 100 38 100 38 28 2 c 0,5,6
 24 0 24 0 19 0 c 0,7,8
 5 0 5 0 5 14 c 2,9,-1
 0 630 l 2,10,11
 0 644 0 644 14 644 c 2,12,-1
 27 644 l 2,13,14
 41 644 41 644 41 630 c 2,15,-1
 37 301 l 1,16,17
 69 339 69 339 123 339 c 0,18,19
 159 339 159 339 180 316.5 c 128,-1,20
 201 294 201 294 206 261 c 0,0,1
135 221 m 2,21,-1
 135 232 l 2,22,23
 135 289 135 289 95 289 c 0,24,25
 68 289 68 289 54 275.5 c 128,-1,26
 40 262 40 262 37 250 c 2,27,-1
 34 50 l 1,28,29
 88 92 88 92 105 120 c 0,30,31
 135 165 135 165 135 221 c 2,21,-1
EndSplineSet
EndChar

StartChar: equal
Encoding: 61 61 17
Width: 175
GlyphClass: 1
Flags: W
LayerCount: 2
Fore
SplineSet
170 486 m 0,0,1
 175 483 175 483 175 475 c 2,2,-1
 175 -32 l 1,3,-1
 147 -32 l 1,4,-1
 147 147 l 1,5,-1
 18 112 l 1,6,-1
 14 112 l 2,7,8
 0 112 0 112 0 125 c 2,9,-1
 0 632 l 1,10,-1
 29 632 l 1,11,-1
 29 453 l 1,12,-1
 158 488 l 1,13,14
 158 488 158 488 160 488 c 2,15,-1
 162 489 l 2,16,17
 167 489 167 489 170 486 c 0,0,1
147 232 m 1,18,-1
 147 401 l 1,19,-1
 29 368 l 1,20,-1
 29 200 l 1,21,-1
 147 232 l 1,18,-1
EndSplineSet
EndChar

StartChar: greater
Encoding: 62 62 18
Width: 249
GlyphClass: 1
Flags: W
LayerCount: 2
Fore
SplineSet
239 416 m 2,0,-1
 200 409 l 1,1,-1
 200 240 l 1,2,-1
 233 247 l 1,3,-1
 236 247 l 2,4,5
 250 247 250 247 250 232 c 2,6,-1
 250 172 l 2,7,8
 250 160 250 160 239 158 c 2,9,-1
 200 151 l 1,10,-1
 200 0 l 1,11,-1
 171 0 l 1,12,-1
 171 144 l 1,13,-1
 80 126 l 1,14,-1
 80 -33 l 1,15,-1
 51 -33 l 1,16,-1
 51 120 l 1,17,-1
 17 113 l 1,18,-1
 14 113 l 2,19,20
 0 113 0 113 0 127 c 2,21,-1
 0 186 l 2,22,23
 0 199 0 199 11 201 c 2,24,-1
 51 209 l 1,25,-1
 51 378 l 1,26,-1
 17 371 l 1,27,-1
 14 371 l 2,28,29
 0 371 0 371 0 385 c 1,30,-1
 0 383 l 1,31,-1
 0 442 l 1,32,-1
 0 444 l 2,33,34
 0 457 0 457 11 459 c 2,35,-1
 51 467 l 1,36,-1
 51 617 l 1,37,-1
 80 617 l 1,38,-1
 80 473 l 1,39,-1
 171 492 l 1,40,-1
 171 650 l 1,41,-1
 200 650 l 1,42,-1
 200 498 l 1,43,-1
 233 505 l 1,44,-1
 236 505 l 2,45,46
 250 505 250 505 250 490 c 2,47,-1
 250 430 l 2,48,49
 250 418 250 418 239 416 c 2,0,-1
80 214 m 1,50,-1
 171 233 l 1,51,-1
 171 402 l 1,52,-1
 80 384 l 1,53,-1
 80 214 l 1,50,-1
EndSplineSet
EndChar

StartChar: at
Encoding: 64 64 19
Width: 714
GlyphClass: 1
Flags: W
LayerCount: 2
Fore
SplineSet
143 245 m 128,-1,1
 200 245 200 245 228 220.5 c 128,-1,2
 256 196 256 196 256 163 c 128,-1,3
 256 130 256 130 228.5 106 c 128,-1,4
 201 82 201 82 143 82 c 128,-1,5
 85 82 85 82 57.5 106 c 128,-1,6
 30 130 30 130 30 163 c 128,-1,7
 30 196 30 196 58 220.5 c 128,-1,0
 86 245 86 245 143 245 c 128,-1,1
93 190 m 1,8,9
 98 161 98 161 107 134 c 0,10,11
 117 101 117 101 147 101 c 0,12,13
 148 101 148 101 150.5 101.5 c 128,-1,14
 153 102 153 102 155 102 c 0,15,16
 164 103 164 103 169 104 c 0,17,18
 183 107 183 107 189 117 c 0,19,20
 193 127 193 127 193 136 c 0,21,22
 193 153 193 153 186 175 c 2,23,-1
 184 181 l 2,24,25
 180 195 180 195 176 203.5 c 128,-1,26
 172 212 172 212 164 219 c 128,-1,27
 156 226 156 226 145 226 c 0,28,29
 129 226 129 226 117 223 c 0,30,31
 102 220 102 220 96 211 c 0,32,33
 93 205 93 205 93 197 c 2,34,-1
 93 190 l 1,8,9
EndSplineSet
EndChar

StartChar: A
Encoding: 65 65 20
Width: 681
GlyphClass: 1
Flags: W
LayerCount: 2
Fore
SplineSet
0 742 m 1,0,-1
 317 742 l 1,1,-1
 317 732 l 1,2,-1
 0 732 l 1,3,-1
 0 742 l 1,0,-1
0 579 m 1,4,-1
 317 579 l 1,5,-1
 317 568 l 1,6,-1
 0 568 l 1,7,-1
 0 579 l 1,4,-1
0 415 m 1,8,-1
 317 415 l 1,9,-1
 317 404 l 1,10,-1
 0 404 l 1,11,-1
 0 415 l 1,8,-1
0 251 m 1,12,-1
 317 251 l 1,13,-1
 317 241 l 1,14,-1
 0 241 l 1,15,-1
 0 251 l 1,12,-1
0 87 m 1,16,-1
 317 87 l 1,17,-1
 317 77 l 1,18,-1
 0 77 l 1,19,-1
 0 87 l 1,16,-1
200 742 m 1,20,-1
 732 742 l 1,21,-1
 732 732 l 1,22,-1
 200 732 l 1,23,-1
 200 742 l 1,20,-1
200 579 m 1,24,-1
 732 579 l 1,25,-1
 732 568 l 1,26,-1
 200 568 l 1,27,-1
 200 579 l 1,24,-1
200 415 m 1,28,-1
 732 415 l 1,29,-1
 732 404 l 1,30,-1
 200 404 l 1,31,-1
 200 415 l 1,28,-1
200 251 m 1,32,-1
 732 251 l 1,33,-1
 732 241 l 1,34,-1
 200 241 l 1,35,-1
 200 251 l 1,32,-1
200 87 m 1,36,-1
 732 87 l 1,37,-1
 732 77 l 1,38,-1
 200 77 l 1,39,-1
 200 87 l 1,36,-1
272 -77 m 1,40,-1
 558 -77 l 1,41,-1
 558 -87 l 1,42,-1
 272 -87 l 1,43,-1
 272 -77 l 1,40,-1
272 -241 m 1,44,-1
 558 -241 l 1,45,-1
 558 -251 l 1,46,-1
 272 -251 l 1,47,-1
 272 -241 l 1,44,-1
415 -165 m 0,48,49
 472 -165 472 -165 499.5 -189 c 128,-1,50
 527 -213 527 -213 527 -246 c 0,51,52
 527 -280 527 -280 499.5 -304 c 128,-1,53
 472 -328 472 -328 415 -328 c 128,-1,54
 358 -328 358 -328 330 -303.5 c 128,-1,55
 302 -279 302 -279 302 -246 c 128,-1,56
 302 -213 302 -213 329.5 -189 c 128,-1,57
 357 -165 357 -165 415 -165 c 0,48,49
365 -220 m 0,58,59
 370 -246 370 -246 379 -275 c 0,60,61
 389 -308 389 -308 419 -308 c 2,62,-1
 427 -308 l 2,63,64
 436 -307 436 -307 441 -306 c 0,65,66
 455 -303 455 -303 461 -293 c 0,67,68
 465 -283 465 -283 465 -274 c 0,69,70
 465 -261 465 -261 457 -235 c 2,71,-1
 456 -229 l 2,72,73
 452 -214 452 -214 448 -206 c 128,-1,74
 444 -198 444 -198 436 -190.5 c 128,-1,75
 428 -183 428 -183 417 -183 c 2,76,-1
 416 -183 l 2,77,78
 400 -183 400 -183 388 -186 c 0,79,80
 374 -189 374 -189 368 -198 c 0,81,82
 364 -206 364 -206 364 -212 c 128,-1,83
 364 -218 364 -218 365 -220 c 0,58,59
EndSplineSet
EndChar

StartChar: B
Encoding: 66 66 21
Width: 681
GlyphClass: 1
Flags: W
LayerCount: 2
Fore
SplineSet
0 742 m 1,0,-1
 317 742 l 1,1,-1
 317 732 l 1,2,-1
 0 732 l 1,3,-1
 0 742 l 1,0,-1
0 579 m 1,4,-1
 317 579 l 1,5,-1
 317 568 l 1,6,-1
 0 568 l 1,7,-1
 0 579 l 1,4,-1
0 415 m 1,8,-1
 317 415 l 1,9,-1
 317 404 l 1,10,-1
 0 404 l 1,11,-1
 0 415 l 1,8,-1
0 251 m 1,12,-1
 317 251 l 1,13,-1
 317 241 l 1,14,-1
 0 241 l 1,15,-1
 0 251 l 1,12,-1
0 87 m 1,16,-1
 317 87 l 1,17,-1
 317 77 l 1,18,-1
 0 77 l 1,19,-1
 0 87 l 1,16,-1
200 742 m 1,20,-1
 732 742 l 1,21,-1
 732 732 l 1,22,-1
 200 732 l 1,23,-1
 200 742 l 1,20,-1
200 579 m 1,24,-1
 732 579 l 1,25,-1
 732 568 l 1,26,-1
 200 568 l 1,27,-1
 200 579 l 1,24,-1
200 415 m 1,28,-1
 732 415 l 1,29,-1
 732 404 l 1,30,-1
 200 404 l 1,31,-1
 200 415 l 1,28,-1
200 251 m 1,32,-1
 732 251 l 1,33,-1
 732 241 l 1,34,-1
 200 241 l 1,35,-1
 200 251 l 1,32,-1
200 87 m 1,36,-1
 732 87 l 1,37,-1
 732 77 l 1,38,-1
 200 77 l 1,39,-1
 200 87 l 1,36,-1
272 -77 m 1,40,-1
 558 -77 l 1,41,-1
 558 -87 l 1,42,-1
 272 -87 l 1,43,-1
 272 -77 l 1,40,-1
415 -83 m 0,44,45
 472 -83 472 -83 499.5 -107 c 128,-1,46
 527 -131 527 -131 527 -164 c 0,47,48
 527 -198 527 -198 499.5 -222 c 128,-1,49
 472 -246 472 -246 415 -246 c 128,-1,50
 358 -246 358 -246 330 -221.5 c 128,-1,51
 302 -197 302 -197 302 -164 c 128,-1,52
 302 -131 302 -131 329.5 -107 c 128,-1,53
 357 -83 357 -83 415 -83 c 0,44,45
365 -138 m 0,54,55
 370 -164 370 -164 379 -193 c 0,56,57
 389 -226 389 -226 419 -226 c 2,58,-1
 427 -226 l 2,59,60
 436 -225 436 -225 441 -224 c 0,61,62
 455 -221 455 -221 461 -211 c 0,63,64
 465 -201 465 -201 465 -192 c 0,65,66
 465 -179 465 -179 457 -153 c 2,67,-1
 456 -147 l 2,68,69
 452 -132 452 -132 448 -124 c 128,-1,70
 444 -116 444 -116 436 -108.5 c 128,-1,71
 428 -101 428 -101 417 -101 c 2,72,-1
 416 -101 l 2,73,74
 400 -101 400 -101 388 -104 c 0,75,76
 374 -107 374 -107 368 -116 c 0,77,78
 364 -124 364 -124 364 -130 c 128,-1,79
 364 -136 364 -136 365 -138 c 0,54,55
EndSplineSet
EndChar

StartChar: C
Encoding: 67 67 22
Width: 681
GlyphClass: 1
Flags: W
LayerCount: 2
Fore
SplineSet
0 742 m 1,0,-1
 317 742 l 1,1,-1
 317 732 l 1,2,-1
 0 732 l 1,3,-1
 0 742 l 1,0,-1
0 579 m 1,4,-1
 317 579 l 1,5,-1
 317 568 l 1,6,-1
 0 568 l 1,7,-1
 0 579 l 1,4,-1
0 415 m 1,8,-1
 317 415 l 1,9,-1
 317 404 l 1,10,-1
 0 404 l 1,11,-1
 0 415 l 1,8,-1
0 251 m 1,12,-1
 317 251 l 1,13,-1
 317 241 l 1,14,-1
 0 241 l 1,15,-1
 0 251 l 1,12,-1
0 87 m 1,16,-1
 317 87 l 1,17,-1
 317 77 l 1,18,-1
 0 77 l 1,19,-1
 0 87 l 1,16,-1
200 742 m 1,20,-1
 732 742 l 1,21,-1
 732 732 l 1,22,-1
 200 732 l 1,23,-1
 200 742 l 1,20,-1
200 579 m 1,24,-1
 732 579 l 1,25,-1
 732 568 l 1,26,-1
 200 568 l 1,27,-1
 200 579 l 1,24,-1
200 415 m 1,28,-1
 732 415 l 1,29,-1
 732 404 l 1,30,-1
 200 404 l 1,31,-1
 200 415 l 1,28,-1
200 251 m 1,32,-1
 732 251 l 1,33,-1
 732 241 l 1,34,-1
 200 241 l 1,35,-1
 200 251 l 1,32,-1
200 87 m 1,36,-1
 732 87 l 1,37,-1
 732 77 l 1,38,-1
 200 77 l 1,39,-1
 200 87 l 1,36,-1
272 -77 m 1,40,-1
 558 -77 l 1,41,-1
 558 -87 l 1,42,-1
 272 -87 l 1,43,-1
 272 -77 l 1,40,-1
415 -1 m 0,44,45
 472 -1 472 -1 499.5 -25 c 128,-1,46
 527 -49 527 -49 527 -82 c 0,47,48
 527 -116 527 -116 499.5 -140 c 128,-1,49
 472 -164 472 -164 415 -164 c 128,-1,50
 358 -164 358 -164 330 -139.5 c 128,-1,51
 302 -115 302 -115 302 -82 c 128,-1,52
 302 -49 302 -49 329.5 -25 c 128,-1,53
 357 -1 357 -1 415 -1 c 0,44,45
365 -56 m 0,54,55
 370 -82 370 -82 379 -111 c 0,56,57
 389 -145 389 -145 419 -145 c 0,58,59
 420 -145 420 -145 422.5 -144.5 c 128,-1,60
 425 -144 425 -144 427 -144 c 0,61,62
 436 -143 436 -143 441 -142 c 0,63,64
 455 -139 455 -139 461 -129 c 0,65,66
 465 -119 465 -119 465 -110 c 0,67,68
 465 -97 465 -97 457 -71 c 2,69,-1
 456 -65 l 2,70,71
 452 -50 452 -50 448 -42 c 128,-1,72
 444 -34 444 -34 436 -26.5 c 128,-1,73
 428 -19 428 -19 417 -19 c 2,74,-1
 416 -19 l 2,75,76
 400 -19 400 -19 388 -22 c 0,77,78
 375 -25 375 -25 368 -35 c 0,79,80
 364 -43 364 -43 364 -48 c 0,81,82
 364 -54 364 -54 365 -56 c 0,54,55
EndSplineSet
EndChar

StartChar: D
Encoding: 68 68 23
Width: 681
GlyphClass: 1
Flags: W
LayerCount: 2
Fore
SplineSet
0 742 m 1,0,-1
 317 742 l 1,1,-1
 317 732 l 1,2,-1
 0 732 l 1,3,-1
 0 742 l 1,0,-1
0 579 m 1,4,-1
 317 579 l 1,5,-1
 317 568 l 1,6,-1
 0 568 l 1,7,-1
 0 579 l 1,4,-1
0 415 m 1,8,-1
 317 415 l 1,9,-1
 317 404 l 1,10,-1
 0 404 l 1,11,-1
 0 415 l 1,8,-1
0 251 m 1,12,-1
 317 251 l 1,13,-1
 317 241 l 1,14,-1
 0 241 l 1,15,-1
 0 251 l 1,12,-1
0 87 m 1,16,-1
 317 87 l 1,17,-1
 317 77 l 1,18,-1
 0 77 l 1,19,-1
 0 87 l 1,16,-1
200 742 m 1,20,-1
 732 742 l 1,21,-1
 732 732 l 1,22,-1
 200 732 l 1,23,-1
 200 742 l 1,20,-1
200 579 m 1,24,-1
 732 579 l 1,25,-1
 732 568 l 1,26,-1
 200 568 l 1,27,-1
 200 579 l 1,24,-1
200 415 m 1,28,-1
 732 415 l 1,29,-1
 732 404 l 1,30,-1
 200 404 l 1,31,-1
 200 415 l 1,28,-1
200 251 m 1,32,-1
 732 251 l 1,33,-1
 732 241 l 1,34,-1
 200 241 l 1,35,-1
 200 251 l 1,32,-1
200 87 m 1,36,-1
 732 87 l 1,37,-1
 732 77 l 1,38,-1
 200 77 l 1,39,-1
 200 87 l 1,36,-1
415 81 m 0,40,41
 472 81 472 81 499.5 57 c 128,-1,42
 527 33 527 33 527 0 c 0,43,44
 527 -34 527 -34 499.5 -58 c 128,-1,45
 472 -82 472 -82 415 -82 c 128,-1,46
 358 -82 358 -82 330 -57.5 c 128,-1,47
 302 -33 302 -33 302 0 c 128,-1,48
 302 33 302 33 329.5 57 c 128,-1,49
 357 81 357 81 415 81 c 0,40,41
365 26 m 0,50,51
 370 0 370 0 379 -29 c 0,52,53
 389 -63 389 -63 419 -63 c 0,54,55
 420 -63 420 -63 422.5 -62.5 c 128,-1,56
 425 -62 425 -62 427 -62 c 0,57,58
 436 -61 436 -61 441 -60 c 0,59,60
 455 -57 455 -57 461 -47 c 0,61,62
 465 -37 465 -37 465 -28 c 0,63,64
 465 -15 465 -15 457 11 c 2,65,-1
 456 17 l 2,66,67
 452 31 452 31 448 39.5 c 128,-1,68
 444 48 444 48 436 55 c 128,-1,69
 428 62 428 62 417 62 c 2,70,-1
 416 62 l 2,71,72
 400 62 400 62 388 59 c 0,73,74
 374 56 374 56 368 47 c 0,75,76
 364 39 364 39 364 33 c 0,77,78
 364 28 364 28 365 26 c 0,50,51
EndSplineSet
EndChar

StartChar: E
Encoding: 69 69 24
Width: 681
GlyphClass: 1
Flags: W
LayerCount: 2
Fore
SplineSet
0 742 m 1,0,-1
 317 742 l 1,1,-1
 317 732 l 1,2,-1
 0 732 l 1,3,-1
 0 742 l 1,0,-1
0 579 m 1,4,-1
 317 579 l 1,5,-1
 317 568 l 1,6,-1
 0 568 l 1,7,-1
 0 579 l 1,4,-1
0 415 m 1,8,-1
 317 415 l 1,9,-1
 317 404 l 1,10,-1
 0 404 l 1,11,-1
 0 415 l 1,8,-1
0 251 m 1,12,-1
 317 251 l 1,13,-1
 317 241 l 1,14,-1
 0 241 l 1,15,-1
 0 251 l 1,12,-1
0 87 m 1,16,-1
 317 87 l 1,17,-1
 317 77 l 1,18,-1
 0 77 l 1,19,-1
 0 87 l 1,16,-1
200 742 m 1,20,-1
 732 742 l 1,21,-1
 732 732 l 1,22,-1
 200 732 l 1,23,-1
 200 742 l 1,20,-1
200 579 m 1,24,-1
 732 579 l 1,25,-1
 732 568 l 1,26,-1
 200 568 l 1,27,-1
 200 579 l 1,24,-1
200 415 m 1,28,-1
 732 415 l 1,29,-1
 732 404 l 1,30,-1
 200 404 l 1,31,-1
 200 415 l 1,28,-1
200 251 m 1,32,-1
 732 251 l 1,33,-1
 732 241 l 1,34,-1
 200 241 l 1,35,-1
 200 251 l 1,32,-1
200 87 m 1,36,-1
 732 87 l 1,37,-1
 732 77 l 1,38,-1
 200 77 l 1,39,-1
 200 87 l 1,36,-1
415 163 m 0,40,41
 472 163 472 163 499.5 139 c 128,-1,42
 527 115 527 115 527 82 c 0,43,44
 527 48 527 48 499.5 24 c 128,-1,45
 472 0 472 0 415 0 c 128,-1,46
 358 0 358 0 330 24.5 c 128,-1,47
 302 49 302 49 302 82 c 128,-1,48
 302 115 302 115 329.5 139 c 128,-1,49
 357 163 357 163 415 163 c 0,40,41
365 108 m 0,50,51
 370 82 370 82 379 53 c 0,52,53
 389 19 389 19 419 19 c 0,54,55
 420 19 420 19 422.5 19.5 c 128,-1,56
 425 20 425 20 427 20 c 0,57,58
 436 21 436 21 441 22 c 0,59,60
 455 25 455 25 461 35 c 0,61,62
 465 45 465 45 465 54 c 0,63,64
 465 67 465 67 457 93 c 2,65,-1
 456 99 l 2,66,67
 452 113 452 113 448 121.5 c 128,-1,68
 444 130 444 130 436 137 c 128,-1,69
 428 144 428 144 417 144 c 2,70,-1
 416 144 l 2,71,72
 400 144 400 144 388 141 c 0,73,74
 374 138 374 138 368 129 c 0,75,76
 364 121 364 121 364 115 c 0,77,78
 364 110 364 110 365 108 c 0,50,51
EndSplineSet
EndChar

StartChar: F
Encoding: 70 70 25
Width: 681
GlyphClass: 1
Flags: W
LayerCount: 2
Fore
SplineSet
0 742 m 1,0,-1
 317 742 l 1,1,-1
 317 732 l 1,2,-1
 0 732 l 1,3,-1
 0 742 l 1,0,-1
0 579 m 1,4,-1
 317 579 l 1,5,-1
 317 568 l 1,6,-1
 0 568 l 1,7,-1
 0 579 l 1,4,-1
0 415 m 1,8,-1
 317 415 l 1,9,-1
 317 404 l 1,10,-1
 0 404 l 1,11,-1
 0 415 l 1,8,-1
0 251 m 1,12,-1
 317 251 l 1,13,-1
 317 241 l 1,14,-1
 0 241 l 1,15,-1
 0 251 l 1,12,-1
0 87 m 1,16,-1
 317 87 l 1,17,-1
 317 77 l 1,18,-1
 0 77 l 1,19,-1
 0 87 l 1,16,-1
200 742 m 1,20,-1
 732 742 l 1,21,-1
 732 732 l 1,22,-1
 200 732 l 1,23,-1
 200 742 l 1,20,-1
200 579 m 1,24,-1
 732 579 l 1,25,-1
 732 568 l 1,26,-1
 200 568 l 1,27,-1
 200 579 l 1,24,-1
200 415 m 1,28,-1
 732 415 l 1,29,-1
 732 404 l 1,30,-1
 200 404 l 1,31,-1
 200 415 l 1,28,-1
200 251 m 1,32,-1
 732 251 l 1,33,-1
 732 241 l 1,34,-1
 200 241 l 1,35,-1
 200 251 l 1,32,-1
200 87 m 1,36,-1
 732 87 l 1,37,-1
 732 77 l 1,38,-1
 200 77 l 1,39,-1
 200 87 l 1,36,-1
415 245 m 128,-1,41
 472 245 472 245 499.5 221 c 128,-1,42
 527 197 527 197 527 163 c 0,43,44
 527 130 527 130 499.5 106 c 128,-1,45
 472 82 472 82 415 82 c 0,46,47
 357 82 357 82 329.5 106 c 128,-1,48
 302 130 302 130 302 163 c 128,-1,49
 302 196 302 196 330 220.5 c 128,-1,40
 358 245 358 245 415 245 c 128,-1,41
365 190 m 0,50,51
 370 161 370 161 379 134 c 0,52,53
 389 101 389 101 419 101 c 0,54,55
 420 101 420 101 422.5 101.5 c 128,-1,56
 425 102 425 102 427 102 c 0,57,58
 436 103 436 103 441 104 c 0,59,60
 455 107 455 107 461 117 c 0,61,62
 465 127 465 127 465 136 c 0,63,64
 465 149 465 149 457 175 c 2,65,-1
 456 181 l 2,66,67
 452 195 452 195 448 203.5 c 128,-1,68
 444 212 444 212 436 219 c 128,-1,69
 428 226 428 226 417 226 c 2,70,-1
 416 226 l 2,71,72
 400 226 400 226 388 223 c 0,73,74
 374 220 374 220 368 211 c 0,75,76
 364 203 364 203 364 197 c 0,77,78
 364 192 364 192 365 190 c 0,50,51
EndSplineSet
EndChar

StartChar: G
Encoding: 71 71 26
Width: 681
GlyphClass: 1
Flags: W
LayerCount: 2
Fore
SplineSet
0 742 m 1,0,-1
 317 742 l 1,1,-1
 317 732 l 1,2,-1
 0 732 l 1,3,-1
 0 742 l 1,0,-1
0 579 m 1,4,-1
 317 579 l 1,5,-1
 317 568 l 1,6,-1
 0 568 l 1,7,-1
 0 579 l 1,4,-1
0 415 m 1,8,-1
 317 415 l 1,9,-1
 317 404 l 1,10,-1
 0 404 l 1,11,-1
 0 415 l 1,8,-1
0 251 m 1,12,-1
 317 251 l 1,13,-1
 317 241 l 1,14,-1
 0 241 l 1,15,-1
 0 251 l 1,12,-1
0 87 m 1,16,-1
 317 87 l 1,17,-1
 317 77 l 1,18,-1
 0 77 l 1,19,-1
 0 87 l 1,16,-1
200 742 m 1,20,-1
 732 742 l 1,21,-1
 732 732 l 1,22,-1
 200 732 l 1,23,-1
 200 742 l 1,20,-1
200 579 m 1,24,-1
 732 579 l 1,25,-1
 732 568 l 1,26,-1
 200 568 l 1,27,-1
 200 579 l 1,24,-1
200 415 m 1,28,-1
 732 415 l 1,29,-1
 732 404 l 1,30,-1
 200 404 l 1,31,-1
 200 415 l 1,28,-1
200 251 m 1,32,-1
 732 251 l 1,33,-1
 732 241 l 1,34,-1
 200 241 l 1,35,-1
 200 251 l 1,32,-1
200 87 m 1,36,-1
 732 87 l 1,37,-1
 732 77 l 1,38,-1
 200 77 l 1,39,-1
 200 87 l 1,36,-1
415 327 m 128,-1,41
 472 327 472 327 499.5 303 c 128,-1,42
 527 279 527 279 527 245 c 0,43,44
 527 212 527 212 499.5 188 c 128,-1,45
 472 164 472 164 415 164 c 0,46,47
 357 164 357 164 329.5 188 c 128,-1,48
 302 212 302 212 302 245 c 128,-1,49
 302 278 302 278 330 302.5 c 128,-1,40
 358 327 358 327 415 327 c 128,-1,41
365 272 m 0,50,51
 370 243 370 243 379 216 c 0,52,53
 389 183 389 183 419 183 c 0,54,55
 420 183 420 183 422.5 183.5 c 128,-1,56
 425 184 425 184 427 184 c 0,57,58
 436 185 436 185 441 186 c 0,59,60
 455 189 455 189 461 199 c 0,61,62
 465 209 465 209 465 218 c 0,63,64
 465 231 465 231 457 257 c 2,65,-1
 456 263 l 2,66,67
 452 277 452 277 448 285.5 c 128,-1,68
 444 294 444 294 436 301 c 128,-1,69
 428 308 428 308 417 308 c 2,70,-1
 416 308 l 2,71,72
 400 308 400 308 388 305 c 0,73,74
 374 302 374 302 368 293 c 0,75,76
 364 285 364 285 364 279 c 0,77,78
 364 274 364 274 365 272 c 0,50,51
EndSplineSet
EndChar

StartChar: I
Encoding: 73 73 27
Width: 681
GlyphClass: 1
Flags: W
LayerCount: 2
Fore
SplineSet
0 742 m 1,0,-1
 317 742 l 1,1,-1
 317 732 l 1,2,-1
 0 732 l 1,3,-1
 0 742 l 1,0,-1
0 579 m 1,4,-1
 317 579 l 1,5,-1
 317 568 l 1,6,-1
 0 568 l 1,7,-1
 0 579 l 1,4,-1
0 415 m 1,8,-1
 317 415 l 1,9,-1
 317 404 l 1,10,-1
 0 404 l 1,11,-1
 0 415 l 1,8,-1
0 251 m 1,12,-1
 317 251 l 1,13,-1
 317 241 l 1,14,-1
 0 241 l 1,15,-1
 0 251 l 1,12,-1
0 87 m 1,16,-1
 317 87 l 1,17,-1
 317 77 l 1,18,-1
 0 77 l 1,19,-1
 0 87 l 1,16,-1
200 742 m 1,20,-1
 732 742 l 1,21,-1
 732 732 l 1,22,-1
 200 732 l 1,23,-1
 200 742 l 1,20,-1
200 579 m 1,24,-1
 732 579 l 1,25,-1
 732 568 l 1,26,-1
 200 568 l 1,27,-1
 200 579 l 1,24,-1
200 415 m 1,28,-1
 732 415 l 1,29,-1
 732 404 l 1,30,-1
 200 404 l 1,31,-1
 200 415 l 1,28,-1
200 251 m 1,32,-1
 732 251 l 1,33,-1
 732 241 l 1,34,-1
 200 241 l 1,35,-1
 200 251 l 1,32,-1
200 87 m 1,36,-1
 732 87 l 1,37,-1
 732 77 l 1,38,-1
 200 77 l 1,39,-1
 200 87 l 1,36,-1
415 491 m 128,-1,41
 472 491 472 491 499.5 467 c 128,-1,42
 527 443 527 443 527 409 c 0,43,44
 527 376 527 376 499.5 352 c 128,-1,45
 472 328 472 328 415 328 c 0,46,47
 357 328 357 328 329.5 352 c 128,-1,48
 302 376 302 376 302 409 c 128,-1,49
 302 442 302 442 330 466.5 c 128,-1,40
 358 491 358 491 415 491 c 128,-1,41
365 436 m 0,50,51
 370 407 370 407 379 380 c 0,52,53
 389 347 389 347 419 347 c 0,54,55
 420 347 420 347 422.5 347.5 c 128,-1,56
 425 348 425 348 427 348 c 0,57,58
 436 348 436 348 441 349 c 0,59,60
 455 352 455 352 461 363 c 0,61,62
 465 373 465 373 465 381 c 0,63,64
 465 395 465 395 457 421 c 2,65,-1
 456 427 l 2,66,67
 452 441 452 441 448 449.5 c 128,-1,68
 444 458 444 458 436 465 c 128,-1,69
 428 472 428 472 417 472 c 2,70,-1
 416 472 l 2,71,72
 400 472 400 472 388 469 c 0,73,74
 374 466 374 466 368 457 c 0,75,76
 364 449 364 449 364 443 c 0,77,78
 364 438 364 438 365 436 c 0,50,51
EndSplineSet
EndChar

StartChar: J
Encoding: 74 74 28
Width: 681
GlyphClass: 1
Flags: W
LayerCount: 2
Fore
SplineSet
0 742 m 1,0,-1
 317 742 l 1,1,-1
 317 732 l 1,2,-1
 0 732 l 1,3,-1
 0 742 l 1,0,-1
0 579 m 1,4,-1
 317 579 l 1,5,-1
 317 568 l 1,6,-1
 0 568 l 1,7,-1
 0 579 l 1,4,-1
0 415 m 1,8,-1
 317 415 l 1,9,-1
 317 404 l 1,10,-1
 0 404 l 1,11,-1
 0 415 l 1,8,-1
0 251 m 1,12,-1
 317 251 l 1,13,-1
 317 241 l 1,14,-1
 0 241 l 1,15,-1
 0 251 l 1,12,-1
0 87 m 1,16,-1
 317 87 l 1,17,-1
 317 77 l 1,18,-1
 0 77 l 1,19,-1
 0 87 l 1,16,-1
200 742 m 1,20,-1
 732 742 l 1,21,-1
 732 732 l 1,22,-1
 200 732 l 1,23,-1
 200 742 l 1,20,-1
200 579 m 1,24,-1
 732 579 l 1,25,-1
 732 568 l 1,26,-1
 200 568 l 1,27,-1
 200 579 l 1,24,-1
200 415 m 1,28,-1
 732 415 l 1,29,-1
 732 404 l 1,30,-1
 200 404 l 1,31,-1
 200 415 l 1,28,-1
200 251 m 1,32,-1
 732 251 l 1,33,-1
 732 241 l 1,34,-1
 200 241 l 1,35,-1
 200 251 l 1,32,-1
200 87 m 1,36,-1
 732 87 l 1,37,-1
 732 77 l 1,38,-1
 200 77 l 1,39,-1
 200 87 l 1,36,-1
415 573 m 128,-1,41
 472 573 472 573 499.5 549 c 128,-1,42
 527 525 527 525 527 491 c 0,43,44
 527 458 527 458 499.5 434 c 128,-1,45
 472 410 472 410 415 410 c 0,46,47
 357 410 357 410 329.5 434 c 128,-1,48
 302 458 302 458 302 491 c 128,-1,49
 302 524 302 524 330 548.5 c 128,-1,40
 358 573 358 573 415 573 c 128,-1,41
365 518 m 0,50,51
 370 489 370 489 379 462 c 0,52,53
 389 429 389 429 419 429 c 0,54,55
 420 429 420 429 422.5 429.5 c 128,-1,56
 425 430 425 430 427 430 c 0,57,58
 436 430 436 430 441 431 c 0,59,60
 455 434 455 434 461 445 c 0,61,62
 465 455 465 455 465 463 c 0,63,64
 465 477 465 477 457 503 c 2,65,-1
 456 509 l 2,66,67
 452 523 452 523 448 531.5 c 128,-1,68
 444 540 444 540 436 547 c 128,-1,69
 428 554 428 554 417 554 c 2,70,-1
 416 554 l 2,71,72
 400 554 400 554 388 551 c 0,73,74
 374 548 374 548 368 539 c 0,75,76
 364 531 364 531 364 525 c 0,77,78
 364 520 364 520 365 518 c 0,50,51
EndSplineSet
EndChar

StartChar: K
Encoding: 75 75 29
Width: 681
GlyphClass: 1
Flags: W
LayerCount: 2
Fore
SplineSet
0 742 m 1,0,-1
 317 742 l 1,1,-1
 317 732 l 1,2,-1
 0 732 l 1,3,-1
 0 742 l 1,0,-1
0 579 m 1,4,-1
 317 579 l 1,5,-1
 317 568 l 1,6,-1
 0 568 l 1,7,-1
 0 579 l 1,4,-1
0 415 m 1,8,-1
 317 415 l 1,9,-1
 317 404 l 1,10,-1
 0 404 l 1,11,-1
 0 415 l 1,8,-1
0 251 m 1,12,-1
 317 251 l 1,13,-1
 317 241 l 1,14,-1
 0 241 l 1,15,-1
 0 251 l 1,12,-1
0 87 m 1,16,-1
 317 87 l 1,17,-1
 317 77 l 1,18,-1
 0 77 l 1,19,-1
 0 87 l 1,16,-1
200 742 m 1,20,-1
 732 742 l 1,21,-1
 732 732 l 1,22,-1
 200 732 l 1,23,-1
 200 742 l 1,20,-1
200 579 m 1,24,-1
 732 579 l 1,25,-1
 732 568 l 1,26,-1
 200 568 l 1,27,-1
 200 579 l 1,24,-1
200 415 m 1,28,-1
 732 415 l 1,29,-1
 732 404 l 1,30,-1
 200 404 l 1,31,-1
 200 415 l 1,28,-1
200 251 m 1,32,-1
 732 251 l 1,33,-1
 732 241 l 1,34,-1
 200 241 l 1,35,-1
 200 251 l 1,32,-1
200 87 m 1,36,-1
 732 87 l 1,37,-1
 732 77 l 1,38,-1
 200 77 l 1,39,-1
 200 87 l 1,36,-1
415 655 m 128,-1,41
 472 655 472 655 499.5 631 c 128,-1,42
 527 607 527 607 527 573 c 0,43,44
 527 540 527 540 499.5 516 c 128,-1,45
 472 492 472 492 415 492 c 0,46,47
 357 492 357 492 329.5 516 c 128,-1,48
 302 540 302 540 302 573 c 128,-1,49
 302 606 302 606 330 630.5 c 128,-1,40
 358 655 358 655 415 655 c 128,-1,41
365 600 m 0,50,51
 370 571 370 571 379 544 c 0,52,53
 389 511 389 511 419 511 c 2,54,-1
 427 511 l 2,55,56
 436 512 436 512 441 513 c 0,57,58
 455 516 455 516 461 527 c 0,59,60
 465 537 465 537 465 545 c 0,61,62
 465 559 465 559 457 585 c 2,63,-1
 456 591 l 2,64,65
 452 605 452 605 448 613.5 c 128,-1,66
 444 622 444 622 436 629 c 128,-1,67
 428 636 428 636 417 636 c 2,68,-1
 416 636 l 2,69,70
 400 636 400 636 388 633 c 0,71,72
 374 630 374 630 368 621 c 0,73,74
 364 613 364 613 364 607 c 0,75,76
 364 602 364 602 365 600 c 0,50,51
EndSplineSet
EndChar

StartChar: L
Encoding: 76 76 30
Width: 681
GlyphClass: 1
Flags: W
LayerCount: 2
Fore
SplineSet
0 742 m 1,0,-1
 317 742 l 1,1,-1
 317 732 l 1,2,-1
 0 732 l 1,3,-1
 0 742 l 1,0,-1
0 579 m 1,4,-1
 317 579 l 1,5,-1
 317 568 l 1,6,-1
 0 568 l 1,7,-1
 0 579 l 1,4,-1
0 415 m 1,8,-1
 317 415 l 1,9,-1
 317 404 l 1,10,-1
 0 404 l 1,11,-1
 0 415 l 1,8,-1
0 251 m 1,12,-1
 317 251 l 1,13,-1
 317 241 l 1,14,-1
 0 241 l 1,15,-1
 0 251 l 1,12,-1
0 87 m 1,16,-1
 317 87 l 1,17,-1
 317 77 l 1,18,-1
 0 77 l 1,19,-1
 0 87 l 1,16,-1
200 742 m 1,20,-1
 732 742 l 1,21,-1
 732 732 l 1,22,-1
 200 732 l 1,23,-1
 200 742 l 1,20,-1
200 579 m 1,24,-1
 732 579 l 1,25,-1
 732 568 l 1,26,-1
 200 568 l 1,27,-1
 200 579 l 1,24,-1
200 415 m 1,28,-1
 732 415 l 1,29,-1
 732 404 l 1,30,-1
 200 404 l 1,31,-1
 200 415 l 1,28,-1
200 251 m 1,32,-1
 732 251 l 1,33,-1
 732 241 l 1,34,-1
 200 241 l 1,35,-1
 200 251 l 1,32,-1
200 87 m 1,36,-1
 732 87 l 1,37,-1
 732 77 l 1,38,-1
 200 77 l 1,39,-1
 200 87 l 1,36,-1
415 737 m 128,-1,41
 472 737 472 737 499.5 713 c 128,-1,42
 527 689 527 689 527 655 c 128,-1,43
 527 621 527 621 499.5 597 c 128,-1,44
 472 573 472 573 415 573 c 128,-1,45
 358 573 358 573 330 597.5 c 128,-1,46
 302 622 302 622 302 655 c 128,-1,47
 302 688 302 688 330 712.5 c 128,-1,40
 358 737 358 737 415 737 c 128,-1,41
365 682 m 0,48,49
 370 653 370 653 379 626 c 0,50,51
 389 593 389 593 419 593 c 2,52,-1
 427 593 l 2,53,54
 436 594 436 594 441 595 c 0,55,56
 455 598 455 598 461 608 c 0,57,58
 465 618 465 618 465 627 c 0,59,60
 465 633 465 633 461 648 c 128,-1,61
 457 663 457 663 457 666 c 2,62,-1
 456 673 l 2,63,64
 452 687 452 687 448 695.5 c 128,-1,65
 444 704 444 704 436 711 c 128,-1,66
 428 718 428 718 417 718 c 2,67,-1
 416 718 l 2,68,69
 400 718 400 718 388 715 c 0,70,71
 374 712 374 712 368 703 c 0,72,73
 364 695 364 695 364 689 c 0,74,75
 364 684 364 684 365 682 c 0,48,49
EndSplineSet
EndChar

StartChar: M
Encoding: 77 77 31
Width: 681
GlyphClass: 1
Flags: W
LayerCount: 2
Fore
SplineSet
0 742 m 1,0,-1
 317 742 l 1,1,-1
 317 732 l 1,2,-1
 0 732 l 1,3,-1
 0 742 l 1,0,-1
0 579 m 1,4,-1
 317 579 l 1,5,-1
 317 568 l 1,6,-1
 0 568 l 1,7,-1
 0 579 l 1,4,-1
0 415 m 1,8,-1
 317 415 l 1,9,-1
 317 404 l 1,10,-1
 0 404 l 1,11,-1
 0 415 l 1,8,-1
0 251 m 1,12,-1
 317 251 l 1,13,-1
 317 241 l 1,14,-1
 0 241 l 1,15,-1
 0 251 l 1,12,-1
0 87 m 1,16,-1
 317 87 l 1,17,-1
 317 77 l 1,18,-1
 0 77 l 1,19,-1
 0 87 l 1,16,-1
200 742 m 1,20,-1
 732 742 l 1,21,-1
 732 732 l 1,22,-1
 200 732 l 1,23,-1
 200 742 l 1,20,-1
200 579 m 1,24,-1
 732 579 l 1,25,-1
 732 568 l 1,26,-1
 200 568 l 1,27,-1
 200 579 l 1,24,-1
200 415 m 1,28,-1
 732 415 l 1,29,-1
 732 404 l 1,30,-1
 200 404 l 1,31,-1
 200 415 l 1,28,-1
200 251 m 1,32,-1
 732 251 l 1,33,-1
 732 241 l 1,34,-1
 200 241 l 1,35,-1
 200 251 l 1,32,-1
200 87 m 1,36,-1
 732 87 l 1,37,-1
 732 77 l 1,38,-1
 200 77 l 1,39,-1
 200 87 l 1,36,-1
415 818 m 0,40,41
 472 818 472 818 499.5 794 c 128,-1,42
 527 770 527 770 527 737 c 0,43,44
 527 703 527 703 499.5 679 c 128,-1,45
 472 655 472 655 415 655 c 128,-1,46
 358 655 358 655 330 679.5 c 128,-1,47
 302 704 302 704 302 737 c 128,-1,48
 302 770 302 770 329.5 794 c 128,-1,49
 357 818 357 818 415 818 c 0,40,41
365 764 m 0,50,51
 370 735 370 735 379 708 c 0,52,53
 389 675 389 675 419 675 c 2,54,-1
 427 675 l 2,55,56
 436 676 436 676 441 677 c 0,57,58
 455 680 455 680 461 690 c 0,59,60
 465 700 465 700 465 709 c 0,61,62
 465 722 465 722 457 748 c 2,63,-1
 456 754 l 2,64,65
 452 769 452 769 448 777 c 128,-1,66
 444 785 444 785 436 792.5 c 128,-1,67
 428 800 428 800 417 800 c 2,68,-1
 416 800 l 2,69,70
 400 800 400 800 388 797 c 0,71,72
 374 794 374 794 368 785 c 0,73,74
 364 777 364 777 364 771 c 0,75,76
 364 766 364 766 365 764 c 0,50,51
EndSplineSet
EndChar

StartChar: N
Encoding: 78 78 32
Width: 681
GlyphClass: 1
Flags: W
LayerCount: 2
Fore
SplineSet
0 742 m 1,0,-1
 317 742 l 1,1,-1
 317 732 l 1,2,-1
 0 732 l 1,3,-1
 0 742 l 1,0,-1
0 579 m 1,4,-1
 317 579 l 1,5,-1
 317 568 l 1,6,-1
 0 568 l 1,7,-1
 0 579 l 1,4,-1
0 415 m 1,8,-1
 317 415 l 1,9,-1
 317 404 l 1,10,-1
 0 404 l 1,11,-1
 0 415 l 1,8,-1
0 251 m 1,12,-1
 317 251 l 1,13,-1
 317 241 l 1,14,-1
 0 241 l 1,15,-1
 0 251 l 1,12,-1
0 87 m 1,16,-1
 317 87 l 1,17,-1
 317 77 l 1,18,-1
 0 77 l 1,19,-1
 0 87 l 1,16,-1
200 742 m 1,20,-1
 732 742 l 1,21,-1
 732 732 l 1,22,-1
 200 732 l 1,23,-1
 200 742 l 1,20,-1
200 579 m 1,24,-1
 732 579 l 1,25,-1
 732 568 l 1,26,-1
 200 568 l 1,27,-1
 200 579 l 1,24,-1
200 415 m 1,28,-1
 732 415 l 1,29,-1
 732 404 l 1,30,-1
 200 404 l 1,31,-1
 200 415 l 1,28,-1
200 251 m 1,32,-1
 732 251 l 1,33,-1
 732 241 l 1,34,-1
 200 241 l 1,35,-1
 200 251 l 1,32,-1
200 87 m 1,36,-1
 732 87 l 1,37,-1
 732 77 l 1,38,-1
 200 77 l 1,39,-1
 200 87 l 1,36,-1
415 900 m 0,40,41
 472 900 472 900 499.5 876 c 128,-1,42
 527 852 527 852 527 819 c 0,43,44
 527 785 527 785 499.5 761 c 128,-1,45
 472 737 472 737 415 737 c 128,-1,46
 358 737 358 737 330 761.5 c 128,-1,47
 302 786 302 786 302 819 c 128,-1,48
 302 852 302 852 329.5 876 c 128,-1,49
 357 900 357 900 415 900 c 0,40,41
365 845 m 0,50,51
 370 819 370 819 379 790 c 0,52,53
 389 757 389 757 419 757 c 2,54,-1
 427 757 l 2,55,56
 436 758 436 758 441 759 c 0,57,58
 455 762 455 762 461 772 c 0,59,60
 465 782 465 782 465 791 c 0,61,62
 465 804 465 804 457 830 c 2,63,-1
 456 836 l 2,64,65
 452 851 452 851 448 859 c 128,-1,66
 444 867 444 867 436 874.5 c 128,-1,67
 428 882 428 882 417 882 c 2,68,-1
 416 882 l 2,69,70
 400 882 400 882 388 879 c 0,71,72
 374 876 374 876 368 867 c 0,73,74
 364 859 364 859 364 853 c 128,-1,75
 364 847 364 847 365 845 c 0,50,51
EndSplineSet
EndChar

StartChar: O
Encoding: 79 79 33
Width: 681
GlyphClass: 1
Flags: W
LayerCount: 2
Fore
SplineSet
0 742 m 1,0,-1
 317 742 l 1,1,-1
 317 732 l 1,2,-1
 0 732 l 1,3,-1
 0 742 l 1,0,-1
0 579 m 1,4,-1
 317 579 l 1,5,-1
 317 568 l 1,6,-1
 0 568 l 1,7,-1
 0 579 l 1,4,-1
0 415 m 1,8,-1
 317 415 l 1,9,-1
 317 404 l 1,10,-1
 0 404 l 1,11,-1
 0 415 l 1,8,-1
0 251 m 1,12,-1
 317 251 l 1,13,-1
 317 241 l 1,14,-1
 0 241 l 1,15,-1
 0 251 l 1,12,-1
0 87 m 1,16,-1
 317 87 l 1,17,-1
 317 77 l 1,18,-1
 0 77 l 1,19,-1
 0 87 l 1,16,-1
200 742 m 1,20,-1
 732 742 l 1,21,-1
 732 732 l 1,22,-1
 200 732 l 1,23,-1
 200 742 l 1,20,-1
200 579 m 1,24,-1
 732 579 l 1,25,-1
 732 568 l 1,26,-1
 200 568 l 1,27,-1
 200 579 l 1,24,-1
200 415 m 1,28,-1
 732 415 l 1,29,-1
 732 404 l 1,30,-1
 200 404 l 1,31,-1
 200 415 l 1,28,-1
200 251 m 1,32,-1
 732 251 l 1,33,-1
 732 241 l 1,34,-1
 200 241 l 1,35,-1
 200 251 l 1,32,-1
200 87 m 1,36,-1
 732 87 l 1,37,-1
 732 77 l 1,38,-1
 200 77 l 1,39,-1
 200 87 l 1,36,-1
272 906 m 1,40,-1
 558 906 l 1,41,-1
 558 896 l 1,42,-1
 272 896 l 1,43,-1
 272 906 l 1,40,-1
415 982 m 0,44,45
 472 982 472 982 499.5 958 c 128,-1,46
 527 934 527 934 527 901 c 0,47,48
 527 867 527 867 499.5 843 c 128,-1,49
 472 819 472 819 415 819 c 128,-1,50
 358 819 358 819 330 843.5 c 128,-1,51
 302 868 302 868 302 901 c 128,-1,52
 302 934 302 934 329.5 958 c 128,-1,53
 357 982 357 982 415 982 c 0,44,45
365 927 m 0,54,55
 370 901 370 901 379 872 c 0,56,57
 389 839 389 839 419 839 c 2,58,-1
 427 839 l 2,59,60
 436 840 436 840 441 841 c 0,61,62
 455 844 455 844 461 854 c 0,63,64
 465 864 465 864 465 873 c 0,65,66
 465 886 465 886 457 912 c 2,67,-1
 456 918 l 2,68,69
 452 933 452 933 448 941 c 128,-1,70
 444 949 444 949 436 956.5 c 128,-1,71
 428 964 428 964 417 964 c 2,72,-1
 416 964 l 2,73,74
 400 964 400 964 388 961 c 0,75,76
 375 958 375 958 368 948 c 0,77,78
 364 940 364 940 364 935 c 0,79,80
 364 929 364 929 365 927 c 0,54,55
EndSplineSet
EndChar

StartChar: Q
Encoding: 81 81 34
Width: 681
GlyphClass: 1
Flags: W
LayerCount: 2
Fore
SplineSet
0 742 m 1,0,-1
 317 742 l 1,1,-1
 317 732 l 1,2,-1
 0 732 l 1,3,-1
 0 742 l 1,0,-1
0 579 m 1,4,-1
 317 579 l 1,5,-1
 317 568 l 1,6,-1
 0 568 l 1,7,-1
 0 579 l 1,4,-1
0 415 m 1,8,-1
 317 415 l 1,9,-1
 317 404 l 1,10,-1
 0 404 l 1,11,-1
 0 415 l 1,8,-1
0 251 m 1,12,-1
 317 251 l 1,13,-1
 317 241 l 1,14,-1
 0 241 l 1,15,-1
 0 251 l 1,12,-1
0 87 m 1,16,-1
 317 87 l 1,17,-1
 317 77 l 1,18,-1
 0 77 l 1,19,-1
 0 87 l 1,16,-1
200 742 m 1,20,-1
 732 742 l 1,21,-1
 732 732 l 1,22,-1
 200 732 l 1,23,-1
 200 742 l 1,20,-1
200 579 m 1,24,-1
 732 579 l 1,25,-1
 732 568 l 1,26,-1
 200 568 l 1,27,-1
 200 579 l 1,24,-1
200 415 m 1,28,-1
 732 415 l 1,29,-1
 732 404 l 1,30,-1
 200 404 l 1,31,-1
 200 415 l 1,28,-1
200 251 m 1,32,-1
 732 251 l 1,33,-1
 732 241 l 1,34,-1
 200 241 l 1,35,-1
 200 251 l 1,32,-1
200 87 m 1,36,-1
 732 87 l 1,37,-1
 732 77 l 1,38,-1
 200 77 l 1,39,-1
 200 87 l 1,36,-1
272 1070 m 1,40,-1
 558 1070 l 1,41,-1
 558 1060 l 1,42,-1
 272 1060 l 1,43,-1
 272 1070 l 1,40,-1
272 906 m 1,44,-1
 558 906 l 1,45,-1
 558 896 l 1,46,-1
 272 896 l 1,47,-1
 272 906 l 1,44,-1
415 1146 m 0,48,49
 472 1146 472 1146 499.5 1122 c 128,-1,50
 527 1098 527 1098 527 1065 c 0,51,52
 527 1031 527 1031 499.5 1007 c 128,-1,53
 472 983 472 983 415 983 c 128,-1,54
 358 983 358 983 330 1007.5 c 128,-1,55
 302 1032 302 1032 302 1065 c 128,-1,56
 302 1098 302 1098 329.5 1122 c 128,-1,57
 357 1146 357 1146 415 1146 c 0,48,49
365 1091 m 0,58,59
 370 1065 370 1065 379 1036 c 0,60,61
 389 1002 389 1002 419 1002 c 0,62,63
 420 1002 420 1002 422.5 1002.5 c 128,-1,64
 425 1003 425 1003 427 1003 c 0,65,66
 436 1004 436 1004 441 1005 c 0,67,68
 455 1008 455 1008 461 1018 c 0,69,70
 465 1028 465 1028 465 1037 c 0,71,72
 465 1050 465 1050 457 1076 c 2,73,-1
 456 1082 l 2,74,75
 452 1096 452 1096 448 1104.5 c 128,-1,76
 444 1113 444 1113 436 1120 c 128,-1,77
 428 1127 428 1127 417 1127 c 2,78,-1
 416 1127 l 2,79,80
 400 1127 400 1127 388 1124 c 0,81,82
 374 1121 374 1121 368 1112 c 0,83,84
 364 1104 364 1104 364 1098 c 0,85,86
 364 1093 364 1093 365 1091 c 0,58,59
EndSplineSet
EndChar

StartChar: backslash
Encoding: 92 92 35
Width: 174
GlyphClass: 1
Flags: W
LayerCount: 2
Fore
SplineSet
122 463 m 0,0,1
 123 458 123 458 123 448 c 0,2,3
 123 403 123 403 91 367 c 0,4,5
 58 330 58 330 16 309 c 0,6,7
 15 308 15 308 11 308 c 0,8,9
 3 308 3 308 3 316 c 2,10,-1
 0 681 l 2,11,12
 0 690 0 690 8 690 c 2,13,-1
 15 690 l 2,14,15
 24 690 24 690 24 681 c 2,16,-1
 22 486 l 1,17,18
 39 509 39 509 73 509 c 0,19,20
 114 509 114 509 122 463 c 0,0,1
80 439 m 2,21,-1
 80 446 l 2,22,23
 80 479 80 479 56 479 c 0,24,25
 40 479 40 479 31.5 471 c 128,-1,26
 23 463 23 463 22 456 c 2,27,-1
 20 338 l 1,28,29
 51 361 51 361 62 379 c 0,30,31
 80 407 80 407 80 439 c 2,21,-1
EndSplineSet
EndChar

StartChar: bracketright
Encoding: 93 93 36
Width: 174
GlyphClass: 1
Flags: W
LayerCount: 2
Fore
SplineSet
108 537 m 0,0,1
 111 536 111 536 111 529 c 2,2,-1
 111 207 l 1,3,-1
 94 207 l 1,4,-1
 94 321 l 1,5,-1
 12 299 l 1,6,-1
 9 299 l 2,7,8
 0 299 0 299 0 307 c 2,9,-1
 0 629 l 1,10,-1
 18 629 l 1,11,-1
 18 515 l 1,12,-1
 100 538 l 1,13,14
 100 538 100 538 103 538 c 0,15,16
 107 538 107 538 108 537 c 0,0,1
94 375 m 1,17,-1
 94 483 l 1,18,-1
 18 461 l 1,19,-1
 18 354 l 1,20,-1
 94 375 l 1,17,-1
EndSplineSet
EndChar

StartChar: asciicircum
Encoding: 94 94 37
Width: 225
GlyphClass: 1
Flags: W
LayerCount: 2
Fore
SplineSet
109 456 m 1,0,-1
 51 444 l 1,1,-1
 51 336 l 1,2,-1
 109 349 l 1,3,-1
 109 456 l 1,0,-1
51 280 m 1,4,-1
 51 180 l 1,5,-1
 33 180 l 1,6,-1
 33 276 l 1,7,-1
 11 272 l 1,8,-1
 9 272 l 2,9,10
 0 272 0 272 0 281 c 2,11,-1
 0 319 l 2,12,13
 0 326 0 326 7 328 c 2,14,-1
 33 333 l 1,15,-1
 33 440 l 1,16,-1
 11 436 l 1,17,-1
 9 436 l 2,18,19
 0 436 0 436 0 445 c 2,20,-1
 0 481 l 1,21,-1
 0 483 l 2,22,23
 0 490 0 490 7 492 c 2,24,-1
 33 497 l 1,25,-1
 33 593 l 1,26,-1
 51 593 l 1,27,-1
 51 501 l 1,28,-1
 109 513 l 1,29,-1
 109 613 l 1,30,-1
 127 613 l 1,31,-1
 127 516 l 1,32,-1
 148 521 l 1,33,-1
 150 521 l 2,34,35
 159 521 159 521 159 512 c 2,36,-1
 159 473 l 2,37,38
 159 466 159 466 152 464 c 2,39,-1
 127 460 l 1,40,-1
 127 353 l 1,41,-1
 148 357 l 1,42,-1
 150 357 l 2,43,44
 159 357 159 357 159 348 c 2,45,-1
 159 310 l 2,46,47
 159 302 159 302 152 300 c 2,48,-1
 127 296 l 1,49,-1
 127 200 l 1,50,-1
 109 200 l 1,51,-1
 109 292 l 1,52,-1
 51 280 l 1,4,-1
EndSplineSet
EndChar

StartChar: exclamdown
Encoding: 161 161 38
Width: 537
GlyphClass: 1
Flags: W
LayerCount: 2
Fore
SplineSet
0 87 m 1,0,-1
 589 87 l 1,1,-1
 589 77 l 1,2,-1
 0 77 l 1,3,-1
 0 87 l 1,0,-1
0 251 m 1,4,-1
 589 251 l 1,5,-1
 589 241 l 1,6,-1
 0 241 l 1,7,-1
 0 251 l 1,4,-1
51 579 m 1,8,-1
 109 579 l 1,9,-1
 109 620 l 1,10,-1
 51 608 l 1,11,-1
 51 579 l 1,8,-1
109 732 m 1,12,-1
 51 732 l 1,13,-1
 51 664 l 1,14,-1
 109 676 l 1,15,-1
 109 732 l 1,12,-1
109 742 m 1,16,-1
 109 784 l 1,17,-1
 51 772 l 1,18,-1
 51 742 l 1,19,-1
 109 742 l 1,16,-1
127 732 m 1,20,-1
 127 680 l 1,21,-1
 148 685 l 1,22,-1
 150 685 l 2,23,24
 159 685 159 685 159 676 c 2,25,-1
 159 637 l 2,26,27
 159 630 159 630 152 628 c 2,28,-1
 127 624 l 1,29,-1
 127 579 l 1,30,-1
 195 579 l 1,31,-1
 196 579 l 1,32,-1
 196 674 l 1,33,-1
 215 674 l 1,34,-1
 215 583 l 1,35,-1
 273 594 l 1,36,-1
 273 695 l 1,37,-1
 291 695 l 1,38,-1
 291 598 l 1,39,-1
 312 603 l 1,40,-1
 313 603 l 2,41,42
 323 603 323 603 323 594 c 2,43,-1
 323 579 l 1,44,-1
 589 579 l 1,45,-1
 589 568 l 1,46,-1
 323 568 l 1,47,-1
 323 555 l 2,48,49
 323 548 323 548 315 546 c 2,50,-1
 291 542 l 1,51,-1
 291 434 l 1,52,-1
 312 439 l 1,53,-1
 313 439 l 2,54,55
 323 439 323 439 323 430 c 2,56,-1
 323 415 l 1,57,-1
 589 415 l 1,58,-1
 589 404 l 1,59,-1
 323 404 l 1,60,-1
 323 392 l 2,61,62
 323 384 323 384 315 382 c 2,63,-1
 291 378 l 1,64,-1
 291 282 l 1,65,-1
 273 282 l 1,66,-1
 273 374 l 1,67,-1
 215 362 l 1,68,-1
 215 261 l 1,69,-1
 196 261 l 1,70,-1
 196 358 l 1,71,-1
 175 354 l 1,72,-1
 173 354 l 2,73,74
 164 354 164 354 164 363 c 2,75,-1
 164 401 l 2,76,77
 164 403 164 403 165 404 c 1,78,-1
 0 404 l 1,79,-1
 0 415 l 1,80,-1
 195 415 l 1,81,-1
 196 415 l 1,82,-1
 196 522 l 1,83,-1
 175 518 l 1,84,-1
 173 518 l 2,85,86
 164 518 164 518 164 527 c 2,87,-1
 164 563 l 1,88,-1
 164 565 l 2,89,90
 164 567 164 567 165 568 c 1,91,-1
 127 568 l 1,92,-1
 127 528 l 1,93,-1
 109 528 l 1,94,-1
 109 568 l 1,95,-1
 51 568 l 1,96,-1
 51 507 l 1,97,-1
 33 507 l 1,98,-1
 33 568 l 1,99,-1
 0 568 l 1,100,-1
 0 579 l 1,101,-1
 33 579 l 1,102,-1
 33 604 l 1,103,-1
 11 600 l 1,104,-1
 9 600 l 2,105,106
 0 600 0 600 0 609 c 2,107,-1
 0 646 l 2,108,109
 0 653 0 653 7 655 c 2,110,-1
 33 661 l 1,111,-1
 33 732 l 1,112,-1
 0 732 l 1,113,-1
 0 742 l 1,114,-1
 33 742 l 1,115,-1
 33 768 l 1,116,-1
 11 763 l 1,117,-1
 9 763 l 2,118,119
 0 763 0 763 0 773 c 2,120,-1
 0 809 l 1,121,-1
 0 810 l 2,122,123
 0 817 0 817 7 819 c 2,124,-1
 33 825 l 1,125,-1
 33 920 l 1,126,-1
 51 920 l 1,127,-1
 51 828 l 1,128,-1
 109 840 l 1,129,-1
 109 941 l 1,130,-1
 127 941 l 1,131,-1
 127 844 l 1,132,-1
 148 849 l 1,133,-1
 150 849 l 2,134,135
 159 849 159 849 159 840 c 2,136,-1
 159 801 l 2,137,138
 159 794 159 794 152 792 c 2,139,-1
 127 788 l 1,140,-1
 127 742 l 1,141,-1
 359 742 l 1,142,-1
 360 743 l 1,143,-1
 360 850 l 1,144,-1
 339 845 l 1,145,-1
 337 845 l 2,146,147
 328 845 328 845 328 854 c 2,148,-1
 328 891 l 1,149,-1
 328 892 l 2,150,151
 328 899 328 899 335 901 c 2,152,-1
 360 907 l 1,153,-1
 360 1002 l 1,154,-1
 378 1002 l 1,155,-1
 378 910 l 1,156,-1
 436 922 l 1,157,-1
 436 1023 l 1,158,-1
 455 1023 l 1,159,-1
 455 926 l 1,160,-1
 476 931 l 1,161,-1
 477 931 l 2,162,163
 486 931 486 931 486 921 c 2,164,-1
 486 883 l 2,165,166
 486 876 486 876 479 874 c 2,167,-1
 455 869 l 1,168,-1
 455 762 l 1,169,-1
 476 767 l 1,170,-1
 477 767 l 2,171,172
 486 767 486 767 486 758 c 2,173,-1
 486 742 l 1,174,-1
 589 742 l 1,175,-1
 589 732 l 1,176,-1
 486 732 l 1,177,-1
 486 719 l 2,178,179
 486 712 486 712 479 710 c 2,180,-1
 455 706 l 1,181,-1
 455 610 l 1,182,-1
 436 610 l 1,183,-1
 436 702 l 1,184,-1
 378 690 l 1,185,-1
 378 589 l 1,186,-1
 360 589 l 1,187,-1
 360 686 l 1,188,-1
 339 681 l 1,189,-1
 337 681 l 2,190,191
 328 681 328 681 328 691 c 2,192,-1
 328 728 l 2,193,194
 328 731 328 731 329 732 c 1,195,-1
 127 732 l 1,20,-1
215 418 m 1,196,-1
 273 431 l 1,197,-1
 273 538 l 1,198,-1
 215 526 l 1,199,-1
 215 418 l 1,196,-1
378 746 m 1,200,-1
 436 758 l 1,201,-1
 436 866 l 1,202,-1
 378 854 l 1,203,-1
 378 746 l 1,200,-1
EndSplineSet
EndChar

StartChar: cent
Encoding: 162 162 39
Width: 865
GlyphClass: 1
Flags: W
LayerCount: 2
Fore
SplineSet
0 87 m 1,0,-1
 916 87 l 1,1,-1
 916 77 l 1,2,-1
 0 77 l 1,3,-1
 0 87 l 1,0,-1
51 579 m 1,4,-1
 109 579 l 1,5,-1
 109 620 l 1,6,-1
 51 608 l 1,7,-1
 51 579 l 1,4,-1
109 732 m 1,8,-1
 51 732 l 1,9,-1
 51 664 l 1,10,-1
 109 676 l 1,11,-1
 109 732 l 1,8,-1
109 742 m 1,12,-1
 109 784 l 1,13,-1
 51 772 l 1,14,-1
 51 742 l 1,15,-1
 109 742 l 1,12,-1
600 732 m 1,16,-1
 542 732 l 1,17,-1
 542 665 l 1,18,-1
 600 676 l 1,19,-1
 600 732 l 1,16,-1
524 579 m 1,20,-1
 524 604 l 1,21,-1
 503 600 l 1,22,-1
 501 600 l 2,23,24
 492 600 492 600 492 609 c 2,25,-1
 492 645 l 1,26,-1
 492 646 l 2,27,28
 492 654 492 654 499 656 c 2,29,-1
 524 661 l 1,30,-1
 524 732 l 1,31,-1
 486 732 l 1,32,-1
 486 719 l 2,33,34
 486 712 486 712 479 710 c 2,35,-1
 455 706 l 1,36,-1
 455 610 l 1,37,-1
 436 610 l 1,38,-1
 436 702 l 1,39,-1
 378 690 l 1,40,-1
 378 589 l 1,41,-1
 360 589 l 1,42,-1
 360 686 l 1,43,-1
 339 681 l 1,44,-1
 337 681 l 2,45,46
 328 681 328 681 328 691 c 2,47,-1
 328 728 l 2,48,49
 328 731 328 731 329 732 c 1,50,-1
 127 732 l 1,51,-1
 127 680 l 1,52,-1
 148 685 l 1,53,-1
 150 685 l 2,54,55
 159 685 159 685 159 676 c 2,56,-1
 159 637 l 2,57,58
 159 630 159 630 152 628 c 2,59,-1
 127 624 l 1,60,-1
 127 579 l 1,61,-1
 195 579 l 1,62,-1
 196 579 l 1,63,-1
 196 674 l 1,64,-1
 215 674 l 1,65,-1
 215 583 l 1,66,-1
 273 594 l 1,67,-1
 273 695 l 1,68,-1
 291 695 l 1,69,-1
 291 598 l 1,70,-1
 312 603 l 1,71,-1
 313 603 l 2,72,73
 323 603 323 603 323 594 c 2,74,-1
 323 579 l 1,75,-1
 524 579 l 1,20,-1
524 415 m 1,76,-1
 524 440 l 1,77,-1
 503 436 l 1,78,-1
 501 436 l 2,79,80
 492 436 492 436 492 445 c 2,81,-1
 492 483 l 2,82,83
 492 490 492 490 499 492 c 2,84,-1
 524 497 l 1,85,-1
 524 568 l 1,86,-1
 323 568 l 1,87,-1
 323 555 l 2,88,89
 323 548 323 548 315 546 c 2,90,-1
 291 542 l 1,91,-1
 291 434 l 1,92,-1
 312 439 l 1,93,-1
 313 439 l 2,94,95
 323 439 323 439 323 430 c 2,96,-1
 323 415 l 1,97,-1
 524 415 l 1,76,-1
542 415 m 1,98,-1
 600 415 l 1,99,-1
 600 456 l 1,100,-1
 542 444 l 1,101,-1
 542 415 l 1,98,-1
524 404 m 1,102,-1
 323 404 l 1,103,-1
 323 392 l 2,104,105
 323 384 323 384 315 382 c 2,106,-1
 291 378 l 1,107,-1
 291 282 l 1,108,-1
 273 282 l 1,109,-1
 273 374 l 1,110,-1
 215 362 l 1,111,-1
 215 261 l 1,112,-1
 196 261 l 1,113,-1
 196 358 l 1,114,-1
 175 354 l 1,115,-1
 173 354 l 2,116,117
 164 354 164 354 164 363 c 2,118,-1
 164 401 l 2,119,120
 164 403 164 403 165 404 c 1,121,-1
 0 404 l 1,122,-1
 0 415 l 1,123,-1
 195 415 l 1,124,-1
 196 415 l 1,125,-1
 196 522 l 1,126,-1
 175 518 l 1,127,-1
 173 518 l 2,128,129
 164 518 164 518 164 527 c 2,130,-1
 164 563 l 1,131,-1
 164 565 l 2,132,133
 164 567 164 567 165 568 c 1,134,-1
 127 568 l 1,135,-1
 127 528 l 1,136,-1
 109 528 l 1,137,-1
 109 568 l 1,138,-1
 51 568 l 1,139,-1
 51 507 l 1,140,-1
 33 507 l 1,141,-1
 33 568 l 1,142,-1
 0 568 l 1,143,-1
 0 579 l 1,144,-1
 33 579 l 1,145,-1
 33 604 l 1,146,-1
 11 600 l 1,147,-1
 9 600 l 2,148,149
 0 600 0 600 0 609 c 2,150,-1
 0 646 l 2,151,152
 0 653 0 653 7 655 c 2,153,-1
 33 661 l 1,154,-1
 33 732 l 1,155,-1
 0 732 l 1,156,-1
 0 742 l 1,157,-1
 33 742 l 1,158,-1
 33 768 l 1,159,-1
 11 763 l 1,160,-1
 9 763 l 2,161,162
 0 763 0 763 0 773 c 2,163,-1
 0 809 l 1,164,-1
 0 810 l 2,165,166
 0 817 0 817 7 819 c 2,167,-1
 33 825 l 1,168,-1
 33 920 l 1,169,-1
 51 920 l 1,170,-1
 51 828 l 1,171,-1
 109 840 l 1,172,-1
 109 941 l 1,173,-1
 127 941 l 1,174,-1
 127 844 l 1,175,-1
 148 849 l 1,176,-1
 150 849 l 2,177,178
 159 849 159 849 159 840 c 2,179,-1
 159 801 l 2,180,181
 159 794 159 794 152 792 c 2,182,-1
 127 788 l 1,183,-1
 127 742 l 1,184,-1
 359 742 l 1,185,-1
 360 743 l 1,186,-1
 360 850 l 1,187,-1
 339 845 l 1,188,-1
 337 845 l 2,189,190
 328 845 328 845 328 854 c 2,191,-1
 328 891 l 1,192,-1
 328 892 l 2,193,194
 328 899 328 899 335 901 c 2,195,-1
 360 907 l 1,196,-1
 360 1002 l 1,197,-1
 378 1002 l 1,198,-1
 378 910 l 1,199,-1
 436 922 l 1,200,-1
 436 1023 l 1,201,-1
 455 1023 l 1,202,-1
 455 926 l 1,203,-1
 476 931 l 1,204,-1
 477 931 l 2,205,206
 486 931 486 931 486 921 c 2,207,-1
 486 883 l 2,208,209
 486 876 486 876 479 874 c 2,210,-1
 455 869 l 1,211,-1
 455 762 l 1,212,-1
 476 767 l 1,213,-1
 477 767 l 2,214,215
 486 767 486 767 486 758 c 2,216,-1
 486 742 l 1,217,-1
 524 742 l 1,218,-1
 524 756 l 1,219,-1
 542 756 l 1,220,-1
 542 742 l 1,221,-1
 600 742 l 1,222,-1
 600 777 l 1,223,-1
 618 777 l 1,224,-1
 618 742 l 1,225,-1
 916 742 l 1,226,-1
 916 732 l 1,227,-1
 618 732 l 1,228,-1
 618 680 l 1,229,-1
 640 685 l 1,230,-1
 641 685 l 2,231,232
 650 685 650 685 650 676 c 2,233,-1
 650 637 l 2,234,235
 650 630 650 630 643 628 c 2,236,-1
 618 624 l 1,237,-1
 618 579 l 1,238,-1
 916 579 l 1,239,-1
 916 568 l 1,240,-1
 618 568 l 1,241,-1
 618 516 l 1,242,-1
 640 521 l 1,243,-1
 641 521 l 2,244,245
 650 521 650 521 650 512 c 2,246,-1
 650 473 l 2,247,248
 650 466 650 466 643 464 c 2,249,-1
 618 460 l 1,250,-1
 618 415 l 1,251,-1
 687 415 l 1,252,-1
 688 415 l 1,253,-1
 688 511 l 1,254,-1
 706 511 l 1,255,-1
 706 419 l 1,256,-1
 764 431 l 1,257,-1
 764 531 l 1,258,-1
 782 531 l 1,259,-1
 782 435 l 1,260,-1
 804 439 l 1,261,-1
 805 439 l 2,262,263
 814 439 814 439 814 430 c 2,264,-1
 814 415 l 1,265,-1
 916 415 l 1,266,-1
 916 404 l 1,267,-1
 814 404 l 1,268,-1
 814 392 l 2,269,270
 814 384 814 384 807 382 c 2,271,-1
 782 378 l 1,272,-1
 782 271 l 1,273,-1
 804 275 l 1,274,-1
 805 275 l 2,275,276
 814 275 814 275 814 266 c 2,277,-1
 814 251 l 1,278,-1
 916 251 l 1,279,-1
 916 241 l 1,280,-1
 814 241 l 1,281,-1
 814 228 l 2,282,283
 814 221 814 221 807 219 c 2,284,-1
 782 214 l 1,285,-1
 782 118 l 1,286,-1
 764 118 l 1,287,-1
 764 210 l 1,288,-1
 706 198 l 1,289,-1
 706 98 l 1,290,-1
 688 98 l 1,291,-1
 688 194 l 1,292,-1
 666 190 l 1,293,-1
 665 190 l 2,294,295
 655 190 655 190 655 199 c 2,296,-1
 655 237 l 2,297,298
 655 240 655 240 656 241 c 1,299,-1
 0 241 l 1,300,-1
 0 251 l 1,301,-1
 687 251 l 1,302,-1
 688 251 l 1,303,-1
 688 358 l 1,304,-1
 666 354 l 1,305,-1
 665 354 l 2,306,307
 655 354 655 354 655 363 c 2,308,-1
 655 399 l 1,309,-1
 655 401 l 2,310,311
 655 403 655 403 656 404 c 1,312,-1
 618 404 l 1,313,-1
 618 364 l 1,314,-1
 600 364 l 1,315,-1
 600 404 l 1,316,-1
 542 404 l 1,317,-1
 542 343 l 1,318,-1
 524 343 l 1,319,-1
 524 404 l 1,102,-1
542 568 m 1,320,-1
 542 500 l 1,321,-1
 600 512 l 1,322,-1
 600 568 l 1,323,-1
 542 568 l 1,320,-1
542 579 m 1,324,-1
 600 579 l 1,325,-1
 600 620 l 1,326,-1
 542 608 l 1,327,-1
 542 579 l 1,324,-1
215 418 m 1,328,-1
 273 431 l 1,329,-1
 273 538 l 1,330,-1
 215 526 l 1,331,-1
 215 418 l 1,328,-1
378 746 m 1,332,-1
 436 758 l 1,333,-1
 436 866 l 1,334,-1
 378 854 l 1,335,-1
 378 746 l 1,332,-1
764 374 m 1,336,-1
 706 362 l 1,337,-1
 706 254 l 1,338,-1
 764 267 l 1,339,-1
 764 374 l 1,336,-1
EndSplineSet
EndChar

StartChar: sterling
Encoding: 163 163 40
Width: 51
GlyphClass: 1
Flags: W
LayerCount: 2
Fore
SplineSet
0 742 m 1,0,-1
 102 742 l 1,1,-1
 102 732 l 1,2,-1
 0 732 l 1,3,-1
 0 742 l 1,0,-1
0 579 m 1,4,-1
 102 579 l 1,5,-1
 102 568 l 1,6,-1
 0 568 l 1,7,-1
 0 579 l 1,4,-1
0 415 m 1,8,-1
 102 415 l 1,9,-1
 102 404 l 1,10,-1
 0 404 l 1,11,-1
 0 415 l 1,8,-1
0 251 m 1,12,-1
 102 251 l 1,13,-1
 102 241 l 1,14,-1
 0 241 l 1,15,-1
 0 251 l 1,12,-1
0 87 m 1,16,-1
 102 87 l 1,17,-1
 102 77 l 1,18,-1
 0 77 l 1,19,-1
 0 87 l 1,16,-1
EndSplineSet
EndChar

StartChar: currency
Encoding: 164 164 41
Width: 373
GlyphClass: 1
Flags: W
LayerCount: 2
Fore
SplineSet
0 87 m 1,0,-1
 425 87 l 1,1,-1
 425 77 l 1,2,-1
 0 77 l 1,3,-1
 0 87 l 1,0,-1
0 251 m 1,4,-1
 425 251 l 1,5,-1
 425 241 l 1,6,-1
 0 241 l 1,7,-1
 0 251 l 1,4,-1
51 579 m 1,8,-1
 109 579 l 1,9,-1
 109 620 l 1,10,-1
 51 608 l 1,11,-1
 51 579 l 1,8,-1
109 732 m 1,12,-1
 51 732 l 1,13,-1
 51 664 l 1,14,-1
 109 676 l 1,15,-1
 109 732 l 1,12,-1
109 742 m 1,16,-1
 109 784 l 1,17,-1
 51 772 l 1,18,-1
 51 742 l 1,19,-1
 109 742 l 1,16,-1
127 732 m 1,20,-1
 127 680 l 1,21,-1
 148 685 l 1,22,-1
 150 685 l 2,23,24
 159 685 159 685 159 676 c 2,25,-1
 159 637 l 2,26,27
 159 630 159 630 152 628 c 2,28,-1
 127 624 l 1,29,-1
 127 579 l 1,30,-1
 195 579 l 1,31,-1
 196 579 l 1,32,-1
 196 674 l 1,33,-1
 215 674 l 1,34,-1
 215 583 l 1,35,-1
 273 594 l 1,36,-1
 273 695 l 1,37,-1
 291 695 l 1,38,-1
 291 598 l 1,39,-1
 312 603 l 1,40,-1
 313 603 l 2,41,42
 323 603 323 603 323 594 c 2,43,-1
 323 579 l 1,44,-1
 425 579 l 1,45,-1
 425 568 l 1,46,-1
 323 568 l 1,47,-1
 323 555 l 2,48,49
 323 548 323 548 315 546 c 2,50,-1
 291 542 l 1,51,-1
 291 434 l 1,52,-1
 312 439 l 1,53,-1
 313 439 l 2,54,55
 323 439 323 439 323 430 c 2,56,-1
 323 415 l 1,57,-1
 425 415 l 1,58,-1
 425 404 l 1,59,-1
 323 404 l 1,60,-1
 323 392 l 2,61,62
 323 384 323 384 315 382 c 2,63,-1
 291 378 l 1,64,-1
 291 282 l 1,65,-1
 273 282 l 1,66,-1
 273 374 l 1,67,-1
 215 362 l 1,68,-1
 215 261 l 1,69,-1
 196 261 l 1,70,-1
 196 358 l 1,71,-1
 175 354 l 1,72,-1
 173 354 l 2,73,74
 164 354 164 354 164 363 c 2,75,-1
 164 401 l 2,76,77
 164 403 164 403 165 404 c 1,78,-1
 0 404 l 1,79,-1
 0 415 l 1,80,-1
 195 415 l 1,81,-1
 196 415 l 1,82,-1
 196 522 l 1,83,-1
 175 518 l 1,84,-1
 173 518 l 2,85,86
 164 518 164 518 164 527 c 2,87,-1
 164 563 l 1,88,-1
 164 565 l 2,89,90
 164 567 164 567 165 568 c 1,91,-1
 127 568 l 1,92,-1
 127 528 l 1,93,-1
 109 528 l 1,94,-1
 109 568 l 1,95,-1
 51 568 l 1,96,-1
 51 507 l 1,97,-1
 33 507 l 1,98,-1
 33 568 l 1,99,-1
 0 568 l 1,100,-1
 0 579 l 1,101,-1
 33 579 l 1,102,-1
 33 604 l 1,103,-1
 11 600 l 1,104,-1
 9 600 l 2,105,106
 0 600 0 600 0 609 c 2,107,-1
 0 646 l 2,108,109
 0 653 0 653 7 655 c 2,110,-1
 33 661 l 1,111,-1
 33 732 l 1,112,-1
 0 732 l 1,113,-1
 0 742 l 1,114,-1
 33 742 l 1,115,-1
 33 768 l 1,116,-1
 11 763 l 1,117,-1
 9 763 l 2,118,119
 0 763 0 763 0 773 c 2,120,-1
 0 809 l 1,121,-1
 0 810 l 2,122,123
 0 817 0 817 7 819 c 2,124,-1
 33 825 l 1,125,-1
 33 920 l 1,126,-1
 51 920 l 1,127,-1
 51 828 l 1,128,-1
 109 840 l 1,129,-1
 109 941 l 1,130,-1
 127 941 l 1,131,-1
 127 844 l 1,132,-1
 148 849 l 1,133,-1
 150 849 l 2,134,135
 159 849 159 849 159 840 c 2,136,-1
 159 801 l 2,137,138
 159 794 159 794 152 792 c 2,139,-1
 127 788 l 1,140,-1
 127 742 l 1,141,-1
 425 742 l 1,142,-1
 425 732 l 1,143,-1
 127 732 l 1,20,-1
215 418 m 1,144,-1
 273 431 l 1,145,-1
 273 538 l 1,146,-1
 215 526 l 1,147,-1
 215 418 l 1,144,-1
EndSplineSet
EndChar

StartChar: yen
Encoding: 165 165 42
Width: 701
GlyphClass: 1
Flags: W
LayerCount: 2
Fore
SplineSet
378 746 m 1,0,-1
 436 758 l 1,1,-1
 436 866 l 1,2,-1
 378 854 l 1,3,-1
 378 746 l 1,0,-1
215 418 m 1,4,-1
 273 431 l 1,5,-1
 273 538 l 1,6,-1
 215 526 l 1,7,-1
 215 418 l 1,4,-1
542 579 m 1,8,-1
 600 579 l 1,9,-1
 600 620 l 1,10,-1
 542 608 l 1,11,-1
 542 579 l 1,8,-1
542 568 m 1,12,-1
 542 500 l 1,13,-1
 600 512 l 1,14,-1
 600 568 l 1,15,-1
 542 568 l 1,12,-1
524 404 m 1,16,-1
 323 404 l 1,17,-1
 323 392 l 2,18,19
 323 384 323 384 315 382 c 2,20,-1
 291 378 l 1,21,-1
 291 282 l 1,22,-1
 273 282 l 1,23,-1
 273 374 l 1,24,-1
 215 362 l 1,25,-1
 215 261 l 1,26,-1
 196 261 l 1,27,-1
 196 358 l 1,28,-1
 175 354 l 1,29,-1
 173 354 l 2,30,31
 164 354 164 354 164 363 c 2,32,-1
 164 401 l 2,33,34
 164 403 164 403 165 404 c 1,35,-1
 0 404 l 1,36,-1
 0 415 l 1,37,-1
 195 415 l 1,38,-1
 196 415 l 1,39,-1
 196 522 l 1,40,-1
 175 518 l 1,41,-1
 173 518 l 2,42,43
 164 518 164 518 164 527 c 2,44,-1
 164 563 l 1,45,-1
 164 565 l 2,46,47
 164 567 164 567 165 568 c 1,48,-1
 127 568 l 1,49,-1
 127 528 l 1,50,-1
 109 528 l 1,51,-1
 109 568 l 1,52,-1
 51 568 l 1,53,-1
 51 507 l 1,54,-1
 33 507 l 1,55,-1
 33 568 l 1,56,-1
 0 568 l 1,57,-1
 0 579 l 1,58,-1
 33 579 l 1,59,-1
 33 604 l 1,60,-1
 11 600 l 1,61,-1
 9 600 l 2,62,63
 0 600 0 600 0 609 c 2,64,-1
 0 646 l 2,65,66
 0 653 0 653 7 655 c 2,67,-1
 33 661 l 1,68,-1
 33 732 l 1,69,-1
 0 732 l 1,70,-1
 0 742 l 1,71,-1
 33 742 l 1,72,-1
 33 768 l 1,73,-1
 11 763 l 1,74,-1
 9 763 l 2,75,76
 0 763 0 763 0 773 c 2,77,-1
 0 809 l 1,78,-1
 0 810 l 2,79,80
 0 817 0 817 7 819 c 2,81,-1
 33 825 l 1,82,-1
 33 920 l 1,83,-1
 51 920 l 1,84,-1
 51 828 l 1,85,-1
 109 840 l 1,86,-1
 109 941 l 1,87,-1
 127 941 l 1,88,-1
 127 844 l 1,89,-1
 148 849 l 1,90,-1
 150 849 l 2,91,92
 159 849 159 849 159 840 c 2,93,-1
 159 801 l 2,94,95
 159 794 159 794 152 792 c 2,96,-1
 127 788 l 1,97,-1
 127 742 l 1,98,-1
 359 742 l 1,99,-1
 360 743 l 1,100,-1
 360 850 l 1,101,-1
 339 845 l 1,102,-1
 337 845 l 2,103,104
 328 845 328 845 328 854 c 2,105,-1
 328 891 l 1,106,-1
 328 892 l 2,107,108
 328 899 328 899 335 901 c 2,109,-1
 360 907 l 1,110,-1
 360 1002 l 1,111,-1
 378 1002 l 1,112,-1
 378 910 l 1,113,-1
 436 922 l 1,114,-1
 436 1023 l 1,115,-1
 455 1023 l 1,116,-1
 455 926 l 1,117,-1
 476 931 l 1,118,-1
 477 931 l 2,119,120
 486 931 486 931 486 921 c 2,121,-1
 486 883 l 2,122,123
 486 876 486 876 479 874 c 2,124,-1
 455 869 l 1,125,-1
 455 762 l 1,126,-1
 476 767 l 1,127,-1
 477 767 l 2,128,129
 486 767 486 767 486 758 c 2,130,-1
 486 742 l 1,131,-1
 524 742 l 1,132,-1
 524 756 l 1,133,-1
 542 756 l 1,134,-1
 542 742 l 1,135,-1
 600 742 l 1,136,-1
 600 777 l 1,137,-1
 618 777 l 1,138,-1
 618 742 l 1,139,-1
 753 742 l 1,140,-1
 753 732 l 1,141,-1
 618 732 l 1,142,-1
 618 680 l 1,143,-1
 640 685 l 1,144,-1
 641 685 l 2,145,146
 650 685 650 685 650 676 c 2,147,-1
 650 637 l 2,148,149
 650 630 650 630 643 628 c 2,150,-1
 618 624 l 1,151,-1
 618 579 l 1,152,-1
 753 579 l 1,153,-1
 753 568 l 1,154,-1
 618 568 l 1,155,-1
 618 516 l 1,156,-1
 640 521 l 1,157,-1
 641 521 l 2,158,159
 650 521 650 521 650 512 c 2,160,-1
 650 473 l 2,161,162
 650 466 650 466 643 464 c 2,163,-1
 618 460 l 1,164,-1
 618 415 l 1,165,-1
 753 415 l 1,166,-1
 753 404 l 1,167,-1
 618 404 l 1,168,-1
 618 364 l 1,169,-1
 600 364 l 1,170,-1
 600 404 l 1,171,-1
 542 404 l 1,172,-1
 542 343 l 1,173,-1
 524 343 l 1,174,-1
 524 404 l 1,16,-1
542 415 m 1,175,-1
 600 415 l 1,176,-1
 600 456 l 1,177,-1
 542 444 l 1,178,-1
 542 415 l 1,175,-1
524 415 m 1,179,-1
 524 440 l 1,180,-1
 503 436 l 1,181,-1
 501 436 l 2,182,183
 492 436 492 436 492 445 c 2,184,-1
 492 483 l 2,185,186
 492 490 492 490 499 492 c 2,187,-1
 524 497 l 1,188,-1
 524 568 l 1,189,-1
 323 568 l 1,190,-1
 323 555 l 2,191,192
 323 548 323 548 315 546 c 2,193,-1
 291 542 l 1,194,-1
 291 434 l 1,195,-1
 312 439 l 1,196,-1
 313 439 l 2,197,198
 323 439 323 439 323 430 c 2,199,-1
 323 415 l 1,200,-1
 524 415 l 1,179,-1
524 579 m 1,201,-1
 524 604 l 1,202,-1
 503 600 l 1,203,-1
 501 600 l 2,204,205
 492 600 492 600 492 609 c 2,206,-1
 492 645 l 1,207,-1
 492 646 l 2,208,209
 492 654 492 654 499 656 c 2,210,-1
 524 661 l 1,211,-1
 524 732 l 1,212,-1
 486 732 l 1,213,-1
 486 719 l 2,214,215
 486 712 486 712 479 710 c 2,216,-1
 455 706 l 1,217,-1
 455 610 l 1,218,-1
 436 610 l 1,219,-1
 436 702 l 1,220,-1
 378 690 l 1,221,-1
 378 589 l 1,222,-1
 360 589 l 1,223,-1
 360 686 l 1,224,-1
 339 681 l 1,225,-1
 337 681 l 2,226,227
 328 681 328 681 328 691 c 2,228,-1
 328 728 l 2,229,230
 328 731 328 731 329 732 c 1,231,-1
 127 732 l 1,232,-1
 127 680 l 1,233,-1
 148 685 l 1,234,-1
 150 685 l 2,235,236
 159 685 159 685 159 676 c 2,237,-1
 159 637 l 2,238,239
 159 630 159 630 152 628 c 2,240,-1
 127 624 l 1,241,-1
 127 579 l 1,242,-1
 195 579 l 1,243,-1
 196 579 l 1,244,-1
 196 674 l 1,245,-1
 215 674 l 1,246,-1
 215 583 l 1,247,-1
 273 594 l 1,248,-1
 273 695 l 1,249,-1
 291 695 l 1,250,-1
 291 598 l 1,251,-1
 312 603 l 1,252,-1
 313 603 l 2,253,254
 323 603 323 603 323 594 c 2,255,-1
 323 579 l 1,256,-1
 524 579 l 1,201,-1
600 732 m 1,257,-1
 542 732 l 1,258,-1
 542 665 l 1,259,-1
 600 676 l 1,260,-1
 600 732 l 1,257,-1
109 742 m 1,261,-1
 109 784 l 1,262,-1
 51 772 l 1,263,-1
 51 742 l 1,264,-1
 109 742 l 1,261,-1
109 732 m 1,265,-1
 51 732 l 1,266,-1
 51 664 l 1,267,-1
 109 676 l 1,268,-1
 109 732 l 1,265,-1
51 579 m 1,269,-1
 109 579 l 1,270,-1
 109 620 l 1,271,-1
 51 608 l 1,272,-1
 51 579 l 1,269,-1
0 251 m 1,273,-1
 753 251 l 1,274,-1
 753 241 l 1,275,-1
 0 241 l 1,276,-1
 0 251 l 1,273,-1
0 87 m 1,277,-1
 753 87 l 1,278,-1
 753 77 l 1,279,-1
 0 77 l 1,280,-1
 0 87 l 1,277,-1
EndSplineSet
EndChar

StartChar: brokenbar
Encoding: 166 166 43
Width: 174
GlyphClass: 1
Flags: W
LayerCount: 2
Fore
SplineSet
0 87 m 1,0,-1
 225 87 l 1,1,-1
 225 77 l 1,2,-1
 0 77 l 1,3,-1
 0 87 l 1,0,-1
0 251 m 1,4,-1
 225 251 l 1,5,-1
 225 241 l 1,6,-1
 0 241 l 1,7,-1
 0 251 l 1,4,-1
0 415 m 1,8,-1
 2 415 l 1,9,-1
 1 568 l 1,10,-1
 0 568 l 1,11,-1
 0 579 l 1,12,-1
 0 681 l 2,13,14
 0 690 0 690 8 690 c 2,15,-1
 15 690 l 2,16,17
 24 690 24 690 24 681 c 2,18,-1
 23 579 l 1,19,-1
 225 579 l 1,20,-1
 225 568 l 1,21,-1
 23 568 l 1,22,-1
 22 486 l 1,23,24
 39 509 39 509 73 509 c 0,25,26
 114 509 114 509 122 463 c 0,27,28
 123 458 123 458 123 448 c 0,29,30
 123 433 123 433 118 415 c 1,31,-1
 225 415 l 1,32,-1
 225 404 l 1,33,-1
 114 404 l 1,34,35
 106 383 106 383 91 367 c 0,36,37
 58 330 58 330 16 309 c 0,38,39
 15 308 15 308 11 308 c 0,40,41
 3 308 3 308 3 316 c 2,42,-1
 2 404 l 1,43,-1
 0 404 l 1,44,-1
 0 415 l 1,8,-1
0 742 m 1,45,-1
 225 742 l 1,46,-1
 225 732 l 1,47,-1
 0 732 l 1,48,-1
 0 742 l 1,45,-1
21 404 m 1,49,-1
 20 338 l 1,50,51
 51 361 51 361 62 379 c 0,52,53
 69 390 69 390 74 404 c 1,54,-1
 21 404 l 1,49,-1
21 415 m 1,55,-1
 77 415 l 1,56,57
 80 432 80 432 80 439 c 2,58,-1
 80 446 l 2,59,60
 80 479 80 479 56 479 c 0,61,62
 40 479 40 479 31.5 471 c 128,-1,63
 23 463 23 463 22 456 c 2,64,-1
 21 415 l 1,55,-1
EndSplineSet
EndChar

StartChar: section
Encoding: 167 167 44
Width: 209
GlyphClass: 1
Flags: W
LayerCount: 2
Fore
SplineSet
0 87 m 1,0,-1
 261 87 l 1,1,-1
 261 77 l 1,2,-1
 0 77 l 1,3,-1
 0 87 l 1,0,-1
0 251 m 1,4,-1
 261 251 l 1,5,-1
 261 241 l 1,6,-1
 0 241 l 1,7,-1
 0 251 l 1,4,-1
51 579 m 1,8,-1
 109 579 l 1,9,-1
 109 620 l 1,10,-1
 51 608 l 1,11,-1
 51 579 l 1,8,-1
109 732 m 1,12,-1
 51 732 l 1,13,-1
 51 664 l 1,14,-1
 109 676 l 1,15,-1
 109 732 l 1,12,-1
109 742 m 1,16,-1
 109 784 l 1,17,-1
 51 772 l 1,18,-1
 51 742 l 1,19,-1
 109 742 l 1,16,-1
261 415 m 1,20,-1
 261 404 l 1,21,-1
 0 404 l 1,22,-1
 0 415 l 1,23,-1
 261 415 l 1,20,-1
261 579 m 1,24,-1
 261 568 l 1,25,-1
 127 568 l 1,26,-1
 127 528 l 1,27,-1
 109 528 l 1,28,-1
 109 568 l 1,29,-1
 51 568 l 1,30,-1
 51 507 l 1,31,-1
 33 507 l 1,32,-1
 33 568 l 1,33,-1
 0 568 l 1,34,-1
 0 579 l 1,35,-1
 33 579 l 1,36,-1
 33 604 l 1,37,-1
 11 600 l 1,38,-1
 9 600 l 2,39,40
 0 600 0 600 0 609 c 2,41,-1
 0 646 l 2,42,43
 0 653 0 653 7 655 c 2,44,-1
 33 661 l 1,45,-1
 33 732 l 1,46,-1
 0 732 l 1,47,-1
 0 742 l 1,48,-1
 33 742 l 1,49,-1
 33 768 l 1,50,-1
 11 763 l 1,51,-1
 9 763 l 2,52,53
 0 763 0 763 0 773 c 2,54,-1
 0 809 l 1,55,-1
 0 810 l 2,56,57
 0 817 0 817 7 819 c 2,58,-1
 33 825 l 1,59,-1
 33 920 l 1,60,-1
 51 920 l 1,61,-1
 51 828 l 1,62,-1
 109 840 l 1,63,-1
 109 941 l 1,64,-1
 127 941 l 1,65,-1
 127 844 l 1,66,-1
 148 849 l 1,67,-1
 150 849 l 2,68,69
 159 849 159 849 159 840 c 2,70,-1
 159 801 l 2,71,72
 159 794 159 794 152 792 c 2,73,-1
 127 788 l 1,74,-1
 127 742 l 1,75,-1
 261 742 l 1,76,-1
 261 732 l 1,77,-1
 127 732 l 1,78,-1
 127 680 l 1,79,-1
 148 685 l 1,80,-1
 150 685 l 2,81,82
 159 685 159 685 159 676 c 2,83,-1
 159 637 l 2,84,85
 159 630 159 630 152 628 c 2,86,-1
 127 624 l 1,87,-1
 127 579 l 1,88,-1
 261 579 l 1,24,-1
EndSplineSet
EndChar

StartChar: copyright
Encoding: 169 169 45
Width: 665
GlyphClass: 1
Flags: W
LayerCount: 2
Fore
SplineSet
329 415 m 1,0,-1
 328 568 l 1,1,-1
 203 568 l 2,2,3
 197 565 197 565 191.5 561.5 c 128,-1,4
 186 558 186 558 183 556 c 2,5,-1
 180 555 l 2,6,7
 179 554 179 554 175 554 c 0,8,9
 167 554 167 554 167 562 c 2,10,-1
 166 568 l 1,11,-1
 23 568 l 1,12,-1
 22 486 l 1,13,14
 39 509 39 509 73 509 c 0,15,16
 114 509 114 509 122 463 c 0,17,18
 123 458 123 458 123 448 c 0,19,20
 123 433 123 433 118 415 c 1,21,-1
 329 415 l 1,0,-1
407 357 m 2,22,-1
 407 364 l 2,23,24
 407 397 407 397 384 397 c 0,25,26
 368 397 368 397 359 388.5 c 128,-1,27
 350 380 350 380 349 374 c 2,28,-1
 347 256 l 1,29,30
 380 281 380 281 390 297 c 0,31,32
 407 323 407 323 407 357 c 2,22,-1
21 415 m 1,33,-1
 77 415 l 1,34,35
 80 432 80 432 80 439 c 2,36,-1
 80 446 l 2,37,38
 80 479 80 479 56 479 c 0,39,40
 40 479 40 479 31.5 471 c 128,-1,41
 23 463 23 463 22 456 c 2,42,-1
 21 415 l 1,33,-1
21 404 m 1,43,-1
 20 338 l 1,44,45
 51 361 51 361 62 379 c 0,46,47
 69 390 69 390 74 404 c 1,48,-1
 21 404 l 1,43,-1
0 251 m 1,49,-1
 330 251 l 1,50,-1
 329 404 l 1,51,-1
 114 404 l 1,52,53
 106 383 106 383 91 367 c 0,54,55
 58 330 58 330 16 309 c 0,56,57
 15 308 15 308 11 308 c 0,58,59
 3 308 3 308 3 316 c 2,60,-1
 2 404 l 1,61,-1
 0 404 l 1,62,-1
 0 415 l 1,63,-1
 2 415 l 1,64,-1
 1 568 l 1,65,-1
 0 568 l 1,66,-1
 0 579 l 1,67,-1
 0 681 l 2,68,69
 0 690 0 690 8 690 c 2,70,-1
 15 690 l 2,71,72
 24 690 24 690 24 681 c 2,73,-1
 23 579 l 1,74,-1
 166 579 l 1,75,-1
 165 732 l 1,76,-1
 0 732 l 1,77,-1
 0 742 l 1,78,-1
 165 742 l 1,79,-1
 163 927 l 2,80,81
 163 936 163 936 172 936 c 2,82,-1
 179 936 l 2,83,84
 188 936 188 936 188 927 c 2,85,-1
 185 742 l 1,86,-1
 197 742 l 1,87,88
 216 755 216 755 236 755 c 0,89,90
 254 755 254 755 269 742 c 1,91,-1
 492 742 l 1,92,-1
 491 845 l 2,93,94
 491 854 491 854 500 854 c 2,95,-1
 507 854 l 2,96,97
 515 854 515 854 515 845 c 2,98,-1
 514 742 l 1,99,-1
 717 742 l 1,100,-1
 717 732 l 1,101,-1
 514 732 l 1,102,-1
 513 650 l 1,103,104
 530 673 530 673 564 673 c 0,105,106
 605 673 605 673 613 627 c 0,107,108
 614 622 614 622 614 611 c 0,109,110
 614 597 614 597 609 579 c 1,111,-1
 717 579 l 1,112,-1
 717 568 l 1,113,-1
 606 568 l 1,114,115
 599 549 599 549 582 531 c 0,116,117
 548 493 548 493 508 473 c 0,118,119
 507 472 507 472 503 472 c 0,120,121
 494 472 494 472 494 480 c 2,122,-1
 493 568 l 1,123,-1
 351 568 l 1,124,-1
 349 415 l 1,125,-1
 361 415 l 1,126,127
 379 427 379 427 400 427 c 0,128,129
 419 427 419 427 433 415 c 1,130,-1
 717 415 l 1,131,-1
 717 404 l 1,132,-1
 441 404 l 1,133,134
 448 393 448 393 449 381 c 0,135,136
 451 371 451 371 451 366 c 0,137,138
 451 322 451 322 418 285 c 0,139,140
 403 268 403 268 381 251 c 1,141,-1
 717 251 l 1,142,-1
 717 241 l 1,143,-1
 367 241 l 2,144,145
 362 238 362 238 356 234.5 c 128,-1,146
 350 231 350 231 347 229 c 2,147,-1
 344 227 l 2,148,149
 343 226 343 226 339 226 c 0,150,151
 330 226 330 226 330 234 c 2,152,-1
 330 241 l 1,153,-1
 0 241 l 1,154,-1
 0 251 l 1,49,-1
0 87 m 1,155,-1
 717 87 l 1,156,-1
 717 77 l 1,157,-1
 0 77 l 1,158,-1
 0 87 l 1,155,-1
244 685 m 2,159,-1
 244 691 l 2,160,161
 244 725 244 725 220 725 c 0,162,163
 204 725 204 725 195 716.5 c 128,-1,164
 186 708 186 708 185 702 c 2,165,-1
 184 583 l 1,166,167
 214 605 214 605 226 625 c 0,168,169
 244 653 244 653 244 685 c 2,159,-1
512 568 m 1,170,-1
 511 501 l 1,171,172
 543 525 543 525 554 543 c 0,173,174
 561 554 561 554 566 568 c 1,175,-1
 512 568 l 1,170,-1
512 579 m 1,176,-1
 568 579 l 1,177,178
 571 596 571 596 571 603 c 2,179,-1
 571 610 l 2,180,181
 571 643 571 643 548 643 c 0,182,183
 532 643 532 643 523 634.5 c 128,-1,184
 514 626 514 626 513 620 c 2,185,-1
 512 579 l 1,176,-1
493 579 m 1,186,-1
 492 732 l 1,187,-1
 277 732 l 1,188,189
 285 719 285 719 286 708 c 0,190,191
 287 703 287 703 287 693 c 0,192,193
 287 649 287 649 255 613 c 0,194,195
 242 598 242 598 217 579 c 1,196,-1
 327 579 l 1,197,-1
 327 599 l 2,198,199
 327 608 327 608 336 608 c 2,200,-1
 343 608 l 2,201,202
 352 608 352 608 352 599 c 2,203,-1
 351 579 l 1,204,-1
 493 579 l 1,186,-1
EndSplineSet
EndChar

StartChar: ordfeminine
Encoding: 170 170 46
Width: 337
GlyphClass: 1
Flags: W
LayerCount: 2
Fore
SplineSet
21 415 m 1,0,-1
 77 415 l 1,1,2
 80 432 80 432 80 439 c 2,3,-1
 80 446 l 2,4,5
 80 479 80 479 56 479 c 0,6,7
 40 479 40 479 31.5 471 c 128,-1,8
 23 463 23 463 22 456 c 2,9,-1
 21 415 l 1,0,-1
21 404 m 1,10,-1
 20 338 l 1,11,12
 51 361 51 361 62 379 c 0,13,14
 69 390 69 390 74 404 c 1,15,-1
 21 404 l 1,10,-1
0 742 m 1,16,-1
 165 742 l 1,17,-1
 163 927 l 2,18,19
 163 936 163 936 172 936 c 2,20,-1
 179 936 l 2,21,22
 188 936 188 936 188 927 c 2,23,-1
 185 742 l 1,24,-1
 197 742 l 1,25,26
 216 755 216 755 236 755 c 0,27,28
 254 755 254 755 269 742 c 1,29,-1
 389 742 l 1,30,-1
 389 732 l 1,31,-1
 277 732 l 1,32,33
 285 719 285 719 286 708 c 0,34,35
 287 703 287 703 287 693 c 0,36,37
 287 649 287 649 255 613 c 0,38,39
 242 598 242 598 217 579 c 1,40,-1
 389 579 l 1,41,-1
 389 568 l 1,42,-1
 203 568 l 2,43,44
 197 565 197 565 191.5 561.5 c 128,-1,45
 186 558 186 558 183 556 c 2,46,-1
 180 555 l 2,47,48
 179 554 179 554 175 554 c 0,49,50
 167 554 167 554 167 562 c 2,51,-1
 166 568 l 1,52,-1
 23 568 l 1,53,-1
 22 486 l 1,54,55
 39 509 39 509 73 509 c 0,56,57
 114 509 114 509 122 463 c 0,58,59
 123 458 123 458 123 448 c 0,60,61
 123 433 123 433 118 415 c 1,62,-1
 389 415 l 1,63,-1
 389 404 l 1,64,-1
 114 404 l 1,65,66
 106 383 106 383 91 367 c 0,67,68
 58 330 58 330 16 309 c 0,69,70
 15 308 15 308 11 308 c 0,71,72
 3 308 3 308 3 316 c 2,73,-1
 2 404 l 1,74,-1
 0 404 l 1,75,-1
 0 415 l 1,76,-1
 2 415 l 1,77,-1
 1 568 l 1,78,-1
 0 568 l 1,79,-1
 0 579 l 1,80,-1
 0 681 l 6,81,82
 0 690 0 690 8 690 c 2,83,-1
 15 690 l 2,84,85
 24 690 24 690 24 681 c 2,86,-1
 23 579 l 1,87,-1
 166 579 l 1,88,-1
 165 732 l 1,89,-1
 0 732 l 1,90,-1
 0 742 l 1,16,-1
0 251 m 1,91,-1
 389 251 l 1,92,-1
 389 241 l 1,93,-1
 0 241 l 1,94,-1
 0 251 l 1,91,-1
0 87 m 1,95,-1
 389 87 l 1,96,-1
 389 77 l 1,97,-1
 0 77 l 1,98,-1
 0 87 l 1,95,-1
244 685 m 2,99,-1
 244 691 l 2,100,101
 244 725 244 725 220 725 c 0,102,103
 204 725 204 725 195 716.5 c 128,-1,104
 186 708 186 708 185 702 c 2,105,-1
 184 583 l 1,106,107
 214 605 214 605 226 625 c 0,108,109
 244 653 244 653 244 685 c 2,99,-1
EndSplineSet
EndChar

StartChar: guillemotleft
Encoding: 171 171 47
Width: 1157
GlyphClass: 1
Flags: W
LayerCount: 2
Fore
SplineSet
820 579 m 1,0,-1
 819 732 l 1,1,-1
 514 732 l 1,2,-1
 513 650 l 1,3,4
 530 673 530 673 564 673 c 0,5,6
 605 673 605 673 613 627 c 0,7,8
 614 622 614 622 614 611 c 0,9,10
 614 597 614 597 609 579 c 1,11,-1
 820 579 l 1,0,-1
822 415 m 1,12,-1
 820 568 l 1,13,-1
 606 568 l 1,14,15
 599 549 599 549 582 531 c 0,16,17
 548 493 548 493 508 473 c 0,18,19
 507 472 507 472 503 472 c 0,20,21
 494 472 494 472 494 480 c 2,22,-1
 493 568 l 1,23,-1
 351 568 l 1,24,-1
 349 415 l 1,25,-1
 361 415 l 1,26,27
 379 427 379 427 400 427 c 0,28,29
 419 427 419 427 433 415 c 1,30,-1
 656 415 l 1,31,-1
 655 517 l 2,32,33
 655 526 655 526 664 526 c 2,34,-1
 671 526 l 2,35,36
 679 526 679 526 679 517 c 2,37,-1
 678 415 l 1,38,-1
 822 415 l 1,12,-1
899 521 m 2,39,-1
 899 528 l 2,40,41
 899 561 899 561 875 561 c 0,42,43
 859 561 859 561 850.5 553 c 128,-1,44
 842 545 842 545 841 538 c 2,45,-1
 839 420 l 1,46,47
 870 443 870 443 881 461 c 0,48,49
 899 489 899 489 899 521 c 2,39,-1
493 579 m 1,50,-1
 492 732 l 1,51,-1
 277 732 l 1,52,53
 285 719 285 719 286 708 c 0,54,55
 287 703 287 703 287 693 c 0,56,57
 287 649 287 649 255 613 c 0,58,59
 242 598 242 598 217 579 c 1,60,-1
 327 579 l 1,61,-1
 327 599 l 2,62,63
 327 608 327 608 336 608 c 2,64,-1
 343 608 l 2,65,66
 352 608 352 608 352 599 c 2,67,-1
 351 579 l 1,68,-1
 493 579 l 1,50,-1
512 579 m 1,69,-1
 568 579 l 1,70,71
 571 596 571 596 571 603 c 2,72,-1
 571 610 l 2,73,74
 571 643 571 643 548 643 c 0,75,76
 532 643 532 643 523 634.5 c 128,-1,77
 514 626 514 626 513 620 c 2,78,-1
 512 579 l 1,69,-1
512 568 m 1,79,-1
 511 501 l 1,80,81
 543 525 543 525 554 543 c 0,82,83
 561 554 561 554 566 568 c 1,84,-1
 512 568 l 1,79,-1
244 685 m 2,85,-1
 244 691 l 2,86,87
 244 725 244 725 220 725 c 0,88,89
 204 725 204 725 195 716.5 c 128,-1,90
 186 708 186 708 185 702 c 2,91,-1
 184 583 l 1,92,93
 214 605 214 605 226 625 c 0,94,95
 244 653 244 653 244 685 c 2,85,-1
0 87 m 1,96,-1
 986 87 l 1,97,-1
 984 241 l 1,98,-1
 770 241 l 1,99,100
 762 221 762 221 746 203 c 0,101,102
 713 166 713 166 671 145 c 0,103,104
 670 144 670 144 667 144 c 0,105,106
 658 144 658 144 658 153 c 2,107,-1
 657 241 l 1,108,-1
 367 241 l 2,109,110
 362 238 362 238 356 234.5 c 128,-1,111
 350 231 350 231 347 229 c 2,112,-1
 344 227 l 2,113,114
 343 226 343 226 339 226 c 0,115,116
 330 226 330 226 330 234 c 2,117,-1
 330 241 l 1,118,-1
 0 241 l 1,119,-1
 0 251 l 1,120,-1
 330 251 l 1,121,-1
 329 404 l 1,122,-1
 114 404 l 1,123,124
 106 383 106 383 91 367 c 0,125,126
 58 330 58 330 16 309 c 0,127,128
 15 308 15 308 11 308 c 0,129,130
 3 308 3 308 3 316 c 2,131,-1
 2 404 l 1,132,-1
 0 404 l 1,133,-1
 0 415 l 1,134,-1
 2 415 l 1,135,-1
 1 568 l 1,136,-1
 0 568 l 1,137,-1
 0 579 l 1,138,-1
 0 681 l 2,139,140
 0 690 0 690 8 690 c 2,141,-1
 15 690 l 2,142,143
 24 690 24 690 24 681 c 2,144,-1
 23 579 l 1,145,-1
 166 579 l 1,146,-1
 165 732 l 1,147,-1
 0 732 l 1,148,-1
 0 742 l 1,149,-1
 165 742 l 1,150,-1
 163 927 l 2,151,152
 163 936 163 936 172 936 c 2,153,-1
 179 936 l 2,154,155
 188 936 188 936 188 927 c 2,156,-1
 185 742 l 1,157,-1
 197 742 l 1,158,159
 216 755 216 755 236 755 c 0,160,161
 254 755 254 755 269 742 c 1,162,-1
 492 742 l 1,163,-1
 491 845 l 2,164,165
 491 854 491 854 500 854 c 2,166,-1
 507 854 l 2,167,168
 515 854 515 854 515 845 c 2,169,-1
 514 742 l 1,170,-1
 819 742 l 1,171,-1
 819 763 l 2,172,173
 819 772 819 772 827 772 c 2,174,-1
 835 772 l 2,175,176
 843 772 843 772 843 763 c 2,177,-1
 843 742 l 1,178,-1
 1208 742 l 1,179,-1
 1208 732 l 1,180,-1
 843 732 l 1,181,-1
 841 579 l 1,182,-1
 852 579 l 1,183,184
 870 591 870 591 892 591 c 0,185,186
 911 591 911 591 925 579 c 1,187,-1
 1208 579 l 1,188,-1
 1208 568 l 1,189,-1
 933 568 l 1,190,191
 940 557 940 557 941 545 c 0,192,193
 942 540 942 540 942 529 c 0,194,195
 942 485 942 485 910 449 c 0,196,197
 895 432 895 432 873 415 c 1,198,-1
 983 415 l 1,199,-1
 983 436 l 2,200,201
 983 444 983 444 991 444 c 2,202,-1
 998 444 l 2,203,204
 1007 444 1007 444 1007 436 c 2,205,-1
 1007 415 l 1,206,-1
 1208 415 l 1,207,-1
 1208 404 l 1,208,-1
 1007 404 l 1,209,-1
 1005 251 l 1,210,-1
 1016 251 l 1,211,212
 1034 263 1034 263 1056 263 c 0,213,214
 1074 263 1074 263 1088 251 c 1,215,-1
 1208 251 l 1,216,-1
 1208 241 l 1,217,-1
 1097 241 l 1,218,219
 1103 230 1103 230 1105 217 c 0,220,221
 1106 212 1106 212 1106 202 c 0,222,223
 1106 157 1106 157 1074 121 c 0,224,225
 1059 104 1059 104 1037 87 c 1,226,-1
 1208 87 l 1,227,-1
 1208 77 l 1,228,-1
 1022 77 l 2,229,230
 1017 74 1017 74 1011 70.5 c 128,-1,231
 1005 67 1005 67 1002 65 c 2,232,-1
 999 63 l 2,233,234
 998 62 998 62 994 62 c 0,235,236
 986 62 986 62 986 71 c 2,237,-1
 986 77 l 1,238,-1
 0 77 l 1,239,-1
 0 87 l 1,96,-1
21 404 m 1,240,-1
 20 338 l 1,241,242
 51 361 51 361 62 379 c 0,243,244
 69 390 69 390 74 404 c 1,245,-1
 21 404 l 1,240,-1
21 415 m 1,246,-1
 77 415 l 1,247,248
 80 432 80 432 80 439 c 2,249,-1
 80 446 l 2,250,251
 80 479 80 479 56 479 c 0,252,253
 40 479 40 479 31.5 471 c 128,-1,254
 23 463 23 463 22 456 c 2,255,-1
 21 415 l 1,246,-1
407 357 m 2,256,-1
 407 364 l 2,257,258
 407 397 407 397 384 397 c 0,259,260
 368 397 368 397 359 388.5 c 128,-1,261
 350 380 350 380 349 374 c 2,262,-1
 347 256 l 1,263,264
 380 281 380 281 390 297 c 0,265,266
 407 323 407 323 407 357 c 2,256,-1
329 415 m 1,267,-1
 328 568 l 1,268,-1
 203 568 l 2,269,270
 197 565 197 565 191.5 561.5 c 128,-1,271
 186 558 186 558 183 556 c 2,272,-1
 180 555 l 2,273,274
 179 554 179 554 175 554 c 0,275,276
 167 554 167 554 167 562 c 2,277,-1
 166 568 l 1,278,-1
 23 568 l 1,279,-1
 22 486 l 1,280,281
 39 509 39 509 73 509 c 0,282,283
 114 509 114 509 122 463 c 0,284,285
 123 458 123 458 123 448 c 0,286,287
 123 433 123 433 118 415 c 1,288,-1
 329 415 l 1,267,-1
676 241 m 1,289,-1
 675 174 l 1,290,291
 708 199 708 199 718 215 c 0,292,293
 721 220 721 220 729 241 c 1,294,-1
 676 241 l 1,289,-1
676 251 m 1,295,-1
 732 251 l 1,296,297
 735 268 735 268 735 275 c 2,298,-1
 735 282 l 2,299,300
 735 315 735 315 711 315 c 0,301,302
 695 315 695 315 686.5 307 c 128,-1,303
 678 299 678 299 677 292 c 2,304,-1
 676 251 l 1,295,-1
657 251 m 1,305,-1
 656 404 l 1,306,-1
 441 404 l 1,307,308
 448 393 448 393 449 381 c 0,309,310
 451 371 451 371 451 366 c 0,311,312
 451 322 451 322 418 285 c 0,313,314
 403 268 403 268 381 251 c 1,315,-1
 657 251 l 1,305,-1
1063 193 m 2,316,-1
 1063 200 l 2,317,318
 1063 233 1063 233 1039 233 c 0,319,320
 1023 233 1023 233 1014.5 225 c 128,-1,321
 1006 217 1006 217 1005 210 c 2,322,-1
 1003 92 l 1,323,324
 1034 115 1034 115 1045 133 c 0,325,326
 1063 161 1063 161 1063 193 c 2,316,-1
984 251 m 1,327,-1
 983 404 l 1,328,-1
 858 404 l 2,329,330
 852 401 852 401 846.5 397.5 c 128,-1,331
 841 394 841 394 838 392 c 2,332,-1
 835 391 l 2,333,334
 834 390 834 390 830 390 c 0,335,336
 822 390 822 390 822 398 c 2,337,-1
 822 404 l 1,338,-1
 678 404 l 1,339,-1
 677 323 l 1,340,341
 694 345 694 345 728 345 c 0,342,343
 769 345 769 345 777 299 c 0,344,345
 778 294 778 294 778 284 c 0,346,347
 778 269 778 269 773 251 c 1,348,-1
 984 251 l 1,327,-1
EndSplineSet
EndChar

StartChar: logicalnot
Encoding: 172 172 48
Width: 829
GlyphClass: 1
Flags: W
LayerCount: 2
Fore
SplineSet
493 579 m 1,0,-1
 492 732 l 1,1,-1
 277 732 l 1,2,3
 285 719 285 719 286 708 c 0,4,5
 287 703 287 703 287 693 c 0,6,7
 287 649 287 649 255 613 c 0,8,9
 242 598 242 598 217 579 c 1,10,-1
 327 579 l 1,11,-1
 327 599 l 2,12,13
 327 608 327 608 336 608 c 2,14,-1
 343 608 l 2,15,16
 352 608 352 608 352 599 c 2,17,-1
 351 579 l 1,18,-1
 493 579 l 1,0,-1
512 579 m 1,19,-1
 568 579 l 1,20,21
 571 596 571 596 571 603 c 2,22,-1
 571 610 l 2,23,24
 571 643 571 643 548 643 c 0,25,26
 532 643 532 643 523 634.5 c 128,-1,27
 514 626 514 626 513 620 c 2,28,-1
 512 579 l 1,19,-1
512 568 m 1,29,-1
 511 501 l 1,30,31
 543 525 543 525 554 543 c 0,32,33
 561 554 561 554 566 568 c 1,34,-1
 512 568 l 1,29,-1
244 685 m 2,35,-1
 244 691 l 2,36,37
 244 725 244 725 220 725 c 0,38,39
 204 725 204 725 195 716.5 c 128,-1,40
 186 708 186 708 185 702 c 2,41,-1
 184 583 l 1,42,43
 214 605 214 605 226 625 c 0,44,45
 244 653 244 653 244 685 c 2,35,-1
0 87 m 1,46,-1
 881 87 l 1,47,-1
 881 77 l 1,48,-1
 0 77 l 1,49,-1
 0 87 l 1,46,-1
0 251 m 1,50,-1
 330 251 l 1,51,-1
 329 404 l 1,52,-1
 114 404 l 1,53,54
 106 383 106 383 91 367 c 0,55,56
 58 330 58 330 16 309 c 0,57,58
 15 308 15 308 11 308 c 0,59,60
 3 308 3 308 3 316 c 2,61,-1
 2 404 l 1,62,-1
 0 404 l 1,63,-1
 0 415 l 1,64,-1
 2 415 l 1,65,-1
 1 568 l 1,66,-1
 0 568 l 1,67,-1
 0 579 l 1,68,-1
 0 681 l 2,69,70
 0 690 0 690 8 690 c 2,71,-1
 15 690 l 2,72,73
 24 690 24 690 24 681 c 2,74,-1
 23 579 l 1,75,-1
 166 579 l 1,76,-1
 165 732 l 1,77,-1
 0 732 l 1,78,-1
 0 742 l 1,79,-1
 165 742 l 1,80,-1
 163 927 l 2,81,82
 163 936 163 936 172 936 c 2,83,-1
 179 936 l 2,84,85
 188 936 188 936 188 927 c 2,86,-1
 185 742 l 1,87,-1
 197 742 l 1,88,89
 216 755 216 755 236 755 c 0,90,91
 254 755 254 755 269 742 c 1,92,-1
 492 742 l 1,93,-1
 491 845 l 2,94,95
 491 854 491 854 500 854 c 2,96,-1
 507 854 l 2,97,98
 515 854 515 854 515 845 c 2,99,-1
 514 742 l 1,100,-1
 881 742 l 1,101,-1
 881 732 l 1,102,-1
 514 732 l 1,103,-1
 513 650 l 1,104,105
 530 673 530 673 564 673 c 0,106,107
 605 673 605 673 613 627 c 0,108,109
 614 622 614 622 614 611 c 0,110,111
 614 597 614 597 609 579 c 1,112,-1
 881 579 l 1,113,-1
 881 568 l 1,114,-1
 606 568 l 1,115,116
 599 549 599 549 582 531 c 0,117,118
 548 493 548 493 508 473 c 0,119,120
 507 472 507 472 503 472 c 0,121,122
 494 472 494 472 494 480 c 2,123,-1
 493 568 l 1,124,-1
 351 568 l 1,125,-1
 349 415 l 1,126,-1
 361 415 l 1,127,128
 379 427 379 427 400 427 c 0,129,130
 419 427 419 427 433 415 c 1,131,-1
 656 415 l 1,132,-1
 655 517 l 2,133,134
 655 526 655 526 664 526 c 2,135,-1
 671 526 l 2,136,137
 679 526 679 526 679 517 c 2,138,-1
 678 415 l 1,139,-1
 881 415 l 1,140,-1
 881 404 l 1,141,-1
 678 404 l 1,142,-1
 677 323 l 1,143,144
 694 345 694 345 728 345 c 0,145,146
 769 345 769 345 777 299 c 0,147,148
 778 294 778 294 778 284 c 0,149,150
 778 269 778 269 773 251 c 1,151,-1
 881 251 l 1,152,-1
 881 241 l 1,153,-1
 770 241 l 1,154,155
 762 221 762 221 746 203 c 0,156,157
 713 166 713 166 671 145 c 0,158,159
 670 144 670 144 667 144 c 0,160,161
 658 144 658 144 658 153 c 2,162,-1
 657 241 l 1,163,-1
 367 241 l 2,164,165
 362 238 362 238 356 234.5 c 128,-1,166
 350 231 350 231 347 229 c 2,167,-1
 344 227 l 2,168,169
 343 226 343 226 339 226 c 0,170,171
 330 226 330 226 330 234 c 2,172,-1
 330 241 l 1,173,-1
 0 241 l 1,174,-1
 0 251 l 1,50,-1
21 404 m 1,175,-1
 20 338 l 1,176,177
 51 361 51 361 62 379 c 0,178,179
 69 390 69 390 74 404 c 1,180,-1
 21 404 l 1,175,-1
21 415 m 1,181,-1
 77 415 l 1,182,183
 80 432 80 432 80 439 c 2,184,-1
 80 446 l 2,185,186
 80 479 80 479 56 479 c 0,187,188
 40 479 40 479 31.5 471 c 128,-1,189
 23 463 23 463 22 456 c 2,190,-1
 21 415 l 1,181,-1
407 357 m 2,191,-1
 407 364 l 2,192,193
 407 397 407 397 384 397 c 0,194,195
 368 397 368 397 359 388.5 c 128,-1,196
 350 380 350 380 349 374 c 2,197,-1
 347 256 l 1,198,199
 380 281 380 281 390 297 c 0,200,201
 407 323 407 323 407 357 c 2,191,-1
329 415 m 1,202,-1
 328 568 l 1,203,-1
 203 568 l 2,204,205
 197 565 197 565 191.5 561.5 c 128,-1,206
 186 558 186 558 183 556 c 2,207,-1
 180 555 l 2,208,209
 179 554 179 554 175 554 c 0,210,211
 167 554 167 554 167 562 c 2,212,-1
 166 568 l 1,213,-1
 23 568 l 1,214,-1
 22 486 l 1,215,216
 39 509 39 509 73 509 c 0,217,218
 114 509 114 509 122 463 c 0,219,220
 123 458 123 458 123 448 c 0,221,222
 123 433 123 433 118 415 c 1,223,-1
 329 415 l 1,202,-1
676 241 m 1,224,-1
 675 174 l 1,225,226
 708 199 708 199 718 215 c 0,227,228
 721 220 721 220 729 241 c 1,229,-1
 676 241 l 1,224,-1
676 251 m 1,230,-1
 732 251 l 1,231,232
 735 268 735 268 735 275 c 2,233,-1
 735 282 l 2,234,235
 735 315 735 315 711 315 c 0,236,237
 695 315 695 315 686.5 307 c 128,-1,238
 678 299 678 299 677 292 c 2,239,-1
 676 251 l 1,230,-1
657 251 m 1,240,-1
 656 404 l 1,241,-1
 441 404 l 1,242,243
 448 393 448 393 449 381 c 0,244,245
 451 371 451 371 451 366 c 0,246,247
 451 322 451 322 418 285 c 0,248,249
 403 268 403 268 381 251 c 1,250,-1
 657 251 l 1,240,-1
EndSplineSet
EndChar

StartChar: uni00AD
Encoding: 173 173 49
Width: 501
GlyphClass: 1
Flags: W
LayerCount: 2
Fore
SplineSet
244 685 m 2,0,-1
 244 691 l 2,1,2
 244 725 244 725 220 725 c 0,3,4
 204 725 204 725 195 716.5 c 128,-1,5
 186 708 186 708 185 702 c 2,6,-1
 184 583 l 1,7,8
 214 605 214 605 226 625 c 0,9,10
 244 653 244 653 244 685 c 2,0,-1
0 87 m 1,11,-1
 553 87 l 1,12,-1
 553 77 l 1,13,-1
 0 77 l 1,14,-1
 0 87 l 1,11,-1
0 251 m 1,15,-1
 330 251 l 1,16,-1
 329 404 l 1,17,-1
 114 404 l 1,18,19
 106 383 106 383 91 367 c 0,20,21
 58 330 58 330 16 309 c 0,22,23
 15 308 15 308 11 308 c 0,24,25
 3 308 3 308 3 316 c 2,26,-1
 2 404 l 1,27,-1
 0 404 l 1,28,-1
 0 415 l 1,29,-1
 2 415 l 1,30,-1
 1 568 l 1,31,-1
 0 568 l 1,32,-1
 0 579 l 1,33,-1
 0 681 l 2,34,35
 0 690 0 690 8 690 c 2,36,-1
 15 690 l 2,37,38
 24 690 24 690 24 681 c 2,39,-1
 23 579 l 1,40,-1
 166 579 l 1,41,-1
 165 732 l 1,42,-1
 0 732 l 1,43,-1
 0 742 l 1,44,-1
 165 742 l 1,45,-1
 163 927 l 2,46,47
 163 936 163 936 172 936 c 2,48,-1
 179 936 l 2,49,50
 188 936 188 936 188 927 c 2,51,-1
 185 742 l 1,52,-1
 197 742 l 1,53,54
 216 755 216 755 236 755 c 0,55,56
 254 755 254 755 269 742 c 1,57,-1
 553 742 l 1,58,-1
 553 732 l 1,59,-1
 277 732 l 1,60,61
 285 719 285 719 286 708 c 0,62,63
 287 703 287 703 287 693 c 0,64,65
 287 649 287 649 255 613 c 0,66,67
 242 598 242 598 217 579 c 1,68,-1
 327 579 l 1,69,-1
 327 599 l 2,70,71
 327 608 327 608 336 608 c 2,72,-1
 343 608 l 2,73,74
 352 608 352 608 352 599 c 2,75,-1
 351 579 l 1,76,-1
 553 579 l 1,77,-1
 553 568 l 1,78,-1
 351 568 l 1,79,-1
 349 415 l 1,80,-1
 361 415 l 1,81,82
 379 427 379 427 400 427 c 0,83,84
 419 427 419 427 433 415 c 1,85,-1
 553 415 l 1,86,-1
 553 404 l 1,87,-1
 441 404 l 1,88,89
 448 393 448 393 449 381 c 0,90,91
 451 371 451 371 451 366 c 0,92,93
 451 322 451 322 418 285 c 0,94,95
 403 268 403 268 381 251 c 1,96,-1
 553 251 l 1,97,-1
 553 241 l 1,98,-1
 367 241 l 2,99,100
 362 238 362 238 356 234.5 c 128,-1,101
 350 231 350 231 347 229 c 2,102,-1
 344 227 l 2,103,104
 343 226 343 226 339 226 c 0,105,106
 330 226 330 226 330 234 c 2,107,-1
 330 241 l 1,108,-1
 0 241 l 1,109,-1
 0 251 l 1,15,-1
21 404 m 1,110,-1
 20 338 l 1,111,112
 51 361 51 361 62 379 c 0,113,114
 69 390 69 390 74 404 c 1,115,-1
 21 404 l 1,110,-1
21 415 m 1,116,-1
 77 415 l 1,117,118
 80 432 80 432 80 439 c 2,119,-1
 80 446 l 2,120,121
 80 479 80 479 56 479 c 0,122,123
 40 479 40 479 31.5 471 c 128,-1,124
 23 463 23 463 22 456 c 2,125,-1
 21 415 l 1,116,-1
407 357 m 2,126,-1
 407 364 l 2,127,128
 407 397 407 397 384 397 c 0,129,130
 368 397 368 397 359 388.5 c 128,-1,131
 350 380 350 380 349 374 c 2,132,-1
 347 256 l 1,133,134
 380 281 380 281 390 297 c 0,135,136
 407 323 407 323 407 357 c 2,126,-1
329 415 m 1,137,-1
 328 568 l 1,138,-1
 203 568 l 2,139,140
 197 565 197 565 191.5 561.5 c 128,-1,141
 186 558 186 558 183 556 c 2,142,-1
 180 555 l 2,143,144
 179 554 179 554 175 554 c 0,145,146
 167 554 167 554 167 562 c 2,147,-1
 166 568 l 1,148,-1
 23 568 l 1,149,-1
 22 486 l 1,150,151
 39 509 39 509 73 509 c 0,152,153
 114 509 114 509 122 463 c 0,154,155
 123 458 123 458 123 448 c 0,156,157
 123 433 123 433 118 415 c 1,158,-1
 329 415 l 1,137,-1
EndSplineSet
EndChar

StartChar: registered
Encoding: 174 174 50
Width: 501
GlyphClass: 1
Flags: W
LayerCount: 2
Fore
SplineSet
244 685 m 2,0,-1
 244 691 l 2,1,2
 244 725 244 725 220 725 c 0,3,4
 204 725 204 725 195 716.5 c 128,-1,5
 186 708 186 708 185 702 c 2,6,-1
 184 583 l 1,7,8
 214 605 214 605 226 625 c 0,9,10
 244 653 244 653 244 685 c 2,0,-1
0 87 m 1,11,-1
 553 87 l 1,12,-1
 553 77 l 1,13,-1
 0 77 l 1,14,-1
 0 87 l 1,11,-1
0 251 m 1,15,-1
 330 251 l 1,16,-1
 329 404 l 1,17,-1
 114 404 l 1,18,19
 106 383 106 383 91 367 c 0,20,21
 58 330 58 330 16 309 c 0,22,23
 15 308 15 308 11 308 c 0,24,25
 3 308 3 308 3 316 c 2,26,-1
 2 404 l 1,27,-1
 0 404 l 1,28,-1
 0 415 l 1,29,-1
 2 415 l 1,30,-1
 1 568 l 1,31,-1
 0 568 l 1,32,-1
 0 579 l 1,33,-1
 0 681 l 2,34,35
 0 690 0 690 8 690 c 2,36,-1
 15 690 l 2,37,38
 24 690 24 690 24 681 c 2,39,-1
 23 579 l 1,40,-1
 166 579 l 1,41,-1
 165 732 l 1,42,-1
 0 732 l 1,43,-1
 0 742 l 1,44,-1
 165 742 l 1,45,-1
 163 927 l 2,46,47
 163 936 163 936 172 936 c 2,48,-1
 179 936 l 2,49,50
 188 936 188 936 188 927 c 2,51,-1
 185 742 l 1,52,-1
 197 742 l 1,53,54
 216 755 216 755 236 755 c 0,55,56
 254 755 254 755 269 742 c 1,57,-1
 553 742 l 1,58,-1
 553 732 l 1,59,-1
 277 732 l 1,60,61
 285 719 285 719 286 708 c 0,62,63
 287 703 287 703 287 693 c 0,64,65
 287 649 287 649 255 613 c 0,66,67
 242 598 242 598 217 579 c 1,68,-1
 327 579 l 1,69,-1
 327 599 l 2,70,71
 327 608 327 608 336 608 c 2,72,-1
 343 608 l 2,73,74
 352 608 352 608 352 599 c 2,75,-1
 351 579 l 1,76,-1
 553 579 l 1,77,-1
 553 568 l 1,78,-1
 351 568 l 1,79,-1
 349 415 l 1,80,-1
 361 415 l 1,81,82
 379 427 379 427 400 427 c 0,83,84
 419 427 419 427 433 415 c 1,85,-1
 553 415 l 1,86,-1
 553 404 l 1,87,-1
 441 404 l 1,88,89
 448 393 448 393 449 381 c 0,90,91
 451 371 451 371 451 366 c 0,92,93
 451 322 451 322 418 285 c 0,94,95
 403 268 403 268 381 251 c 1,96,-1
 553 251 l 1,97,-1
 553 241 l 1,98,-1
 367 241 l 2,99,100
 362 238 362 238 356 234.5 c 128,-1,101
 350 231 350 231 347 229 c 2,102,-1
 344 227 l 2,103,104
 343 226 343 226 339 226 c 0,105,106
 330 226 330 226 330 234 c 2,107,-1
 330 241 l 1,108,-1
 0 241 l 1,109,-1
 0 251 l 1,15,-1
21 404 m 1,110,-1
 20 338 l 1,111,112
 51 361 51 361 62 379 c 0,113,114
 69 390 69 390 74 404 c 1,115,-1
 21 404 l 1,110,-1
21 415 m 1,116,-1
 77 415 l 1,117,118
 80 432 80 432 80 439 c 2,119,-1
 80 446 l 2,120,121
 80 479 80 479 56 479 c 0,122,123
 40 479 40 479 31.5 471 c 128,-1,124
 23 463 23 463 22 456 c 2,125,-1
 21 415 l 1,116,-1
407 357 m 2,126,-1
 407 364 l 2,127,128
 407 397 407 397 384 397 c 0,129,130
 368 397 368 397 359 388.5 c 128,-1,131
 350 380 350 380 349 374 c 2,132,-1
 347 256 l 1,133,134
 380 281 380 281 390 297 c 0,135,136
 407 323 407 323 407 357 c 2,126,-1
329 415 m 1,137,-1
 328 568 l 1,138,-1
 203 568 l 2,139,140
 197 565 197 565 191.5 561.5 c 128,-1,141
 186 558 186 558 183 556 c 2,142,-1
 180 555 l 2,143,144
 179 554 179 554 175 554 c 0,145,146
 167 554 167 554 167 562 c 2,147,-1
 166 568 l 1,148,-1
 23 568 l 1,149,-1
 22 486 l 1,150,151
 39 509 39 509 73 509 c 0,152,153
 114 509 114 509 122 463 c 0,154,155
 123 458 123 458 123 448 c 0,156,157
 123 433 123 433 118 415 c 1,158,-1
 329 415 l 1,137,-1
EndSplineSet
EndChar

StartChar: macron
Encoding: 175 175 51
Width: 993
GlyphClass: 1
Flags: W
LayerCount: 2
Fore
SplineSet
657 251 m 1,0,-1
 656 404 l 1,1,-1
 441 404 l 1,2,3
 448 393 448 393 449 381 c 0,4,5
 451 371 451 371 451 366 c 0,6,7
 451 322 451 322 418 285 c 0,8,9
 403 268 403 268 381 251 c 1,10,-1
 657 251 l 1,0,-1
676 251 m 1,11,-1
 732 251 l 1,12,13
 735 268 735 268 735 275 c 2,14,-1
 735 282 l 2,15,16
 735 315 735 315 711 315 c 0,17,18
 695 315 695 315 686.5 307 c 128,-1,19
 678 299 678 299 677 292 c 2,20,-1
 676 251 l 1,11,-1
676 241 m 1,21,-1
 675 174 l 1,22,23
 708 199 708 199 718 215 c 0,24,25
 721 220 721 220 729 241 c 1,26,-1
 676 241 l 1,21,-1
329 415 m 1,27,-1
 328 568 l 1,28,-1
 203 568 l 2,29,30
 197 565 197 565 191.5 561.5 c 128,-1,31
 186 558 186 558 183 556 c 2,32,-1
 180 555 l 2,33,34
 179 554 179 554 175 554 c 0,35,36
 167 554 167 554 167 562 c 2,37,-1
 166 568 l 1,38,-1
 23 568 l 1,39,-1
 22 486 l 1,40,41
 39 509 39 509 73 509 c 0,42,43
 114 509 114 509 122 463 c 0,44,45
 123 458 123 458 123 448 c 0,46,47
 123 433 123 433 118 415 c 1,48,-1
 329 415 l 1,27,-1
407 357 m 2,49,-1
 407 364 l 2,50,51
 407 397 407 397 384 397 c 0,52,53
 368 397 368 397 359 388.5 c 128,-1,54
 350 380 350 380 349 374 c 2,55,-1
 347 256 l 1,56,57
 380 281 380 281 390 297 c 0,58,59
 407 323 407 323 407 357 c 2,49,-1
21 415 m 1,60,-1
 77 415 l 1,61,62
 80 432 80 432 80 439 c 2,63,-1
 80 446 l 2,64,65
 80 479 80 479 56 479 c 0,66,67
 40 479 40 479 31.5 471 c 128,-1,68
 23 463 23 463 22 456 c 2,69,-1
 21 415 l 1,60,-1
21 404 m 1,70,-1
 20 338 l 1,71,72
 51 361 51 361 62 379 c 0,73,74
 69 390 69 390 74 404 c 1,75,-1
 21 404 l 1,70,-1
0 251 m 1,76,-1
 330 251 l 1,77,-1
 329 404 l 1,78,-1
 114 404 l 1,79,80
 106 383 106 383 91 367 c 0,81,82
 58 330 58 330 16 309 c 0,83,84
 15 308 15 308 11 308 c 0,85,86
 3 308 3 308 3 316 c 2,87,-1
 2 404 l 1,88,-1
 0 404 l 1,89,-1
 0 415 l 1,90,-1
 2 415 l 1,91,-1
 1 568 l 1,92,-1
 0 568 l 1,93,-1
 0 579 l 1,94,-1
 0 681 l 2,95,96
 0 690 0 690 8 690 c 2,97,-1
 15 690 l 2,98,99
 24 690 24 690 24 681 c 2,100,-1
 23 579 l 1,101,-1
 166 579 l 1,102,-1
 165 732 l 1,103,-1
 0 732 l 1,104,-1
 0 742 l 1,105,-1
 165 742 l 1,106,-1
 163 927 l 2,107,108
 163 936 163 936 172 936 c 2,109,-1
 179 936 l 2,110,111
 188 936 188 936 188 927 c 2,112,-1
 185 742 l 1,113,-1
 197 742 l 1,114,115
 216 755 216 755 236 755 c 0,116,117
 254 755 254 755 269 742 c 1,118,-1
 492 742 l 1,119,-1
 491 845 l 2,120,121
 491 854 491 854 500 854 c 2,122,-1
 507 854 l 2,123,124
 515 854 515 854 515 845 c 2,125,-1
 514 742 l 1,126,-1
 819 742 l 1,127,-1
 819 763 l 2,128,129
 819 772 819 772 827 772 c 2,130,-1
 835 772 l 2,131,132
 843 772 843 772 843 763 c 2,133,-1
 843 742 l 1,134,-1
 1044 742 l 1,135,-1
 1044 732 l 1,136,-1
 843 732 l 1,137,-1
 841 579 l 1,138,-1
 852 579 l 1,139,140
 870 591 870 591 892 591 c 0,141,142
 911 591 911 591 925 579 c 1,143,-1
 1044 579 l 1,144,-1
 1044 568 l 1,145,-1
 933 568 l 1,146,147
 940 557 940 557 941 545 c 0,148,149
 942 540 942 540 942 529 c 0,150,151
 942 485 942 485 910 449 c 0,152,153
 895 432 895 432 873 415 c 1,154,-1
 1044 415 l 1,155,-1
 1044 404 l 1,156,-1
 858 404 l 2,157,158
 852 401 852 401 846.5 397.5 c 128,-1,159
 841 394 841 394 838 392 c 2,160,-1
 835 391 l 2,161,162
 834 390 834 390 830 390 c 0,163,164
 822 390 822 390 822 398 c 2,165,-1
 822 404 l 1,166,-1
 678 404 l 1,167,-1
 677 323 l 1,168,169
 694 345 694 345 728 345 c 0,170,171
 769 345 769 345 777 299 c 0,172,173
 778 294 778 294 778 284 c 0,174,175
 778 269 778 269 773 251 c 1,176,-1
 1044 251 l 1,177,-1
 1044 241 l 1,178,-1
 770 241 l 1,179,180
 762 221 762 221 746 203 c 0,181,182
 713 166 713 166 671 145 c 0,183,184
 670 144 670 144 667 144 c 0,185,186
 658 144 658 144 658 153 c 2,187,-1
 657 241 l 1,188,-1
 367 241 l 2,189,190
 362 238 362 238 356 234.5 c 128,-1,191
 350 231 350 231 347 229 c 2,192,-1
 344 227 l 2,193,194
 343 226 343 226 339 226 c 0,195,196
 330 226 330 226 330 234 c 2,197,-1
 330 241 l 1,198,-1
 0 241 l 1,199,-1
 0 251 l 1,76,-1
0 87 m 1,200,-1
 1044 87 l 1,201,-1
 1044 77 l 1,202,-1
 0 77 l 1,203,-1
 0 87 l 1,200,-1
244 685 m 2,204,-1
 244 691 l 2,205,206
 244 725 244 725 220 725 c 0,207,208
 204 725 204 725 195 716.5 c 128,-1,209
 186 708 186 708 185 702 c 2,210,-1
 184 583 l 1,211,212
 214 605 214 605 226 625 c 0,213,214
 244 653 244 653 244 685 c 2,204,-1
512 568 m 1,215,-1
 511 501 l 1,216,217
 543 525 543 525 554 543 c 0,218,219
 561 554 561 554 566 568 c 1,220,-1
 512 568 l 1,215,-1
512 579 m 1,221,-1
 568 579 l 1,222,223
 571 596 571 596 571 603 c 2,224,-1
 571 610 l 2,225,226
 571 643 571 643 548 643 c 0,227,228
 532 643 532 643 523 634.5 c 128,-1,229
 514 626 514 626 513 620 c 2,230,-1
 512 579 l 1,221,-1
493 579 m 1,231,-1
 492 732 l 1,232,-1
 277 732 l 1,233,234
 285 719 285 719 286 708 c 0,235,236
 287 703 287 703 287 693 c 0,237,238
 287 649 287 649 255 613 c 0,239,240
 242 598 242 598 217 579 c 1,241,-1
 327 579 l 1,242,-1
 327 599 l 2,243,244
 327 608 327 608 336 608 c 2,245,-1
 343 608 l 2,246,247
 352 608 352 608 352 599 c 2,248,-1
 351 579 l 1,249,-1
 493 579 l 1,231,-1
899 521 m 2,250,-1
 899 528 l 2,251,252
 899 561 899 561 875 561 c 0,253,254
 859 561 859 561 850.5 553 c 128,-1,255
 842 545 842 545 841 538 c 2,256,-1
 839 420 l 1,257,258
 870 443 870 443 881 461 c 0,259,260
 899 489 899 489 899 521 c 2,250,-1
822 415 m 1,261,-1
 820 568 l 1,262,-1
 606 568 l 1,263,264
 599 549 599 549 582 531 c 0,265,266
 548 493 548 493 508 473 c 0,267,268
 507 472 507 472 503 472 c 0,269,270
 494 472 494 472 494 480 c 2,271,-1
 493 568 l 1,272,-1
 351 568 l 1,273,-1
 349 415 l 1,274,-1
 361 415 l 1,275,276
 379 427 379 427 400 427 c 0,277,278
 419 427 419 427 433 415 c 1,279,-1
 656 415 l 1,280,-1
 655 517 l 2,281,282
 655 526 655 526 664 526 c 2,283,-1
 671 526 l 2,284,285
 679 526 679 526 679 517 c 2,286,-1
 678 415 l 1,287,-1
 822 415 l 1,261,-1
820 579 m 1,288,-1
 819 732 l 1,289,-1
 514 732 l 1,290,-1
 513 650 l 1,291,292
 530 673 530 673 564 673 c 0,293,294
 605 673 605 673 613 627 c 0,295,296
 614 622 614 622 614 611 c 0,297,298
 614 597 614 597 609 579 c 1,299,-1
 820 579 l 1,288,-1
EndSplineSet
EndChar

StartChar: uni00B3
Encoding: 179 179 52
Width: 1192
GlyphClass: 1
Flags: W
LayerCount: 2
Fore
SplineSet
820 732 m 1,0,-1
 618 732 l 1,1,-1
 618 680 l 1,2,-1
 640 685 l 1,3,-1
 641 685 l 2,4,5
 650 685 650 685 650 676 c 2,6,-1
 650 637 l 2,7,8
 650 630 650 630 643 628 c 2,9,-1
 618 624 l 1,10,-1
 618 579 l 1,11,-1
 851 579 l 1,12,-1
 852 579 l 1,13,-1
 852 686 l 1,14,-1
 830 682 l 1,15,-1
 828 682 l 2,16,17
 819 682 819 682 819 691 c 2,18,-1
 819 727 l 1,19,-1
 819 728 l 2,20,21
 819 731 819 731 820 732 c 1,0,-1
928 702 m 1,22,-1
 870 690 l 1,23,-1
 870 582 l 1,24,-1
 928 594 l 1,25,-1
 928 702 l 1,22,-1
0 87 m 1,26,-1
 1244 87 l 1,27,-1
 1244 77 l 1,28,-1
 0 77 l 1,29,-1
 0 87 l 1,26,-1
51 579 m 1,30,-1
 109 579 l 1,31,-1
 109 620 l 1,32,-1
 51 608 l 1,33,-1
 51 579 l 1,30,-1
109 732 m 1,34,-1
 51 732 l 1,35,-1
 51 664 l 1,36,-1
 109 676 l 1,37,-1
 109 732 l 1,34,-1
109 742 m 1,38,-1
 109 784 l 1,39,-1
 51 772 l 1,40,-1
 51 742 l 1,41,-1
 109 742 l 1,38,-1
600 732 m 1,42,-1
 542 732 l 1,43,-1
 542 665 l 1,44,-1
 600 676 l 1,45,-1
 600 732 l 1,42,-1
524 579 m 1,46,-1
 524 604 l 1,47,-1
 503 600 l 1,48,-1
 501 600 l 2,49,50
 492 600 492 600 492 609 c 2,51,-1
 492 645 l 1,52,-1
 492 646 l 2,53,54
 492 654 492 654 499 656 c 2,55,-1
 524 661 l 1,56,-1
 524 732 l 1,57,-1
 486 732 l 1,58,-1
 486 719 l 2,59,60
 486 712 486 712 479 710 c 2,61,-1
 455 706 l 1,62,-1
 455 610 l 1,63,-1
 436 610 l 1,64,-1
 436 702 l 1,65,-1
 378 690 l 1,66,-1
 378 589 l 1,67,-1
 360 589 l 1,68,-1
 360 686 l 1,69,-1
 339 681 l 1,70,-1
 337 681 l 2,71,72
 328 681 328 681 328 691 c 2,73,-1
 328 728 l 2,74,75
 328 731 328 731 329 732 c 1,76,-1
 127 732 l 1,77,-1
 127 680 l 1,78,-1
 148 685 l 1,79,-1
 150 685 l 2,80,81
 159 685 159 685 159 676 c 2,82,-1
 159 637 l 2,83,84
 159 630 159 630 152 628 c 2,85,-1
 127 624 l 1,86,-1
 127 579 l 1,87,-1
 195 579 l 1,88,-1
 196 579 l 1,89,-1
 196 674 l 1,90,-1
 215 674 l 1,91,-1
 215 583 l 1,92,-1
 273 594 l 1,93,-1
 273 695 l 1,94,-1
 291 695 l 1,95,-1
 291 598 l 1,96,-1
 312 603 l 1,97,-1
 313 603 l 2,98,99
 323 603 323 603 323 594 c 2,100,-1
 323 579 l 1,101,-1
 524 579 l 1,46,-1
524 415 m 1,102,-1
 524 440 l 1,103,-1
 503 436 l 1,104,-1
 501 436 l 2,105,106
 492 436 492 436 492 445 c 2,107,-1
 492 483 l 2,108,109
 492 490 492 490 499 492 c 2,110,-1
 524 497 l 1,111,-1
 524 568 l 1,112,-1
 323 568 l 1,113,-1
 323 555 l 2,114,115
 323 548 323 548 315 546 c 2,116,-1
 291 542 l 1,117,-1
 291 434 l 1,118,-1
 312 439 l 1,119,-1
 313 439 l 2,120,121
 323 439 323 439 323 430 c 2,122,-1
 323 415 l 1,123,-1
 524 415 l 1,102,-1
542 415 m 1,124,-1
 600 415 l 1,125,-1
 600 456 l 1,126,-1
 542 444 l 1,127,-1
 542 415 l 1,124,-1
524 404 m 1,128,-1
 323 404 l 1,129,-1
 323 392 l 2,130,131
 323 384 323 384 315 382 c 2,132,-1
 291 378 l 1,133,-1
 291 282 l 1,134,-1
 273 282 l 1,135,-1
 273 374 l 1,136,-1
 215 362 l 1,137,-1
 215 261 l 1,138,-1
 196 261 l 1,139,-1
 196 358 l 1,140,-1
 175 354 l 1,141,-1
 173 354 l 2,142,143
 164 354 164 354 164 363 c 2,144,-1
 164 401 l 2,145,146
 164 403 164 403 165 404 c 1,147,-1
 0 404 l 1,148,-1
 0 415 l 1,149,-1
 195 415 l 1,150,-1
 196 415 l 1,151,-1
 196 522 l 1,152,-1
 175 518 l 1,153,-1
 173 518 l 2,154,155
 164 518 164 518 164 527 c 2,156,-1
 164 563 l 1,157,-1
 164 565 l 2,158,159
 164 567 164 567 165 568 c 1,160,-1
 127 568 l 1,161,-1
 127 528 l 1,162,-1
 109 528 l 1,163,-1
 109 568 l 1,164,-1
 51 568 l 1,165,-1
 51 507 l 1,166,-1
 33 507 l 1,167,-1
 33 568 l 1,168,-1
 0 568 l 1,169,-1
 0 579 l 1,170,-1
 33 579 l 1,171,-1
 33 604 l 1,172,-1
 11 600 l 1,173,-1
 9 600 l 2,174,175
 0 600 0 600 0 609 c 2,176,-1
 0 646 l 2,177,178
 0 653 0 653 7 655 c 2,179,-1
 33 661 l 1,180,-1
 33 732 l 1,181,-1
 0 732 l 1,182,-1
 0 742 l 1,183,-1
 33 742 l 1,184,-1
 33 768 l 1,185,-1
 11 763 l 1,186,-1
 9 763 l 2,187,188
 0 763 0 763 0 773 c 2,189,-1
 0 809 l 1,190,-1
 0 810 l 2,191,192
 0 817 0 817 7 819 c 2,193,-1
 33 825 l 1,194,-1
 33 920 l 1,195,-1
 51 920 l 1,196,-1
 51 828 l 1,197,-1
 109 840 l 1,198,-1
 109 941 l 1,199,-1
 127 941 l 1,200,-1
 127 844 l 1,201,-1
 148 849 l 1,202,-1
 150 849 l 2,203,204
 159 849 159 849 159 840 c 2,205,-1
 159 801 l 2,206,207
 159 794 159 794 152 792 c 2,208,-1
 127 788 l 1,209,-1
 127 742 l 1,210,-1
 359 742 l 1,211,-1
 360 743 l 1,212,-1
 360 850 l 1,213,-1
 339 845 l 1,214,-1
 337 845 l 2,215,216
 328 845 328 845 328 854 c 2,217,-1
 328 891 l 1,218,-1
 328 892 l 2,219,220
 328 899 328 899 335 901 c 2,221,-1
 360 907 l 1,222,-1
 360 1002 l 1,223,-1
 378 1002 l 1,224,-1
 378 910 l 1,225,-1
 436 922 l 1,226,-1
 436 1023 l 1,227,-1
 455 1023 l 1,228,-1
 455 926 l 1,229,-1
 476 931 l 1,230,-1
 477 931 l 2,231,232
 486 931 486 931 486 921 c 2,233,-1
 486 883 l 2,234,235
 486 876 486 876 479 874 c 2,236,-1
 455 869 l 1,237,-1
 455 762 l 1,238,-1
 476 767 l 1,239,-1
 477 767 l 2,240,241
 486 767 486 767 486 758 c 2,242,-1
 486 742 l 1,243,-1
 524 742 l 1,244,-1
 524 756 l 1,245,-1
 542 756 l 1,246,-1
 542 742 l 1,247,-1
 600 742 l 1,248,-1
 600 777 l 1,249,-1
 618 777 l 1,250,-1
 618 742 l 1,251,-1
 850 742 l 1,252,-1
 852 743 l 1,253,-1
 852 838 l 1,254,-1
 870 838 l 1,255,-1
 870 747 l 1,256,-1
 928 758 l 1,257,-1
 928 859 l 1,258,-1
 946 859 l 1,259,-1
 946 762 l 1,260,-1
 968 767 l 1,261,-1
 969 767 l 2,262,263
 978 767 978 767 978 758 c 2,264,-1
 978 742 l 1,265,-1
 1244 742 l 1,266,-1
 1244 732 l 1,267,-1
 978 732 l 1,268,-1
 978 719 l 2,269,270
 978 712 978 712 971 710 c 2,271,-1
 946 706 l 1,272,-1
 946 598 l 1,273,-1
 968 603 l 1,274,-1
 969 603 l 2,275,276
 978 603 978 603 978 594 c 2,277,-1
 978 579 l 1,278,-1
 1016 579 l 1,279,-1
 1016 593 l 1,280,-1
 1034 593 l 1,281,-1
 1034 579 l 1,282,-1
 1092 579 l 1,283,-1
 1092 613 l 1,284,-1
 1110 613 l 1,285,-1
 1110 579 l 1,286,-1
 1244 579 l 1,287,-1
 1244 568 l 1,288,-1
 1110 568 l 1,289,-1
 1110 516 l 1,290,-1
 1131 521 l 1,291,-1
 1133 521 l 2,292,293
 1142 521 1142 521 1142 512 c 2,294,-1
 1142 473 l 2,295,296
 1142 466 1142 466 1135 464 c 2,297,-1
 1110 460 l 1,298,-1
 1110 415 l 1,299,-1
 1244 415 l 1,300,-1
 1244 404 l 1,301,-1
 1110 404 l 1,302,-1
 1110 353 l 1,303,-1
 1131 357 l 1,304,-1
 1133 357 l 2,305,306
 1142 357 1142 357 1142 348 c 2,307,-1
 1142 310 l 2,308,309
 1142 302 1142 302 1135 300 c 2,310,-1
 1110 296 l 1,311,-1
 1110 251 l 1,312,-1
 1244 251 l 1,313,-1
 1244 241 l 1,314,-1
 1110 241 l 1,315,-1
 1110 200 l 1,316,-1
 1092 200 l 1,317,-1
 1092 241 l 1,318,-1
 1034 241 l 1,319,-1
 1034 180 l 1,320,-1
 1016 180 l 1,321,-1
 1016 241 l 1,322,-1
 814 241 l 1,323,-1
 814 228 l 2,324,325
 814 221 814 221 807 219 c 2,326,-1
 782 214 l 1,327,-1
 782 118 l 1,328,-1
 764 118 l 1,329,-1
 764 210 l 1,330,-1
 706 198 l 1,331,-1
 706 98 l 1,332,-1
 688 98 l 1,333,-1
 688 194 l 1,334,-1
 666 190 l 1,335,-1
 665 190 l 2,336,337
 655 190 655 190 655 199 c 2,338,-1
 655 237 l 2,339,340
 655 240 655 240 656 241 c 1,341,-1
 0 241 l 1,342,-1
 0 251 l 1,343,-1
 687 251 l 1,344,-1
 688 251 l 1,345,-1
 688 358 l 1,346,-1
 666 354 l 1,347,-1
 665 354 l 2,348,349
 655 354 655 354 655 363 c 2,350,-1
 655 399 l 1,351,-1
 655 401 l 2,352,353
 655 403 655 403 656 404 c 1,354,-1
 618 404 l 1,355,-1
 618 364 l 1,356,-1
 600 364 l 1,357,-1
 600 404 l 1,358,-1
 542 404 l 1,359,-1
 542 343 l 1,360,-1
 524 343 l 1,361,-1
 524 404 l 1,128,-1
542 568 m 1,362,-1
 542 500 l 1,363,-1
 600 512 l 1,364,-1
 600 568 l 1,365,-1
 542 568 l 1,362,-1
542 579 m 1,366,-1
 600 579 l 1,367,-1
 600 620 l 1,368,-1
 542 608 l 1,369,-1
 542 579 l 1,366,-1
215 418 m 1,370,-1
 273 431 l 1,371,-1
 273 538 l 1,372,-1
 215 526 l 1,373,-1
 215 418 l 1,370,-1
378 746 m 1,374,-1
 436 758 l 1,375,-1
 436 866 l 1,376,-1
 378 854 l 1,377,-1
 378 746 l 1,374,-1
764 374 m 1,378,-1
 706 362 l 1,379,-1
 706 254 l 1,380,-1
 764 267 l 1,381,-1
 764 374 l 1,378,-1
1092 456 m 1,382,-1
 1034 444 l 1,383,-1
 1034 415 l 1,384,-1
 1092 415 l 1,385,-1
 1092 456 l 1,382,-1
1092 251 m 1,386,-1
 1092 292 l 1,387,-1
 1034 280 l 1,388,-1
 1034 251 l 1,389,-1
 1092 251 l 1,386,-1
1092 568 m 1,390,-1
 1034 568 l 1,391,-1
 1034 501 l 1,392,-1
 1092 513 l 1,393,-1
 1092 568 l 1,390,-1
1016 568 m 1,394,-1
 978 568 l 1,395,-1
 978 555 l 2,396,397
 978 548 978 548 971 546 c 2,398,-1
 946 542 l 1,399,-1
 946 446 l 1,400,-1
 928 446 l 1,401,-1
 928 538 l 1,402,-1
 870 526 l 1,403,-1
 870 425 l 1,404,-1
 852 425 l 1,405,-1
 852 522 l 1,406,-1
 830 518 l 1,407,-1
 828 518 l 2,408,409
 819 518 819 518 819 527 c 2,410,-1
 819 564 l 2,411,412
 819 567 819 567 820 568 c 1,413,-1
 618 568 l 1,414,-1
 618 516 l 1,415,-1
 640 521 l 1,416,-1
 641 521 l 2,417,418
 650 521 650 521 650 512 c 2,419,-1
 650 473 l 2,420,421
 650 466 650 466 643 464 c 2,422,-1
 618 460 l 1,423,-1
 618 415 l 1,424,-1
 687 415 l 1,425,-1
 688 415 l 1,426,-1
 688 511 l 1,427,-1
 706 511 l 1,428,-1
 706 419 l 1,429,-1
 764 431 l 1,430,-1
 764 531 l 1,431,-1
 782 531 l 1,432,-1
 782 435 l 1,433,-1
 804 439 l 1,434,-1
 805 439 l 2,435,436
 814 439 814 439 814 430 c 2,437,-1
 814 415 l 1,438,-1
 1016 415 l 1,439,-1
 1016 440 l 1,440,-1
 994 436 l 1,441,-1
 992 436 l 2,442,443
 983 436 983 436 983 445 c 2,444,-1
 983 481 l 1,445,-1
 983 483 l 2,446,447
 983 490 983 490 990 492 c 2,448,-1
 1016 497 l 1,449,-1
 1016 568 l 1,394,-1
1016 404 m 1,450,-1
 814 404 l 1,451,-1
 814 392 l 2,452,453
 814 384 814 384 807 382 c 2,454,-1
 782 378 l 1,455,-1
 782 271 l 1,456,-1
 804 275 l 1,457,-1
 805 275 l 2,458,459
 814 275 814 275 814 266 c 2,460,-1
 814 251 l 1,461,-1
 1016 251 l 1,462,-1
 1016 276 l 1,463,-1
 994 272 l 1,464,-1
 992 272 l 2,465,466
 983 272 983 272 983 281 c 2,467,-1
 983 319 l 2,468,469
 983 326 983 326 990 328 c 2,470,-1
 1016 333 l 1,471,-1
 1016 404 l 1,450,-1
1092 404 m 1,472,-1
 1034 404 l 1,473,-1
 1034 336 l 1,474,-1
 1092 349 l 1,475,-1
 1092 404 l 1,472,-1
EndSplineSet
EndChar

StartChar: paragraph
Encoding: 182 182 53
Width: 1029
GlyphClass: 1
Flags: W
LayerCount: 2
Fore
SplineSet
764 374 m 1,0,-1
 706 362 l 1,1,-1
 706 254 l 1,2,-1
 764 267 l 1,3,-1
 764 374 l 1,0,-1
378 746 m 1,4,-1
 436 758 l 1,5,-1
 436 866 l 1,6,-1
 378 854 l 1,7,-1
 378 746 l 1,4,-1
215 418 m 1,8,-1
 273 431 l 1,9,-1
 273 538 l 1,10,-1
 215 526 l 1,11,-1
 215 418 l 1,8,-1
542 579 m 1,12,-1
 600 579 l 1,13,-1
 600 620 l 1,14,-1
 542 608 l 1,15,-1
 542 579 l 1,12,-1
542 568 m 1,16,-1
 542 500 l 1,17,-1
 600 512 l 1,18,-1
 600 568 l 1,19,-1
 542 568 l 1,16,-1
524 404 m 1,20,-1
 323 404 l 1,21,-1
 323 392 l 2,22,23
 323 384 323 384 315 382 c 2,24,-1
 291 378 l 1,25,-1
 291 282 l 1,26,-1
 273 282 l 1,27,-1
 273 374 l 1,28,-1
 215 362 l 1,29,-1
 215 261 l 1,30,-1
 196 261 l 1,31,-1
 196 358 l 1,32,-1
 175 354 l 1,33,-1
 173 354 l 2,34,35
 164 354 164 354 164 363 c 2,36,-1
 164 401 l 2,37,38
 164 403 164 403 165 404 c 1,39,-1
 0 404 l 1,40,-1
 0 415 l 1,41,-1
 195 415 l 1,42,-1
 196 415 l 1,43,-1
 196 522 l 1,44,-1
 175 518 l 1,45,-1
 173 518 l 2,46,47
 164 518 164 518 164 527 c 2,48,-1
 164 563 l 1,49,-1
 164 565 l 2,50,51
 164 567 164 567 165 568 c 1,52,-1
 127 568 l 1,53,-1
 127 528 l 1,54,-1
 109 528 l 1,55,-1
 109 568 l 1,56,-1
 51 568 l 1,57,-1
 51 507 l 1,58,-1
 33 507 l 1,59,-1
 33 568 l 1,60,-1
 0 568 l 1,61,-1
 0 579 l 1,62,-1
 33 579 l 1,63,-1
 33 604 l 1,64,-1
 11 600 l 1,65,-1
 9 600 l 2,66,67
 0 600 0 600 0 609 c 2,68,-1
 0 646 l 2,69,70
 0 653 0 653 7 655 c 2,71,-1
 33 661 l 1,72,-1
 33 732 l 1,73,-1
 0 732 l 1,74,-1
 0 742 l 1,75,-1
 33 742 l 1,76,-1
 33 768 l 1,77,-1
 11 763 l 1,78,-1
 9 763 l 2,79,80
 0 763 0 763 0 773 c 2,81,-1
 0 809 l 1,82,-1
 0 810 l 2,83,84
 0 817 0 817 7 819 c 2,85,-1
 33 825 l 1,86,-1
 33 920 l 1,87,-1
 51 920 l 1,88,-1
 51 828 l 1,89,-1
 109 840 l 1,90,-1
 109 941 l 1,91,-1
 127 941 l 1,92,-1
 127 844 l 1,93,-1
 148 849 l 1,94,-1
 150 849 l 2,95,96
 159 849 159 849 159 840 c 2,97,-1
 159 801 l 2,98,99
 159 794 159 794 152 792 c 2,100,-1
 127 788 l 1,101,-1
 127 742 l 1,102,-1
 359 742 l 1,103,-1
 360 743 l 1,104,-1
 360 850 l 1,105,-1
 339 845 l 1,106,-1
 337 845 l 2,107,108
 328 845 328 845 328 854 c 2,109,-1
 328 891 l 1,110,-1
 328 892 l 2,111,112
 328 899 328 899 335 901 c 2,113,-1
 360 907 l 1,114,-1
 360 1002 l 1,115,-1
 378 1002 l 1,116,-1
 378 910 l 1,117,-1
 436 922 l 1,118,-1
 436 1023 l 1,119,-1
 455 1023 l 1,120,-1
 455 926 l 1,121,-1
 476 931 l 1,122,-1
 477 931 l 2,123,124
 486 931 486 931 486 921 c 2,125,-1
 486 883 l 2,126,127
 486 876 486 876 479 874 c 2,128,-1
 455 869 l 1,129,-1
 455 762 l 1,130,-1
 476 767 l 1,131,-1
 477 767 l 2,132,133
 486 767 486 767 486 758 c 2,134,-1
 486 742 l 1,135,-1
 524 742 l 1,136,-1
 524 756 l 1,137,-1
 542 756 l 1,138,-1
 542 742 l 1,139,-1
 600 742 l 1,140,-1
 600 777 l 1,141,-1
 618 777 l 1,142,-1
 618 742 l 1,143,-1
 850 742 l 1,144,-1
 852 743 l 1,145,-1
 852 838 l 1,146,-1
 870 838 l 1,147,-1
 870 747 l 1,148,-1
 928 758 l 1,149,-1
 928 859 l 1,150,-1
 946 859 l 1,151,-1
 946 762 l 1,152,-1
 968 767 l 1,153,-1
 969 767 l 2,154,155
 978 767 978 767 978 758 c 2,156,-1
 978 742 l 1,157,-1
 1080 742 l 1,158,-1
 1080 732 l 1,159,-1
 978 732 l 1,160,-1
 978 719 l 2,161,162
 978 712 978 712 971 710 c 2,163,-1
 946 706 l 1,164,-1
 946 598 l 1,165,-1
 968 603 l 1,166,-1
 969 603 l 2,167,168
 978 603 978 603 978 594 c 2,169,-1
 978 579 l 1,170,-1
 1080 579 l 1,171,-1
 1080 568 l 1,172,-1
 978 568 l 1,173,-1
 978 555 l 2,174,175
 978 548 978 548 971 546 c 2,176,-1
 946 542 l 1,177,-1
 946 446 l 1,178,-1
 928 446 l 1,179,-1
 928 538 l 1,180,-1
 870 526 l 1,181,-1
 870 425 l 1,182,-1
 852 425 l 1,183,-1
 852 522 l 1,184,-1
 830 518 l 1,185,-1
 828 518 l 2,186,187
 819 518 819 518 819 527 c 2,188,-1
 819 564 l 2,189,190
 819 567 819 567 820 568 c 1,191,-1
 618 568 l 1,192,-1
 618 516 l 1,193,-1
 640 521 l 1,194,-1
 641 521 l 2,195,196
 650 521 650 521 650 512 c 2,197,-1
 650 473 l 2,198,199
 650 466 650 466 643 464 c 2,200,-1
 618 460 l 1,201,-1
 618 415 l 1,202,-1
 687 415 l 1,203,-1
 688 415 l 1,204,-1
 688 511 l 1,205,-1
 706 511 l 1,206,-1
 706 419 l 1,207,-1
 764 431 l 1,208,-1
 764 531 l 1,209,-1
 782 531 l 1,210,-1
 782 435 l 1,211,-1
 804 439 l 1,212,-1
 805 439 l 2,213,214
 814 439 814 439 814 430 c 2,215,-1
 814 415 l 1,216,-1
 1080 415 l 1,217,-1
 1080 404 l 1,218,-1
 814 404 l 1,219,-1
 814 392 l 2,220,221
 814 384 814 384 807 382 c 2,222,-1
 782 378 l 1,223,-1
 782 271 l 1,224,-1
 804 275 l 1,225,-1
 805 275 l 2,226,227
 814 275 814 275 814 266 c 2,228,-1
 814 251 l 1,229,-1
 1080 251 l 1,230,-1
 1080 241 l 1,231,-1
 814 241 l 1,232,-1
 814 228 l 2,233,234
 814 221 814 221 807 219 c 2,235,-1
 782 214 l 1,236,-1
 782 118 l 1,237,-1
 764 118 l 1,238,-1
 764 210 l 1,239,-1
 706 198 l 1,240,-1
 706 98 l 1,241,-1
 688 98 l 1,242,-1
 688 194 l 1,243,-1
 666 190 l 1,244,-1
 665 190 l 2,245,246
 655 190 655 190 655 199 c 2,247,-1
 655 237 l 2,248,249
 655 240 655 240 656 241 c 1,250,-1
 0 241 l 1,251,-1
 0 251 l 1,252,-1
 687 251 l 1,253,-1
 688 251 l 1,254,-1
 688 358 l 1,255,-1
 666 354 l 1,256,-1
 665 354 l 2,257,258
 655 354 655 354 655 363 c 2,259,-1
 655 399 l 1,260,-1
 655 401 l 2,261,262
 655 403 655 403 656 404 c 1,263,-1
 618 404 l 1,264,-1
 618 364 l 1,265,-1
 600 364 l 1,266,-1
 600 404 l 1,267,-1
 542 404 l 1,268,-1
 542 343 l 1,269,-1
 524 343 l 1,270,-1
 524 404 l 1,20,-1
542 415 m 1,271,-1
 600 415 l 1,272,-1
 600 456 l 1,273,-1
 542 444 l 1,274,-1
 542 415 l 1,271,-1
524 415 m 1,275,-1
 524 440 l 1,276,-1
 503 436 l 1,277,-1
 501 436 l 2,278,279
 492 436 492 436 492 445 c 2,280,-1
 492 483 l 2,281,282
 492 490 492 490 499 492 c 2,283,-1
 524 497 l 1,284,-1
 524 568 l 1,285,-1
 323 568 l 1,286,-1
 323 555 l 2,287,288
 323 548 323 548 315 546 c 2,289,-1
 291 542 l 1,290,-1
 291 434 l 1,291,-1
 312 439 l 1,292,-1
 313 439 l 2,293,294
 323 439 323 439 323 430 c 2,295,-1
 323 415 l 1,296,-1
 524 415 l 1,275,-1
524 579 m 1,297,-1
 524 604 l 1,298,-1
 503 600 l 1,299,-1
 501 600 l 2,300,301
 492 600 492 600 492 609 c 2,302,-1
 492 645 l 1,303,-1
 492 646 l 2,304,305
 492 654 492 654 499 656 c 2,306,-1
 524 661 l 1,307,-1
 524 732 l 1,308,-1
 486 732 l 1,309,-1
 486 719 l 2,310,311
 486 712 486 712 479 710 c 2,312,-1
 455 706 l 1,313,-1
 455 610 l 1,314,-1
 436 610 l 1,315,-1
 436 702 l 1,316,-1
 378 690 l 1,317,-1
 378 589 l 1,318,-1
 360 589 l 1,319,-1
 360 686 l 1,320,-1
 339 681 l 1,321,-1
 337 681 l 2,322,323
 328 681 328 681 328 691 c 2,324,-1
 328 728 l 2,325,326
 328 731 328 731 329 732 c 1,327,-1
 127 732 l 1,328,-1
 127 680 l 1,329,-1
 148 685 l 1,330,-1
 150 685 l 2,331,332
 159 685 159 685 159 676 c 2,333,-1
 159 637 l 2,334,335
 159 630 159 630 152 628 c 2,336,-1
 127 624 l 1,337,-1
 127 579 l 1,338,-1
 195 579 l 1,339,-1
 196 579 l 1,340,-1
 196 674 l 1,341,-1
 215 674 l 1,342,-1
 215 583 l 1,343,-1
 273 594 l 1,344,-1
 273 695 l 1,345,-1
 291 695 l 1,346,-1
 291 598 l 1,347,-1
 312 603 l 1,348,-1
 313 603 l 2,349,350
 323 603 323 603 323 594 c 2,351,-1
 323 579 l 1,352,-1
 524 579 l 1,297,-1
600 732 m 1,353,-1
 542 732 l 1,354,-1
 542 665 l 1,355,-1
 600 676 l 1,356,-1
 600 732 l 1,353,-1
109 742 m 1,357,-1
 109 784 l 1,358,-1
 51 772 l 1,359,-1
 51 742 l 1,360,-1
 109 742 l 1,357,-1
109 732 m 1,361,-1
 51 732 l 1,362,-1
 51 664 l 1,363,-1
 109 676 l 1,364,-1
 109 732 l 1,361,-1
51 579 m 1,365,-1
 109 579 l 1,366,-1
 109 620 l 1,367,-1
 51 608 l 1,368,-1
 51 579 l 1,365,-1
0 87 m 1,369,-1
 1080 87 l 1,370,-1
 1080 77 l 1,371,-1
 0 77 l 1,372,-1
 0 87 l 1,369,-1
928 702 m 1,373,-1
 870 690 l 1,374,-1
 870 582 l 1,375,-1
 928 594 l 1,376,-1
 928 702 l 1,373,-1
820 732 m 1,377,-1
 618 732 l 1,378,-1
 618 680 l 1,379,-1
 640 685 l 1,380,-1
 641 685 l 2,381,382
 650 685 650 685 650 676 c 2,383,-1
 650 637 l 2,384,385
 650 630 650 630 643 628 c 2,386,-1
 618 624 l 1,387,-1
 618 579 l 1,388,-1
 851 579 l 1,389,-1
 852 579 l 1,390,-1
 852 686 l 1,391,-1
 830 682 l 1,392,-1
 828 682 l 2,393,394
 819 682 819 682 819 691 c 2,395,-1
 819 727 l 1,396,-1
 819 728 l 2,397,398
 819 731 819 731 820 732 c 1,377,-1
EndSplineSet
EndChar

StartChar: Aacute
Encoding: 193 193 54
Width: 537
GlyphClass: 1
Flags: W
LayerCount: 2
Fore
SplineSet
0 742 m 1,0,-1
 589 742 l 1,1,-1
 589 732 l 1,2,-1
 0 732 l 1,3,-1
 0 742 l 1,0,-1
0 87 m 1,4,-1
 589 87 l 1,5,-1
 589 77 l 1,6,-1
 0 77 l 1,7,-1
 0 87 l 1,4,-1
51 415 m 1,8,-1
 109 415 l 1,9,-1
 109 456 l 1,10,-1
 51 444 l 1,11,-1
 51 415 l 1,8,-1
109 568 m 1,12,-1
 51 568 l 1,13,-1
 51 500 l 1,14,-1
 109 512 l 1,15,-1
 109 568 l 1,12,-1
109 579 m 1,16,-1
 109 620 l 1,17,-1
 51 608 l 1,18,-1
 51 579 l 1,19,-1
 109 579 l 1,16,-1
127 568 m 1,20,-1
 127 516 l 1,21,-1
 148 521 l 1,22,-1
 150 521 l 2,23,24
 159 521 159 521 159 512 c 2,25,-1
 159 473 l 2,26,27
 159 466 159 466 152 464 c 2,28,-1
 127 460 l 1,29,-1
 127 415 l 1,30,-1
 195 415 l 1,31,-1
 196 415 l 1,32,-1
 196 511 l 1,33,-1
 215 511 l 1,34,-1
 215 419 l 1,35,-1
 273 431 l 1,36,-1
 273 531 l 1,37,-1
 291 531 l 1,38,-1
 291 435 l 1,39,-1
 312 439 l 1,40,-1
 313 439 l 2,41,42
 323 439 323 439 323 430 c 2,43,-1
 323 415 l 1,44,-1
 589 415 l 1,45,-1
 589 404 l 1,46,-1
 323 404 l 1,47,-1
 323 392 l 2,48,49
 323 384 323 384 315 382 c 2,50,-1
 291 378 l 1,51,-1
 291 271 l 1,52,-1
 312 275 l 1,53,-1
 313 275 l 2,54,55
 323 275 323 275 323 266 c 2,56,-1
 323 251 l 1,57,-1
 589 251 l 1,58,-1
 589 241 l 1,59,-1
 323 241 l 1,60,-1
 323 228 l 2,61,62
 323 221 323 221 315 219 c 2,63,-1
 291 214 l 1,64,-1
 291 118 l 1,65,-1
 273 118 l 1,66,-1
 273 210 l 1,67,-1
 215 198 l 1,68,-1
 215 98 l 1,69,-1
 196 98 l 1,70,-1
 196 194 l 1,71,-1
 175 190 l 1,72,-1
 173 190 l 2,73,74
 164 190 164 190 164 199 c 2,75,-1
 164 237 l 2,76,77
 164 240 164 240 165 241 c 1,78,-1
 0 241 l 1,79,-1
 0 251 l 1,80,-1
 195 251 l 1,81,-1
 196 251 l 1,82,-1
 196 358 l 1,83,-1
 175 354 l 1,84,-1
 173 354 l 2,85,86
 164 354 164 354 164 363 c 2,87,-1
 164 399 l 1,88,-1
 164 401 l 2,89,90
 164 403 164 403 165 404 c 1,91,-1
 127 404 l 1,92,-1
 127 364 l 1,93,-1
 109 364 l 1,94,-1
 109 404 l 1,95,-1
 51 404 l 1,96,-1
 51 343 l 1,97,-1
 33 343 l 1,98,-1
 33 404 l 1,99,-1
 0 404 l 1,100,-1
 0 415 l 1,101,-1
 33 415 l 1,102,-1
 33 440 l 1,103,-1
 11 436 l 1,104,-1
 9 436 l 2,105,106
 0 436 0 436 0 445 c 2,107,-1
 0 483 l 2,108,109
 0 490 0 490 7 492 c 2,110,-1
 33 497 l 1,111,-1
 33 568 l 1,112,-1
 0 568 l 1,113,-1
 0 579 l 1,114,-1
 33 579 l 1,115,-1
 33 604 l 1,116,-1
 11 600 l 1,117,-1
 9 600 l 2,118,119
 0 600 0 600 0 609 c 2,120,-1
 0 645 l 1,121,-1
 0 646 l 2,122,123
 0 654 0 654 7 656 c 2,124,-1
 33 661 l 1,125,-1
 33 756 l 1,126,-1
 51 756 l 1,127,-1
 51 665 l 1,128,-1
 109 676 l 1,129,-1
 109 777 l 1,130,-1
 127 777 l 1,131,-1
 127 680 l 1,132,-1
 148 685 l 1,133,-1
 150 685 l 2,134,135
 159 685 159 685 159 676 c 2,136,-1
 159 637 l 2,137,138
 159 630 159 630 152 628 c 2,139,-1
 127 624 l 1,140,-1
 127 579 l 1,141,-1
 359 579 l 1,142,-1
 360 579 l 1,143,-1
 360 686 l 1,144,-1
 339 682 l 1,145,-1
 337 682 l 2,146,147
 328 682 328 682 328 691 c 2,148,-1
 328 727 l 1,149,-1
 328 728 l 2,150,151
 328 735 328 735 335 737 c 2,152,-1
 360 743 l 1,153,-1
 360 838 l 1,154,-1
 378 838 l 1,155,-1
 378 747 l 1,156,-1
 436 758 l 1,157,-1
 436 859 l 1,158,-1
 455 859 l 1,159,-1
 455 762 l 1,160,-1
 476 767 l 1,161,-1
 477 767 l 2,162,163
 486 767 486 767 486 758 c 2,164,-1
 486 719 l 2,165,166
 486 712 486 712 479 710 c 2,167,-1
 455 706 l 1,168,-1
 455 598 l 1,169,-1
 476 603 l 1,170,-1
 477 603 l 2,171,172
 486 603 486 603 486 594 c 2,173,-1
 486 579 l 1,174,-1
 589 579 l 1,175,-1
 589 568 l 1,176,-1
 486 568 l 1,177,-1
 486 555 l 2,178,179
 486 548 486 548 479 546 c 2,180,-1
 455 542 l 1,181,-1
 455 446 l 1,182,-1
 436 446 l 1,183,-1
 436 538 l 1,184,-1
 378 526 l 1,185,-1
 378 425 l 1,186,-1
 360 425 l 1,187,-1
 360 522 l 1,188,-1
 339 518 l 1,189,-1
 337 518 l 2,190,191
 328 518 328 518 328 527 c 2,192,-1
 328 564 l 2,193,194
 328 567 328 567 329 568 c 1,195,-1
 127 568 l 1,20,-1
215 254 m 1,196,-1
 273 267 l 1,197,-1
 273 374 l 1,198,-1
 215 362 l 1,199,-1
 215 254 l 1,196,-1
378 582 m 1,200,-1
 436 594 l 1,201,-1
 436 702 l 1,202,-1
 378 690 l 1,203,-1
 378 582 l 1,200,-1
EndSplineSet
EndChar

StartChar: Acircumflex
Encoding: 194 194 55
Width: 865
GlyphClass: 1
Flags: W
LayerCount: 2
Fore
SplineSet
0 742 m 1,0,-1
 916 742 l 1,1,-1
 916 732 l 1,2,-1
 0 732 l 1,3,-1
 0 742 l 1,0,-1
51 415 m 1,4,-1
 109 415 l 1,5,-1
 109 456 l 1,6,-1
 51 444 l 1,7,-1
 51 415 l 1,4,-1
109 568 m 1,8,-1
 51 568 l 1,9,-1
 51 500 l 1,10,-1
 109 512 l 1,11,-1
 109 568 l 1,8,-1
109 579 m 1,12,-1
 109 620 l 1,13,-1
 51 608 l 1,14,-1
 51 579 l 1,15,-1
 109 579 l 1,12,-1
600 568 m 1,16,-1
 542 568 l 1,17,-1
 542 501 l 1,18,-1
 600 513 l 1,19,-1
 600 568 l 1,16,-1
524 415 m 1,20,-1
 524 440 l 1,21,-1
 503 436 l 1,22,-1
 501 436 l 2,23,24
 492 436 492 436 492 445 c 2,25,-1
 492 481 l 1,26,-1
 492 483 l 2,27,28
 492 490 492 490 499 492 c 2,29,-1
 524 497 l 1,30,-1
 524 568 l 1,31,-1
 486 568 l 1,32,-1
 486 555 l 2,33,34
 486 548 486 548 479 546 c 2,35,-1
 455 542 l 1,36,-1
 455 446 l 1,37,-1
 436 446 l 1,38,-1
 436 538 l 1,39,-1
 378 526 l 1,40,-1
 378 425 l 1,41,-1
 360 425 l 1,42,-1
 360 522 l 1,43,-1
 339 518 l 1,44,-1
 337 518 l 2,45,46
 328 518 328 518 328 527 c 2,47,-1
 328 564 l 2,48,49
 328 567 328 567 329 568 c 1,50,-1
 127 568 l 1,51,-1
 127 516 l 1,52,-1
 148 521 l 1,53,-1
 150 521 l 2,54,55
 159 521 159 521 159 512 c 2,56,-1
 159 473 l 2,57,58
 159 466 159 466 152 464 c 2,59,-1
 127 460 l 1,60,-1
 127 415 l 1,61,-1
 195 415 l 1,62,-1
 196 415 l 1,63,-1
 196 511 l 1,64,-1
 215 511 l 1,65,-1
 215 419 l 1,66,-1
 273 431 l 1,67,-1
 273 531 l 1,68,-1
 291 531 l 1,69,-1
 291 435 l 1,70,-1
 312 439 l 1,71,-1
 313 439 l 2,72,73
 323 439 323 439 323 430 c 2,74,-1
 323 415 l 1,75,-1
 524 415 l 1,20,-1
524 251 m 1,76,-1
 524 276 l 1,77,-1
 503 272 l 1,78,-1
 501 272 l 2,79,80
 492 272 492 272 492 281 c 2,81,-1
 492 319 l 2,82,83
 492 326 492 326 499 328 c 2,84,-1
 524 333 l 1,85,-1
 524 404 l 1,86,-1
 323 404 l 1,87,-1
 323 392 l 2,88,89
 323 384 323 384 315 382 c 2,90,-1
 291 378 l 1,91,-1
 291 271 l 1,92,-1
 312 275 l 1,93,-1
 313 275 l 2,94,95
 323 275 323 275 323 266 c 2,96,-1
 323 251 l 1,97,-1
 524 251 l 1,76,-1
542 251 m 1,98,-1
 600 251 l 1,99,-1
 600 292 l 1,100,-1
 542 280 l 1,101,-1
 542 251 l 1,98,-1
524 241 m 1,102,-1
 323 241 l 1,103,-1
 323 228 l 2,104,105
 323 221 323 221 315 219 c 2,106,-1
 291 214 l 1,107,-1
 291 118 l 1,108,-1
 273 118 l 1,109,-1
 273 210 l 1,110,-1
 215 198 l 1,111,-1
 215 98 l 1,112,-1
 196 98 l 1,113,-1
 196 194 l 1,114,-1
 175 190 l 1,115,-1
 173 190 l 2,116,117
 164 190 164 190 164 199 c 2,118,-1
 164 237 l 2,119,120
 164 240 164 240 165 241 c 1,121,-1
 0 241 l 1,122,-1
 0 251 l 1,123,-1
 195 251 l 1,124,-1
 196 251 l 1,125,-1
 196 358 l 1,126,-1
 175 354 l 1,127,-1
 173 354 l 2,128,129
 164 354 164 354 164 363 c 2,130,-1
 164 399 l 1,131,-1
 164 401 l 2,132,133
 164 403 164 403 165 404 c 1,134,-1
 127 404 l 1,135,-1
 127 364 l 1,136,-1
 109 364 l 1,137,-1
 109 404 l 1,138,-1
 51 404 l 1,139,-1
 51 343 l 1,140,-1
 33 343 l 1,141,-1
 33 404 l 1,142,-1
 0 404 l 1,143,-1
 0 415 l 1,144,-1
 33 415 l 1,145,-1
 33 440 l 1,146,-1
 11 436 l 1,147,-1
 9 436 l 2,148,149
 0 436 0 436 0 445 c 2,150,-1
 0 483 l 2,151,152
 0 490 0 490 7 492 c 2,153,-1
 33 497 l 1,154,-1
 33 568 l 1,155,-1
 0 568 l 1,156,-1
 0 579 l 1,157,-1
 33 579 l 1,158,-1
 33 604 l 1,159,-1
 11 600 l 1,160,-1
 9 600 l 2,161,162
 0 600 0 600 0 609 c 2,163,-1
 0 645 l 1,164,-1
 0 646 l 2,165,166
 0 654 0 654 7 656 c 2,167,-1
 33 661 l 1,168,-1
 33 756 l 1,169,-1
 51 756 l 1,170,-1
 51 665 l 1,171,-1
 109 676 l 1,172,-1
 109 777 l 1,173,-1
 127 777 l 1,174,-1
 127 680 l 1,175,-1
 148 685 l 1,176,-1
 150 685 l 2,177,178
 159 685 159 685 159 676 c 2,179,-1
 159 637 l 2,180,181
 159 630 159 630 152 628 c 2,182,-1
 127 624 l 1,183,-1
 127 579 l 1,184,-1
 359 579 l 1,185,-1
 360 579 l 1,186,-1
 360 686 l 1,187,-1
 339 682 l 1,188,-1
 337 682 l 2,189,190
 328 682 328 682 328 691 c 2,191,-1
 328 727 l 1,192,-1
 328 728 l 2,193,194
 328 735 328 735 335 737 c 2,195,-1
 360 743 l 1,196,-1
 360 838 l 1,197,-1
 378 838 l 1,198,-1
 378 747 l 1,199,-1
 436 758 l 1,200,-1
 436 859 l 1,201,-1
 455 859 l 1,202,-1
 455 762 l 1,203,-1
 476 767 l 1,204,-1
 477 767 l 2,205,206
 486 767 486 767 486 758 c 2,207,-1
 486 719 l 2,208,209
 486 712 486 712 479 710 c 2,210,-1
 455 706 l 1,211,-1
 455 598 l 1,212,-1
 476 603 l 1,213,-1
 477 603 l 2,214,215
 486 603 486 603 486 594 c 2,216,-1
 486 579 l 1,217,-1
 524 579 l 1,218,-1
 524 593 l 1,219,-1
 542 593 l 1,220,-1
 542 579 l 1,221,-1
 600 579 l 1,222,-1
 600 613 l 1,223,-1
 618 613 l 1,224,-1
 618 579 l 1,225,-1
 916 579 l 1,226,-1
 916 568 l 1,227,-1
 618 568 l 1,228,-1
 618 516 l 1,229,-1
 640 521 l 1,230,-1
 641 521 l 2,231,232
 650 521 650 521 650 512 c 2,233,-1
 650 473 l 2,234,235
 650 466 650 466 643 464 c 2,236,-1
 618 460 l 1,237,-1
 618 415 l 1,238,-1
 916 415 l 1,239,-1
 916 404 l 1,240,-1
 618 404 l 1,241,-1
 618 353 l 1,242,-1
 640 357 l 1,243,-1
 641 357 l 2,244,245
 650 357 650 357 650 348 c 2,246,-1
 650 310 l 2,247,248
 650 302 650 302 643 300 c 2,249,-1
 618 296 l 1,250,-1
 618 251 l 1,251,-1
 687 251 l 1,252,-1
 688 251 l 1,253,-1
 688 347 l 1,254,-1
 706 347 l 1,255,-1
 706 255 l 1,256,-1
 764 267 l 1,257,-1
 764 368 l 1,258,-1
 782 368 l 1,259,-1
 782 271 l 1,260,-1
 804 275 l 1,261,-1
 805 275 l 2,262,263
 814 275 814 275 814 266 c 2,264,-1
 814 251 l 1,265,-1
 916 251 l 1,266,-1
 916 241 l 1,267,-1
 814 241 l 1,268,-1
 814 228 l 2,269,270
 814 221 814 221 807 219 c 2,271,-1
 782 214 l 1,272,-1
 782 107 l 1,273,-1
 804 111 l 1,274,-1
 805 111 l 2,275,276
 814 111 814 111 814 102 c 2,277,-1
 814 87 l 1,278,-1
 916 87 l 1,279,-1
 916 77 l 1,280,-1
 814 77 l 1,281,-1
 814 64 l 2,282,283
 814 57 814 57 807 55 c 2,284,-1
 782 50 l 1,285,-1
 782 -45 l 1,286,-1
 764 -45 l 1,287,-1
 764 46 l 1,288,-1
 706 35 l 1,289,-1
 706 -66 l 1,290,-1
 688 -66 l 1,291,-1
 688 31 l 1,292,-1
 666 26 l 1,293,-1
 665 26 l 2,294,295
 655 26 655 26 655 35 c 2,296,-1
 655 73 l 2,297,298
 655 76 655 76 656 77 c 1,299,-1
 0 77 l 1,300,-1
 0 87 l 1,301,-1
 687 87 l 1,302,-1
 688 87 l 1,303,-1
 688 195 l 1,304,-1
 666 190 l 1,305,-1
 665 190 l 2,306,307
 655 190 655 190 655 199 c 2,308,-1
 655 236 l 1,309,-1
 655 237 l 2,310,311
 655 240 655 240 656 241 c 1,312,-1
 618 241 l 1,313,-1
 618 200 l 1,314,-1
 600 200 l 1,315,-1
 600 241 l 1,316,-1
 542 241 l 1,317,-1
 542 180 l 1,318,-1
 524 180 l 1,319,-1
 524 241 l 1,102,-1
542 404 m 1,320,-1
 542 336 l 1,321,-1
 600 349 l 1,322,-1
 600 404 l 1,323,-1
 542 404 l 1,320,-1
542 415 m 1,324,-1
 600 415 l 1,325,-1
 600 456 l 1,326,-1
 542 444 l 1,327,-1
 542 415 l 1,324,-1
215 254 m 1,328,-1
 273 267 l 1,329,-1
 273 374 l 1,330,-1
 215 362 l 1,331,-1
 215 254 l 1,328,-1
378 582 m 1,332,-1
 436 594 l 1,333,-1
 436 702 l 1,334,-1
 378 690 l 1,335,-1
 378 582 l 1,332,-1
764 210 m 1,336,-1
 706 198 l 1,337,-1
 706 90 l 1,338,-1
 764 103 l 1,339,-1
 764 210 l 1,336,-1
EndSplineSet
EndChar

StartChar: Atilde
Encoding: 195 195 56
Width: 51
GlyphClass: 1
Flags: W
LayerCount: 2
Fore
SplineSet
0 742 m 1,0,-1
 102 742 l 1,1,-1
 102 732 l 1,2,-1
 0 732 l 1,3,-1
 0 742 l 1,0,-1
0 579 m 1,4,-1
 102 579 l 1,5,-1
 102 568 l 1,6,-1
 0 568 l 1,7,-1
 0 579 l 1,4,-1
0 415 m 1,8,-1
 102 415 l 1,9,-1
 102 404 l 1,10,-1
 0 404 l 1,11,-1
 0 415 l 1,8,-1
0 251 m 1,12,-1
 102 251 l 1,13,-1
 102 241 l 1,14,-1
 0 241 l 1,15,-1
 0 251 l 1,12,-1
0 87 m 1,16,-1
 102 87 l 1,17,-1
 102 77 l 1,18,-1
 0 77 l 1,19,-1
 0 87 l 1,16,-1
EndSplineSet
EndChar

StartChar: Adieresis
Encoding: 196 196 57
Width: 373
GlyphClass: 1
Flags: W
LayerCount: 2
Fore
SplineSet
0 742 m 1,0,-1
 425 742 l 1,1,-1
 425 732 l 1,2,-1
 0 732 l 1,3,-1
 0 742 l 1,0,-1
0 87 m 1,4,-1
 425 87 l 1,5,-1
 425 77 l 1,6,-1
 0 77 l 1,7,-1
 0 87 l 1,4,-1
51 415 m 1,8,-1
 109 415 l 1,9,-1
 109 456 l 1,10,-1
 51 444 l 1,11,-1
 51 415 l 1,8,-1
109 568 m 1,12,-1
 51 568 l 1,13,-1
 51 500 l 1,14,-1
 109 512 l 1,15,-1
 109 568 l 1,12,-1
109 579 m 1,16,-1
 109 620 l 1,17,-1
 51 608 l 1,18,-1
 51 579 l 1,19,-1
 109 579 l 1,16,-1
127 568 m 1,20,-1
 127 516 l 1,21,-1
 148 521 l 1,22,-1
 150 521 l 2,23,24
 159 521 159 521 159 512 c 2,25,-1
 159 473 l 2,26,27
 159 466 159 466 152 464 c 2,28,-1
 127 460 l 1,29,-1
 127 415 l 1,30,-1
 195 415 l 1,31,-1
 196 415 l 1,32,-1
 196 511 l 1,33,-1
 215 511 l 1,34,-1
 215 419 l 1,35,-1
 273 431 l 1,36,-1
 273 531 l 1,37,-1
 291 531 l 1,38,-1
 291 435 l 1,39,-1
 312 439 l 1,40,-1
 313 439 l 2,41,42
 323 439 323 439 323 430 c 2,43,-1
 323 415 l 1,44,-1
 425 415 l 1,45,-1
 425 404 l 1,46,-1
 323 404 l 1,47,-1
 323 392 l 2,48,49
 323 384 323 384 315 382 c 2,50,-1
 291 378 l 1,51,-1
 291 271 l 1,52,-1
 312 275 l 1,53,-1
 313 275 l 2,54,55
 323 275 323 275 323 266 c 2,56,-1
 323 251 l 1,57,-1
 425 251 l 1,58,-1
 425 241 l 1,59,-1
 323 241 l 1,60,-1
 323 228 l 2,61,62
 323 221 323 221 315 219 c 2,63,-1
 291 214 l 1,64,-1
 291 118 l 1,65,-1
 273 118 l 1,66,-1
 273 210 l 1,67,-1
 215 198 l 1,68,-1
 215 98 l 1,69,-1
 196 98 l 1,70,-1
 196 194 l 1,71,-1
 175 190 l 1,72,-1
 173 190 l 2,73,74
 164 190 164 190 164 199 c 2,75,-1
 164 237 l 2,76,77
 164 240 164 240 165 241 c 1,78,-1
 0 241 l 1,79,-1
 0 251 l 1,80,-1
 195 251 l 1,81,-1
 196 251 l 1,82,-1
 196 358 l 1,83,-1
 175 354 l 1,84,-1
 173 354 l 2,85,86
 164 354 164 354 164 363 c 2,87,-1
 164 399 l 1,88,-1
 164 401 l 2,89,90
 164 403 164 403 165 404 c 1,91,-1
 127 404 l 1,92,-1
 127 364 l 1,93,-1
 109 364 l 1,94,-1
 109 404 l 1,95,-1
 51 404 l 1,96,-1
 51 343 l 1,97,-1
 33 343 l 1,98,-1
 33 404 l 1,99,-1
 0 404 l 1,100,-1
 0 415 l 1,101,-1
 33 415 l 1,102,-1
 33 440 l 1,103,-1
 11 436 l 1,104,-1
 9 436 l 2,105,106
 0 436 0 436 0 445 c 2,107,-1
 0 483 l 2,108,109
 0 490 0 490 7 492 c 2,110,-1
 33 497 l 1,111,-1
 33 568 l 1,112,-1
 0 568 l 1,113,-1
 0 579 l 1,114,-1
 33 579 l 1,115,-1
 33 604 l 1,116,-1
 11 600 l 1,117,-1
 9 600 l 2,118,119
 0 600 0 600 0 609 c 2,120,-1
 0 645 l 1,121,-1
 0 646 l 2,122,123
 0 654 0 654 7 656 c 2,124,-1
 33 661 l 1,125,-1
 33 756 l 1,126,-1
 51 756 l 1,127,-1
 51 665 l 1,128,-1
 109 676 l 1,129,-1
 109 777 l 1,130,-1
 127 777 l 1,131,-1
 127 680 l 1,132,-1
 148 685 l 1,133,-1
 150 685 l 2,134,135
 159 685 159 685 159 676 c 2,136,-1
 159 637 l 2,137,138
 159 630 159 630 152 628 c 2,139,-1
 127 624 l 1,140,-1
 127 579 l 1,141,-1
 425 579 l 1,142,-1
 425 568 l 1,143,-1
 127 568 l 1,20,-1
215 254 m 1,144,-1
 273 267 l 1,145,-1
 273 374 l 1,146,-1
 215 362 l 1,147,-1
 215 254 l 1,144,-1
EndSplineSet
EndChar

StartChar: Aring
Encoding: 197 197 58
Width: 701
GlyphClass: 1
Flags: W
LayerCount: 2
Fore
SplineSet
378 582 m 1,0,-1
 436 594 l 1,1,-1
 436 702 l 1,2,-1
 378 690 l 1,3,-1
 378 582 l 1,0,-1
215 254 m 1,4,-1
 273 267 l 1,5,-1
 273 374 l 1,6,-1
 215 362 l 1,7,-1
 215 254 l 1,4,-1
542 415 m 1,8,-1
 600 415 l 1,9,-1
 600 456 l 1,10,-1
 542 444 l 1,11,-1
 542 415 l 1,8,-1
542 404 m 1,12,-1
 542 336 l 1,13,-1
 600 349 l 1,14,-1
 600 404 l 1,15,-1
 542 404 l 1,12,-1
524 241 m 1,16,-1
 323 241 l 1,17,-1
 323 228 l 2,18,19
 323 221 323 221 315 219 c 2,20,-1
 291 214 l 1,21,-1
 291 118 l 1,22,-1
 273 118 l 1,23,-1
 273 210 l 1,24,-1
 215 198 l 1,25,-1
 215 98 l 1,26,-1
 196 98 l 1,27,-1
 196 194 l 1,28,-1
 175 190 l 1,29,-1
 173 190 l 2,30,31
 164 190 164 190 164 199 c 2,32,-1
 164 237 l 2,33,34
 164 240 164 240 165 241 c 1,35,-1
 0 241 l 1,36,-1
 0 251 l 1,37,-1
 195 251 l 1,38,-1
 196 251 l 1,39,-1
 196 358 l 1,40,-1
 175 354 l 1,41,-1
 173 354 l 2,42,43
 164 354 164 354 164 363 c 2,44,-1
 164 399 l 1,45,-1
 164 401 l 2,46,47
 164 403 164 403 165 404 c 1,48,-1
 127 404 l 1,49,-1
 127 364 l 1,50,-1
 109 364 l 1,51,-1
 109 404 l 1,52,-1
 51 404 l 1,53,-1
 51 343 l 1,54,-1
 33 343 l 1,55,-1
 33 404 l 1,56,-1
 0 404 l 1,57,-1
 0 415 l 1,58,-1
 33 415 l 1,59,-1
 33 440 l 1,60,-1
 11 436 l 1,61,-1
 9 436 l 2,62,63
 0 436 0 436 0 445 c 2,64,-1
 0 483 l 2,65,66
 0 490 0 490 7 492 c 2,67,-1
 33 497 l 1,68,-1
 33 568 l 1,69,-1
 0 568 l 1,70,-1
 0 579 l 1,71,-1
 33 579 l 1,72,-1
 33 604 l 1,73,-1
 11 600 l 1,74,-1
 9 600 l 2,75,76
 0 600 0 600 0 609 c 2,77,-1
 0 645 l 1,78,-1
 0 646 l 2,79,80
 0 654 0 654 7 656 c 2,81,-1
 33 661 l 1,82,-1
 33 756 l 1,83,-1
 51 756 l 1,84,-1
 51 665 l 1,85,-1
 109 676 l 1,86,-1
 109 777 l 1,87,-1
 127 777 l 1,88,-1
 127 680 l 1,89,-1
 148 685 l 1,90,-1
 150 685 l 2,91,92
 159 685 159 685 159 676 c 2,93,-1
 159 637 l 2,94,95
 159 630 159 630 152 628 c 2,96,-1
 127 624 l 1,97,-1
 127 579 l 1,98,-1
 359 579 l 1,99,-1
 360 579 l 1,100,-1
 360 686 l 1,101,-1
 339 682 l 1,102,-1
 337 682 l 2,103,104
 328 682 328 682 328 691 c 2,105,-1
 328 727 l 1,106,-1
 328 728 l 2,107,108
 328 735 328 735 335 737 c 2,109,-1
 360 743 l 1,110,-1
 360 838 l 1,111,-1
 378 838 l 1,112,-1
 378 747 l 1,113,-1
 436 758 l 1,114,-1
 436 859 l 1,115,-1
 455 859 l 1,116,-1
 455 762 l 1,117,-1
 476 767 l 1,118,-1
 477 767 l 2,119,120
 486 767 486 767 486 758 c 2,121,-1
 486 719 l 2,122,123
 486 712 486 712 479 710 c 2,124,-1
 455 706 l 1,125,-1
 455 598 l 1,126,-1
 476 603 l 1,127,-1
 477 603 l 2,128,129
 486 603 486 603 486 594 c 2,130,-1
 486 579 l 1,131,-1
 524 579 l 1,132,-1
 524 593 l 1,133,-1
 542 593 l 1,134,-1
 542 579 l 1,135,-1
 600 579 l 1,136,-1
 600 613 l 1,137,-1
 618 613 l 1,138,-1
 618 579 l 1,139,-1
 753 579 l 1,140,-1
 753 568 l 1,141,-1
 618 568 l 1,142,-1
 618 516 l 1,143,-1
 640 521 l 1,144,-1
 641 521 l 2,145,146
 650 521 650 521 650 512 c 2,147,-1
 650 473 l 2,148,149
 650 466 650 466 643 464 c 2,150,-1
 618 460 l 1,151,-1
 618 415 l 1,152,-1
 753 415 l 1,153,-1
 753 404 l 1,154,-1
 618 404 l 1,155,-1
 618 353 l 1,156,-1
 640 357 l 1,157,-1
 641 357 l 2,158,159
 650 357 650 357 650 348 c 2,160,-1
 650 310 l 2,161,162
 650 302 650 302 643 300 c 2,163,-1
 618 296 l 1,164,-1
 618 251 l 1,165,-1
 753 251 l 1,166,-1
 753 241 l 1,167,-1
 618 241 l 1,168,-1
 618 200 l 1,169,-1
 600 200 l 1,170,-1
 600 241 l 1,171,-1
 542 241 l 1,172,-1
 542 180 l 1,173,-1
 524 180 l 1,174,-1
 524 241 l 1,16,-1
542 251 m 1,175,-1
 600 251 l 1,176,-1
 600 292 l 1,177,-1
 542 280 l 1,178,-1
 542 251 l 1,175,-1
524 251 m 1,179,-1
 524 276 l 1,180,-1
 503 272 l 1,181,-1
 501 272 l 2,182,183
 492 272 492 272 492 281 c 2,184,-1
 492 319 l 2,185,186
 492 326 492 326 499 328 c 2,187,-1
 524 333 l 1,188,-1
 524 404 l 1,189,-1
 323 404 l 1,190,-1
 323 392 l 2,191,192
 323 384 323 384 315 382 c 2,193,-1
 291 378 l 1,194,-1
 291 271 l 1,195,-1
 312 275 l 1,196,-1
 313 275 l 2,197,198
 323 275 323 275 323 266 c 2,199,-1
 323 251 l 1,200,-1
 524 251 l 1,179,-1
524 415 m 1,201,-1
 524 440 l 1,202,-1
 503 436 l 1,203,-1
 501 436 l 2,204,205
 492 436 492 436 492 445 c 2,206,-1
 492 481 l 1,207,-1
 492 483 l 2,208,209
 492 490 492 490 499 492 c 2,210,-1
 524 497 l 1,211,-1
 524 568 l 1,212,-1
 486 568 l 1,213,-1
 486 555 l 2,214,215
 486 548 486 548 479 546 c 2,216,-1
 455 542 l 1,217,-1
 455 446 l 1,218,-1
 436 446 l 1,219,-1
 436 538 l 1,220,-1
 378 526 l 1,221,-1
 378 425 l 1,222,-1
 360 425 l 1,223,-1
 360 522 l 1,224,-1
 339 518 l 1,225,-1
 337 518 l 2,226,227
 328 518 328 518 328 527 c 2,228,-1
 328 564 l 2,229,230
 328 567 328 567 329 568 c 1,231,-1
 127 568 l 1,232,-1
 127 516 l 1,233,-1
 148 521 l 1,234,-1
 150 521 l 2,235,236
 159 521 159 521 159 512 c 2,237,-1
 159 473 l 2,238,239
 159 466 159 466 152 464 c 2,240,-1
 127 460 l 1,241,-1
 127 415 l 1,242,-1
 195 415 l 1,243,-1
 196 415 l 1,244,-1
 196 511 l 1,245,-1
 215 511 l 1,246,-1
 215 419 l 1,247,-1
 273 431 l 1,248,-1
 273 531 l 1,249,-1
 291 531 l 1,250,-1
 291 435 l 1,251,-1
 312 439 l 1,252,-1
 313 439 l 2,253,254
 323 439 323 439 323 430 c 2,255,-1
 323 415 l 1,256,-1
 524 415 l 1,201,-1
600 568 m 1,257,-1
 542 568 l 1,258,-1
 542 501 l 1,259,-1
 600 513 l 1,260,-1
 600 568 l 1,257,-1
109 579 m 1,261,-1
 109 620 l 1,262,-1
 51 608 l 1,263,-1
 51 579 l 1,264,-1
 109 579 l 1,261,-1
109 568 m 1,265,-1
 51 568 l 1,266,-1
 51 500 l 1,267,-1
 109 512 l 1,268,-1
 109 568 l 1,265,-1
51 415 m 1,269,-1
 109 415 l 1,270,-1
 109 456 l 1,271,-1
 51 444 l 1,272,-1
 51 415 l 1,269,-1
0 87 m 1,273,-1
 753 87 l 1,274,-1
 753 77 l 1,275,-1
 0 77 l 1,276,-1
 0 87 l 1,273,-1
0 742 m 1,277,-1
 753 742 l 1,278,-1
 753 732 l 1,279,-1
 0 732 l 1,280,-1
 0 742 l 1,277,-1
EndSplineSet
EndChar

StartChar: AE
Encoding: 198 198 59
Width: 174
GlyphClass: 1
Flags: W
LayerCount: 2
Fore
SplineSet
0 742 m 1,0,-1
 225 742 l 1,1,-1
 225 732 l 1,2,-1
 0 732 l 1,3,-1
 0 742 l 1,0,-1
0 87 m 1,4,-1
 225 87 l 1,5,-1
 225 77 l 1,6,-1
 0 77 l 1,7,-1
 0 87 l 1,4,-1
0 251 m 1,8,-1
 2 251 l 1,9,-1
 1 404 l 1,10,-1
 0 404 l 1,11,-1
 0 415 l 1,12,-1
 0 517 l 2,13,14
 0 526 0 526 8 526 c 2,15,-1
 15 526 l 2,16,17
 24 526 24 526 24 517 c 2,18,-1
 23 415 l 1,19,-1
 225 415 l 1,20,-1
 225 404 l 1,21,-1
 23 404 l 1,22,-1
 22 323 l 1,23,24
 38 345 38 345 73 345 c 0,25,26
 114 345 114 345 122 299 c 0,27,28
 123 294 123 294 123 284 c 0,29,30
 123 269 123 269 118 251 c 1,31,-1
 225 251 l 1,32,-1
 225 241 l 1,33,-1
 114 241 l 1,34,35
 105 219 105 219 91 203 c 0,36,37
 58 166 58 166 16 145 c 0,38,39
 15 144 15 144 11 144 c 0,40,41
 3 144 3 144 3 153 c 2,42,-1
 2 241 l 1,43,-1
 0 241 l 1,44,-1
 0 251 l 1,8,-1
0 579 m 1,45,-1
 225 579 l 1,46,-1
 225 568 l 1,47,-1
 0 568 l 1,48,-1
 0 579 l 1,45,-1
21 241 m 1,49,-1
 20 174 l 1,50,51
 51 197 51 197 62 215 c 0,52,53
 68 224 68 224 74 241 c 1,54,-1
 21 241 l 1,49,-1
21 251 m 1,55,-1
 77 251 l 1,56,57
 80 268 80 268 80 275 c 2,58,-1
 80 282 l 2,59,60
 80 315 80 315 56 315 c 0,61,62
 40 315 40 315 31.5 307 c 128,-1,63
 23 299 23 299 22 292 c 2,64,-1
 21 251 l 1,55,-1
EndSplineSet
EndChar

StartChar: Ccedilla
Encoding: 199 199 60
Width: 209
GlyphClass: 1
Flags: W
LayerCount: 2
Fore
SplineSet
0 87 m 1,0,-1
 261 87 l 1,1,-1
 261 77 l 1,2,-1
 0 77 l 1,3,-1
 0 87 l 1,0,-1
0 251 m 1,4,-1
 261 251 l 1,5,-1
 261 241 l 1,6,-1
 0 241 l 1,7,-1
 0 251 l 1,4,-1
51 415 m 1,8,-1
 109 415 l 1,9,-1
 109 456 l 1,10,-1
 51 444 l 1,11,-1
 51 415 l 1,8,-1
109 568 m 1,12,-1
 51 568 l 1,13,-1
 51 500 l 1,14,-1
 109 512 l 1,15,-1
 109 568 l 1,12,-1
109 579 m 1,16,-1
 109 620 l 1,17,-1
 51 608 l 1,18,-1
 51 579 l 1,19,-1
 109 579 l 1,16,-1
261 742 m 1,20,-1
 261 732 l 1,21,-1
 0 732 l 1,22,-1
 0 742 l 1,23,-1
 261 742 l 1,20,-1
261 415 m 1,24,-1
 261 404 l 1,25,-1
 127 404 l 1,26,-1
 127 364 l 1,27,-1
 109 364 l 1,28,-1
 109 404 l 1,29,-1
 51 404 l 1,30,-1
 51 343 l 1,31,-1
 33 343 l 1,32,-1
 33 404 l 1,33,-1
 0 404 l 1,34,-1
 0 415 l 1,35,-1
 33 415 l 1,36,-1
 33 440 l 1,37,-1
 11 436 l 1,38,-1
 9 436 l 2,39,40
 0 436 0 436 0 445 c 2,41,-1
 0 483 l 2,42,43
 0 490 0 490 7 492 c 2,44,-1
 33 497 l 1,45,-1
 33 568 l 1,46,-1
 0 568 l 1,47,-1
 0 579 l 1,48,-1
 33 579 l 1,49,-1
 33 604 l 1,50,-1
 11 600 l 1,51,-1
 9 600 l 2,52,53
 0 600 0 600 0 609 c 2,54,-1
 0 645 l 1,55,-1
 0 646 l 2,56,57
 0 654 0 654 7 656 c 2,58,-1
 33 661 l 1,59,-1
 33 756 l 1,60,-1
 51 756 l 1,61,-1
 51 665 l 1,62,-1
 109 676 l 1,63,-1
 109 777 l 1,64,-1
 127 777 l 1,65,-1
 127 680 l 1,66,-1
 148 685 l 1,67,-1
 150 685 l 2,68,69
 159 685 159 685 159 676 c 2,70,-1
 159 637 l 2,71,72
 159 630 159 630 152 628 c 2,73,-1
 127 624 l 1,74,-1
 127 579 l 1,75,-1
 261 579 l 1,76,-1
 261 568 l 1,77,-1
 127 568 l 1,78,-1
 127 516 l 1,79,-1
 148 521 l 1,80,-1
 150 521 l 2,81,82
 159 521 159 521 159 512 c 2,83,-1
 159 473 l 2,84,85
 159 466 159 466 152 464 c 2,86,-1
 127 460 l 1,87,-1
 127 415 l 1,88,-1
 261 415 l 1,24,-1
EndSplineSet
EndChar

StartChar: Eacute
Encoding: 201 201 61
Width: 665
GlyphClass: 1
Flags: W
LayerCount: 2
Fore
SplineSet
329 251 m 1,0,-1
 328 404 l 1,1,-1
 203 404 l 2,2,3
 197 401 197 401 191.5 397.5 c 128,-1,4
 186 394 186 394 183 392 c 2,5,-1
 180 391 l 2,6,7
 179 390 179 390 175 390 c 0,8,9
 167 390 167 390 167 398 c 2,10,-1
 166 404 l 1,11,-1
 23 404 l 1,12,-1
 22 323 l 1,13,14
 38 345 38 345 73 345 c 0,15,16
 114 345 114 345 122 299 c 0,17,18
 123 294 123 294 123 284 c 0,19,20
 123 269 123 269 118 251 c 1,21,-1
 329 251 l 1,0,-1
407 193 m 2,22,-1
 407 200 l 2,23,24
 407 233 407 233 384 233 c 0,25,26
 368 233 368 233 359 224.5 c 128,-1,27
 350 216 350 216 349 210 c 2,28,-1
 347 92 l 1,29,30
 380 117 380 117 390 133 c 0,31,32
 407 159 407 159 407 193 c 2,22,-1
21 251 m 1,33,-1
 77 251 l 1,34,35
 80 268 80 268 80 275 c 2,36,-1
 80 282 l 2,37,38
 80 315 80 315 56 315 c 0,39,40
 40 315 40 315 31.5 307 c 128,-1,41
 23 299 23 299 22 292 c 2,42,-1
 21 251 l 1,33,-1
21 241 m 1,43,-1
 20 174 l 1,44,45
 51 197 51 197 62 215 c 0,46,47
 68 224 68 224 74 241 c 1,48,-1
 21 241 l 1,43,-1
0 87 m 1,49,-1
 330 87 l 1,50,-1
 329 241 l 1,51,-1
 114 241 l 1,52,53
 105 219 105 219 91 203 c 0,54,55
 58 166 58 166 16 145 c 0,56,57
 15 144 15 144 11 144 c 0,58,59
 3 144 3 144 3 153 c 2,60,-1
 2 241 l 1,61,-1
 0 241 l 1,62,-1
 0 251 l 1,63,-1
 2 251 l 1,64,-1
 1 404 l 1,65,-1
 0 404 l 1,66,-1
 0 415 l 1,67,-1
 0 517 l 2,68,69
 0 526 0 526 8 526 c 2,70,-1
 15 526 l 2,71,72
 24 526 24 526 24 517 c 2,73,-1
 23 415 l 1,74,-1
 166 415 l 1,75,-1
 165 568 l 1,76,-1
 0 568 l 1,77,-1
 0 579 l 1,78,-1
 165 579 l 1,79,-1
 163 763 l 2,80,81
 163 772 163 772 172 772 c 2,82,-1
 179 772 l 2,83,84
 188 772 188 772 188 763 c 2,85,-1
 185 579 l 1,86,-1
 197 579 l 1,87,88
 215 591 215 591 236 591 c 0,89,90
 255 591 255 591 269 579 c 1,91,-1
 492 579 l 1,92,-1
 491 681 l 2,93,94
 491 690 491 690 500 690 c 2,95,-1
 507 690 l 2,96,97
 515 690 515 690 515 681 c 2,98,-1
 514 579 l 1,99,-1
 717 579 l 1,100,-1
 717 568 l 1,101,-1
 514 568 l 1,102,-1
 513 486 l 1,103,104
 530 509 530 509 564 509 c 0,105,106
 605 509 605 509 613 463 c 0,107,108
 614 458 614 458 614 448 c 0,109,110
 614 433 614 433 609 415 c 1,111,-1
 717 415 l 1,112,-1
 717 404 l 1,113,-1
 606 404 l 1,114,115
 599 385 599 385 582 367 c 0,116,117
 548 329 548 329 508 309 c 0,118,119
 507 308 507 308 503 308 c 0,120,121
 494 308 494 308 494 316 c 2,122,-1
 493 404 l 1,123,-1
 351 404 l 1,124,-1
 349 251 l 1,125,-1
 361 251 l 1,126,127
 379 263 379 263 400 263 c 0,128,129
 419 263 419 263 433 251 c 1,130,-1
 717 251 l 1,131,-1
 717 241 l 1,132,-1
 441 241 l 1,133,134
 447 230 447 230 449 217 c 0,135,136
 451 207 451 207 451 202 c 0,137,138
 451 158 451 158 418 121 c 0,139,140
 403 104 403 104 381 87 c 1,141,-1
 717 87 l 1,142,-1
 717 77 l 1,143,-1
 367 77 l 2,144,145
 362 74 362 74 356 70.5 c 128,-1,146
 350 67 350 67 347 65 c 2,147,-1
 344 63 l 2,148,149
 343 62 343 62 339 62 c 0,150,151
 330 62 330 62 330 71 c 2,152,-1
 330 77 l 1,153,-1
 0 77 l 1,154,-1
 0 87 l 1,49,-1
0 742 m 1,155,-1
 717 742 l 1,156,-1
 717 732 l 1,157,-1
 0 732 l 1,158,-1
 0 742 l 1,155,-1
244 521 m 2,159,-1
 244 528 l 2,160,161
 244 561 244 561 220 561 c 0,162,163
 204 561 204 561 195 552.5 c 128,-1,164
 186 544 186 544 185 538 c 2,165,-1
 184 420 l 1,166,167
 215 443 215 443 226 461 c 0,168,169
 244 489 244 489 244 521 c 2,159,-1
512 404 m 1,170,-1
 511 338 l 1,171,172
 544 363 544 363 554 379 c 0,173,174
 561 390 561 390 566 404 c 1,175,-1
 512 404 l 1,170,-1
512 415 m 1,176,-1
 568 415 l 1,177,178
 571 432 571 432 571 439 c 2,179,-1
 571 446 l 2,180,181
 571 479 571 479 548 479 c 0,182,183
 532 479 532 479 523 470.5 c 128,-1,184
 514 462 514 462 513 456 c 2,185,-1
 512 415 l 1,176,-1
493 415 m 1,186,-1
 492 568 l 1,187,-1
 277 568 l 1,188,189
 285 554 285 554 286 545 c 0,190,191
 287 540 287 540 287 529 c 0,192,193
 287 485 287 485 255 449 c 0,194,195
 242 434 242 434 217 415 c 1,196,-1
 327 415 l 1,197,-1
 327 436 l 2,198,199
 327 444 327 444 336 444 c 2,200,-1
 343 444 l 2,201,202
 352 444 352 444 352 436 c 2,203,-1
 351 415 l 1,204,-1
 493 415 l 1,186,-1
EndSplineSet
EndChar

StartChar: Ecircumflex
Encoding: 202 202 62
Width: 337
GlyphClass: 1
Flags: W
LayerCount: 2
Fore
SplineSet
21 251 m 1,0,-1
 77 251 l 1,1,2
 80 268 80 268 80 275 c 2,3,-1
 80 282 l 2,4,5
 80 315 80 315 56 315 c 0,6,7
 40 315 40 315 31.5 307 c 128,-1,8
 23 299 23 299 22 292 c 2,9,-1
 21 251 l 1,0,-1
21 241 m 1,10,-1
 20 174 l 1,11,12
 51 197 51 197 62 215 c 0,13,14
 68 224 68 224 74 241 c 1,15,-1
 21 241 l 1,10,-1
0 579 m 1,16,-1
 165 579 l 1,17,-1
 163 763 l 2,18,19
 163 772 163 772 172 772 c 2,20,-1
 179 772 l 2,21,22
 188 772 188 772 188 763 c 2,23,-1
 185 579 l 1,24,-1
 197 579 l 1,25,26
 215 591 215 591 236 591 c 0,27,28
 255 591 255 591 269 579 c 1,29,-1
 389 579 l 1,30,-1
 389 568 l 1,31,-1
 277 568 l 1,32,33
 285 554 285 554 286 545 c 0,34,35
 287 540 287 540 287 529 c 0,36,37
 287 485 287 485 255 449 c 0,38,39
 242 434 242 434 217 415 c 1,40,-1
 389 415 l 1,41,-1
 389 404 l 1,42,-1
 203 404 l 2,43,44
 197 401 197 401 191.5 397.5 c 128,-1,45
 186 394 186 394 183 392 c 2,46,-1
 180 391 l 2,47,48
 179 390 179 390 175 390 c 0,49,50
 167 390 167 390 167 398 c 2,51,-1
 166 404 l 1,52,-1
 23 404 l 1,53,-1
 22 323 l 1,54,55
 38 345 38 345 73 345 c 0,56,57
 114 345 114 345 122 299 c 0,58,59
 123 294 123 294 123 284 c 0,60,61
 123 269 123 269 118 251 c 1,62,-1
 389 251 l 1,63,-1
 389 241 l 1,64,-1
 114 241 l 1,65,66
 105 219 105 219 91 203 c 0,67,68
 58 166 58 166 16 145 c 0,69,70
 15 144 15 144 11 144 c 0,71,72
 3 144 3 144 3 153 c 2,73,-1
 2 241 l 1,74,-1
 0 241 l 1,75,-1
 0 251 l 1,76,-1
 2 251 l 1,77,-1
 1 404 l 1,78,-1
 0 404 l 1,79,-1
 0 415 l 1,80,-1
 0 517 l 2,81,82
 0 526 0 526 8 526 c 2,83,-1
 15 526 l 2,84,85
 24 526 24 526 24 517 c 2,86,-1
 23 415 l 1,87,-1
 166 415 l 1,88,-1
 165 568 l 1,89,-1
 0 568 l 1,90,-1
 0 579 l 1,16,-1
0 742 m 1,91,-1
 389 742 l 1,92,-1
 389 732 l 1,93,-1
 0 732 l 1,94,-1
 0 742 l 1,91,-1
0 87 m 1,95,-1
 389 87 l 1,96,-1
 389 77 l 1,97,-1
 0 77 l 1,98,-1
 0 87 l 1,95,-1
244 521 m 2,99,-1
 244 528 l 2,100,101
 244 561 244 561 220 561 c 0,102,103
 204 561 204 561 195 552.5 c 128,-1,104
 186 544 186 544 185 538 c 2,105,-1
 184 420 l 1,106,107
 215 443 215 443 226 461 c 0,108,109
 244 489 244 489 244 521 c 2,99,-1
EndSplineSet
EndChar

StartChar: Edieresis
Encoding: 203 203 63
Width: 1157
GlyphClass: 1
Flags: W
LayerCount: 2
Fore
SplineSet
1074 -43 m 0,0,1
 1043 -78 1043 -78 999 -100 c 0,2,3
 997 -102 997 -102 994 -102 c 0,4,5
 986 -102 986 -102 986 -93 c 2,6,-1
 984 77 l 1,7,-1
 770 77 l 1,8,9
 762 57 762 57 746 39 c 0,10,11
 713 2 713 2 671 -19 c 0,12,13
 670 -20 670 -20 667 -20 c 0,14,15
 658 -20 658 -20 658 -11 c 2,16,-1
 657 77 l 1,17,-1
 367 77 l 2,18,19
 362 74 362 74 356 70.5 c 128,-1,20
 350 67 350 67 347 65 c 2,21,-1
 344 63 l 2,22,23
 343 62 343 62 339 62 c 0,24,25
 330 62 330 62 330 71 c 2,26,-1
 330 77 l 1,27,-1
 0 77 l 1,28,-1
 0 87 l 1,29,-1
 330 87 l 1,30,-1
 329 241 l 1,31,-1
 114 241 l 1,32,33
 105 219 105 219 91 203 c 0,34,35
 58 166 58 166 16 145 c 0,36,37
 15 144 15 144 11 144 c 0,38,39
 3 144 3 144 3 153 c 2,40,-1
 2 241 l 1,41,-1
 0 241 l 1,42,-1
 0 251 l 1,43,-1
 2 251 l 1,44,-1
 1 404 l 1,45,-1
 0 404 l 1,46,-1
 0 415 l 1,47,-1
 0 517 l 2,48,49
 0 526 0 526 8 526 c 2,50,-1
 15 526 l 2,51,52
 24 526 24 526 24 517 c 2,53,-1
 23 415 l 1,54,-1
 166 415 l 1,55,-1
 165 568 l 1,56,-1
 0 568 l 1,57,-1
 0 579 l 1,58,-1
 165 579 l 1,59,-1
 163 763 l 2,60,61
 163 772 163 772 172 772 c 2,62,-1
 179 772 l 2,63,64
 188 772 188 772 188 763 c 2,65,-1
 185 579 l 1,66,-1
 197 579 l 1,67,68
 215 591 215 591 236 591 c 0,69,70
 255 591 255 591 269 579 c 1,71,-1
 492 579 l 1,72,-1
 491 681 l 2,73,74
 491 690 491 690 500 690 c 2,75,-1
 507 690 l 2,76,77
 515 690 515 690 515 681 c 2,78,-1
 514 579 l 1,79,-1
 819 579 l 1,80,-1
 819 599 l 2,81,82
 819 608 819 608 827 608 c 2,83,-1
 835 608 l 2,84,85
 843 608 843 608 843 599 c 2,86,-1
 843 579 l 1,87,-1
 1208 579 l 1,88,-1
 1208 568 l 1,89,-1
 843 568 l 1,90,-1
 841 415 l 1,91,-1
 852 415 l 1,92,93
 870 427 870 427 892 427 c 0,94,95
 911 427 911 427 925 415 c 1,96,-1
 1208 415 l 1,97,-1
 1208 404 l 1,98,-1
 933 404 l 1,99,100
 940 393 940 393 941 381 c 0,101,102
 942 376 942 376 942 366 c 0,103,104
 942 321 942 321 910 285 c 0,105,106
 895 268 895 268 873 251 c 1,107,-1
 983 251 l 1,108,-1
 983 272 l 2,109,110
 983 280 983 280 991 280 c 2,111,-1
 998 280 l 2,112,113
 1007 280 1007 280 1007 272 c 2,114,-1
 1007 251 l 1,115,-1
 1208 251 l 1,116,-1
 1208 241 l 1,117,-1
 1007 241 l 1,118,-1
 1005 87 l 1,119,-1
 1016 87 l 1,120,121
 1034 99 1034 99 1056 99 c 0,122,123
 1074 99 1074 99 1088 87 c 1,124,-1
 1208 87 l 1,125,-1
 1208 77 l 1,126,-1
 1097 77 l 1,127,128
 1103 66 1103 66 1105 53 c 0,129,130
 1106 48 1106 48 1106 38 c 0,131,132
 1106 -7 1106 -7 1074 -43 c 0,0,1
820 415 m 1,133,-1
 819 568 l 1,134,-1
 514 568 l 1,135,-1
 513 486 l 1,136,137
 530 509 530 509 564 509 c 0,138,139
 605 509 605 509 613 463 c 0,140,141
 614 458 614 458 614 448 c 0,142,143
 614 433 614 433 609 415 c 1,144,-1
 820 415 l 1,133,-1
822 251 m 1,145,-1
 820 404 l 1,146,-1
 606 404 l 1,147,148
 599 385 599 385 582 367 c 0,149,150
 548 329 548 329 508 309 c 0,151,152
 507 308 507 308 503 308 c 0,153,154
 494 308 494 308 494 316 c 2,155,-1
 493 404 l 1,156,-1
 351 404 l 1,157,-1
 349 251 l 1,158,-1
 361 251 l 1,159,160
 379 263 379 263 400 263 c 0,161,162
 419 263 419 263 433 251 c 1,163,-1
 656 251 l 1,164,-1
 655 354 l 2,165,166
 655 362 655 362 664 362 c 2,167,-1
 671 362 l 2,168,169
 679 362 679 362 679 354 c 2,170,-1
 678 251 l 1,171,-1
 822 251 l 1,145,-1
899 357 m 2,172,-1
 899 364 l 2,173,174
 899 397 899 397 875 397 c 0,175,176
 859 397 859 397 850.5 389 c 128,-1,177
 842 381 842 381 841 374 c 2,178,-1
 839 256 l 1,179,180
 870 279 870 279 881 297 c 0,181,182
 899 325 899 325 899 357 c 2,172,-1
493 415 m 1,183,-1
 492 568 l 1,184,-1
 277 568 l 1,185,186
 285 554 285 554 286 545 c 0,187,188
 287 540 287 540 287 529 c 0,189,190
 287 485 287 485 255 449 c 0,191,192
 242 434 242 434 217 415 c 1,193,-1
 327 415 l 1,194,-1
 327 436 l 2,195,196
 327 444 327 444 336 444 c 2,197,-1
 343 444 l 2,198,199
 352 444 352 444 352 436 c 2,200,-1
 351 415 l 1,201,-1
 493 415 l 1,183,-1
512 415 m 1,202,-1
 568 415 l 1,203,204
 571 432 571 432 571 439 c 2,205,-1
 571 446 l 2,206,207
 571 479 571 479 548 479 c 0,208,209
 532 479 532 479 523 470.5 c 128,-1,210
 514 462 514 462 513 456 c 2,211,-1
 512 415 l 1,202,-1
512 404 m 1,212,-1
 511 338 l 1,213,214
 544 363 544 363 554 379 c 0,215,216
 561 390 561 390 566 404 c 1,217,-1
 512 404 l 1,212,-1
244 521 m 2,218,-1
 244 528 l 2,219,220
 244 561 244 561 220 561 c 0,221,222
 204 561 204 561 195 552.5 c 128,-1,223
 186 544 186 544 185 538 c 2,224,-1
 184 420 l 1,225,226
 215 443 215 443 226 461 c 0,227,228
 244 489 244 489 244 521 c 2,218,-1
1208 732 m 1,229,-1
 0 732 l 1,230,-1
 0 742 l 1,231,-1
 1208 742 l 1,232,-1
 1208 732 l 1,229,-1
21 241 m 1,233,-1
 20 174 l 1,234,235
 51 197 51 197 62 215 c 0,236,237
 68 224 68 224 74 241 c 1,238,-1
 21 241 l 1,233,-1
21 251 m 1,239,-1
 77 251 l 1,240,241
 80 268 80 268 80 275 c 2,242,-1
 80 282 l 2,243,244
 80 315 80 315 56 315 c 0,245,246
 40 315 40 315 31.5 307 c 128,-1,247
 23 299 23 299 22 292 c 2,248,-1
 21 251 l 1,239,-1
407 193 m 2,249,-1
 407 200 l 2,250,251
 407 233 407 233 384 233 c 0,252,253
 368 233 368 233 359 224.5 c 128,-1,254
 350 216 350 216 349 210 c 2,255,-1
 347 92 l 1,256,257
 380 117 380 117 390 133 c 0,258,259
 407 159 407 159 407 193 c 2,249,-1
329 251 m 1,260,-1
 328 404 l 1,261,-1
 203 404 l 2,262,263
 197 401 197 401 191.5 397.5 c 128,-1,264
 186 394 186 394 183 392 c 2,265,-1
 180 391 l 2,266,267
 179 390 179 390 175 390 c 0,268,269
 167 390 167 390 167 398 c 2,270,-1
 166 404 l 1,271,-1
 23 404 l 1,272,-1
 22 323 l 1,273,274
 38 345 38 345 73 345 c 0,275,276
 114 345 114 345 122 299 c 0,277,278
 123 294 123 294 123 284 c 0,279,280
 123 269 123 269 118 251 c 1,281,-1
 329 251 l 1,260,-1
676 77 m 1,282,-1
 675 10 l 1,283,284
 708 35 708 35 718 51 c 0,285,286
 721 56 721 56 729 77 c 1,287,-1
 676 77 l 1,282,-1
676 87 m 1,288,-1
 732 87 l 1,289,290
 735 104 735 104 735 111 c 2,291,-1
 735 118 l 2,292,293
 735 151 735 151 711 151 c 0,294,295
 695 151 695 151 686.5 143 c 128,-1,296
 678 135 678 135 677 128 c 2,297,-1
 676 87 l 1,288,-1
657 87 m 1,298,-1
 656 241 l 1,299,-1
 441 241 l 1,300,301
 447 230 447 230 449 217 c 0,302,303
 451 207 451 207 451 202 c 0,304,305
 451 158 451 158 418 121 c 0,306,307
 403 104 403 104 381 87 c 1,308,-1
 657 87 l 1,298,-1
1063 29 m 2,309,-1
 1063 36 l 2,310,311
 1063 70 1063 70 1039 70 c 0,312,313
 1024 70 1024 70 1015 61.5 c 128,-1,314
 1006 53 1006 53 1005 46 c 2,315,-1
 1003 -72 l 1,316,317
 1034 -49 1034 -49 1045 -31 c 0,318,319
 1063 -3 1063 -3 1063 29 c 2,309,-1
984 87 m 1,320,-1
 983 241 l 1,321,-1
 858 241 l 2,322,323
 853 238 853 238 847 234.5 c 128,-1,324
 841 231 841 231 838 229 c 2,325,-1
 835 227 l 2,326,327
 834 226 834 226 830 226 c 0,328,329
 822 226 822 226 822 234 c 2,330,-1
 822 241 l 1,331,-1
 678 241 l 1,332,-1
 677 159 l 1,333,334
 694 181 694 181 728 181 c 0,335,336
 769 181 769 181 777 135 c 0,337,338
 778 130 778 130 778 120 c 0,339,340
 778 105 778 105 773 87 c 1,341,-1
 984 87 l 1,320,-1
EndSplineSet
EndChar

StartChar: Igrave
Encoding: 204 204 64
Width: 829
GlyphClass: 1
Flags: W
LayerCount: 2
Fore
SplineSet
493 415 m 1,0,-1
 492 568 l 1,1,-1
 277 568 l 1,2,3
 285 554 285 554 286 545 c 0,4,5
 287 540 287 540 287 529 c 0,6,7
 287 485 287 485 255 449 c 0,8,9
 242 434 242 434 217 415 c 1,10,-1
 327 415 l 1,11,-1
 327 436 l 2,12,13
 327 444 327 444 336 444 c 2,14,-1
 343 444 l 2,15,16
 352 444 352 444 352 436 c 2,17,-1
 351 415 l 1,18,-1
 493 415 l 1,0,-1
512 415 m 1,19,-1
 568 415 l 1,20,21
 571 432 571 432 571 439 c 2,22,-1
 571 446 l 2,23,24
 571 479 571 479 548 479 c 0,25,26
 532 479 532 479 523 470.5 c 128,-1,27
 514 462 514 462 513 456 c 2,28,-1
 512 415 l 1,19,-1
512 404 m 1,29,-1
 511 338 l 1,30,31
 544 363 544 363 554 379 c 0,32,33
 561 390 561 390 566 404 c 1,34,-1
 512 404 l 1,29,-1
244 521 m 2,35,-1
 244 528 l 2,36,37
 244 561 244 561 220 561 c 0,38,39
 204 561 204 561 195 552.5 c 128,-1,40
 186 544 186 544 185 538 c 2,41,-1
 184 420 l 1,42,43
 215 443 215 443 226 461 c 0,44,45
 244 489 244 489 244 521 c 2,35,-1
0 742 m 1,46,-1
 881 742 l 1,47,-1
 881 732 l 1,48,-1
 0 732 l 1,49,-1
 0 742 l 1,46,-1
0 87 m 1,50,-1
 330 87 l 1,51,-1
 329 241 l 1,52,-1
 114 241 l 1,53,54
 105 219 105 219 91 203 c 0,55,56
 58 166 58 166 16 145 c 0,57,58
 15 144 15 144 11 144 c 0,59,60
 3 144 3 144 3 153 c 2,61,-1
 2 241 l 1,62,-1
 0 241 l 1,63,-1
 0 251 l 1,64,-1
 2 251 l 1,65,-1
 1 404 l 1,66,-1
 0 404 l 1,67,-1
 0 415 l 1,68,-1
 0 517 l 2,69,70
 0 526 0 526 8 526 c 2,71,-1
 15 526 l 2,72,73
 24 526 24 526 24 517 c 2,74,-1
 23 415 l 1,75,-1
 166 415 l 1,76,-1
 165 568 l 1,77,-1
 0 568 l 1,78,-1
 0 579 l 1,79,-1
 165 579 l 1,80,-1
 163 763 l 2,81,82
 163 772 163 772 172 772 c 2,83,-1
 179 772 l 2,84,85
 188 772 188 772 188 763 c 2,86,-1
 185 579 l 1,87,-1
 197 579 l 1,88,89
 215 591 215 591 236 591 c 0,90,91
 255 591 255 591 269 579 c 1,92,-1
 492 579 l 1,93,-1
 491 681 l 2,94,95
 491 690 491 690 500 690 c 2,96,-1
 507 690 l 2,97,98
 515 690 515 690 515 681 c 2,99,-1
 514 579 l 1,100,-1
 881 579 l 1,101,-1
 881 568 l 1,102,-1
 514 568 l 1,103,-1
 513 486 l 1,104,105
 530 509 530 509 564 509 c 0,106,107
 605 509 605 509 613 463 c 0,108,109
 614 458 614 458 614 448 c 0,110,111
 614 433 614 433 609 415 c 1,112,-1
 881 415 l 1,113,-1
 881 404 l 1,114,-1
 606 404 l 1,115,116
 599 385 599 385 582 367 c 0,117,118
 548 329 548 329 508 309 c 0,119,120
 507 308 507 308 503 308 c 0,121,122
 494 308 494 308 494 316 c 2,123,-1
 493 404 l 1,124,-1
 351 404 l 1,125,-1
 349 251 l 1,126,-1
 361 251 l 1,127,128
 379 263 379 263 400 263 c 0,129,130
 419 263 419 263 433 251 c 1,131,-1
 656 251 l 1,132,-1
 655 354 l 2,133,134
 655 362 655 362 664 362 c 2,135,-1
 671 362 l 2,136,137
 679 362 679 362 679 354 c 2,138,-1
 678 251 l 1,139,-1
 881 251 l 1,140,-1
 881 241 l 1,141,-1
 678 241 l 1,142,-1
 677 159 l 1,143,144
 694 181 694 181 728 181 c 0,145,146
 769 181 769 181 777 135 c 0,147,148
 778 130 778 130 778 120 c 0,149,150
 778 105 778 105 773 87 c 1,151,-1
 881 87 l 1,152,-1
 881 77 l 1,153,-1
 770 77 l 1,154,155
 762 57 762 57 746 39 c 0,156,157
 713 2 713 2 671 -19 c 0,158,159
 670 -20 670 -20 667 -20 c 0,160,161
 658 -20 658 -20 658 -11 c 2,162,-1
 657 77 l 1,163,-1
 367 77 l 2,164,165
 362 74 362 74 356 70.5 c 128,-1,166
 350 67 350 67 347 65 c 2,167,-1
 344 63 l 2,168,169
 343 62 343 62 339 62 c 0,170,171
 330 62 330 62 330 71 c 2,172,-1
 330 77 l 1,173,-1
 0 77 l 1,174,-1
 0 87 l 1,50,-1
21 241 m 1,175,-1
 20 174 l 1,176,177
 51 197 51 197 62 215 c 0,178,179
 68 224 68 224 74 241 c 1,180,-1
 21 241 l 1,175,-1
21 251 m 1,181,-1
 77 251 l 1,182,183
 80 268 80 268 80 275 c 2,184,-1
 80 282 l 2,185,186
 80 315 80 315 56 315 c 0,187,188
 40 315 40 315 31.5 307 c 128,-1,189
 23 299 23 299 22 292 c 2,190,-1
 21 251 l 1,181,-1
407 193 m 2,191,-1
 407 200 l 2,192,193
 407 233 407 233 384 233 c 0,194,195
 368 233 368 233 359 224.5 c 128,-1,196
 350 216 350 216 349 210 c 2,197,-1
 347 92 l 1,198,199
 380 117 380 117 390 133 c 0,200,201
 407 159 407 159 407 193 c 2,191,-1
329 251 m 1,202,-1
 328 404 l 1,203,-1
 203 404 l 2,204,205
 197 401 197 401 191.5 397.5 c 128,-1,206
 186 394 186 394 183 392 c 2,207,-1
 180 391 l 2,208,209
 179 390 179 390 175 390 c 0,210,211
 167 390 167 390 167 398 c 2,212,-1
 166 404 l 1,213,-1
 23 404 l 1,214,-1
 22 323 l 1,215,216
 38 345 38 345 73 345 c 0,217,218
 114 345 114 345 122 299 c 0,219,220
 123 294 123 294 123 284 c 0,221,222
 123 269 123 269 118 251 c 1,223,-1
 329 251 l 1,202,-1
676 77 m 1,224,-1
 675 10 l 1,225,226
 708 35 708 35 718 51 c 0,227,228
 721 56 721 56 729 77 c 1,229,-1
 676 77 l 1,224,-1
676 87 m 1,230,-1
 732 87 l 1,231,232
 735 104 735 104 735 111 c 2,233,-1
 735 118 l 2,234,235
 735 151 735 151 711 151 c 0,236,237
 695 151 695 151 686.5 143 c 128,-1,238
 678 135 678 135 677 128 c 2,239,-1
 676 87 l 1,230,-1
657 87 m 1,240,-1
 656 241 l 1,241,-1
 441 241 l 1,242,243
 447 230 447 230 449 217 c 0,244,245
 451 207 451 207 451 202 c 0,246,247
 451 158 451 158 418 121 c 0,248,249
 403 104 403 104 381 87 c 1,250,-1
 657 87 l 1,240,-1
EndSplineSet
EndChar

StartChar: Iacute
Encoding: 205 205 65
Width: 501
GlyphClass: 1
Flags: W
LayerCount: 2
Fore
SplineSet
244 521 m 2,0,-1
 244 528 l 2,1,2
 244 561 244 561 220 561 c 0,3,4
 204 561 204 561 195 552.5 c 128,-1,5
 186 544 186 544 185 538 c 2,6,-1
 184 420 l 1,7,8
 215 443 215 443 226 461 c 0,9,10
 244 489 244 489 244 521 c 2,0,-1
0 742 m 1,11,-1
 553 742 l 1,12,-1
 553 732 l 1,13,-1
 0 732 l 1,14,-1
 0 742 l 1,11,-1
0 87 m 1,15,-1
 330 87 l 1,16,-1
 329 241 l 1,17,-1
 114 241 l 1,18,19
 105 219 105 219 91 203 c 0,20,21
 58 166 58 166 16 145 c 0,22,23
 15 144 15 144 11 144 c 0,24,25
 3 144 3 144 3 153 c 2,26,-1
 2 241 l 1,27,-1
 0 241 l 1,28,-1
 0 251 l 1,29,-1
 2 251 l 1,30,-1
 1 404 l 1,31,-1
 0 404 l 1,32,-1
 0 415 l 1,33,-1
 0 517 l 2,34,35
 0 526 0 526 8 526 c 2,36,-1
 15 526 l 2,37,38
 24 526 24 526 24 517 c 2,39,-1
 23 415 l 1,40,-1
 166 415 l 1,41,-1
 165 568 l 1,42,-1
 0 568 l 1,43,-1
 0 579 l 1,44,-1
 165 579 l 1,45,-1
 163 763 l 2,46,47
 163 772 163 772 172 772 c 2,48,-1
 179 772 l 2,49,50
 188 772 188 772 188 763 c 2,51,-1
 185 579 l 1,52,-1
 197 579 l 1,53,54
 215 591 215 591 236 591 c 0,55,56
 255 591 255 591 269 579 c 1,57,-1
 553 579 l 1,58,-1
 553 568 l 1,59,-1
 277 568 l 1,60,61
 285 554 285 554 286 545 c 0,62,63
 287 540 287 540 287 529 c 0,64,65
 287 485 287 485 255 449 c 0,66,67
 242 434 242 434 217 415 c 1,68,-1
 327 415 l 1,69,-1
 327 436 l 2,70,71
 327 444 327 444 336 444 c 2,72,-1
 343 444 l 2,73,74
 352 444 352 444 352 436 c 2,75,-1
 351 415 l 1,76,-1
 553 415 l 1,77,-1
 553 404 l 1,78,-1
 351 404 l 1,79,-1
 349 251 l 1,80,-1
 361 251 l 1,81,82
 379 263 379 263 400 263 c 0,83,84
 419 263 419 263 433 251 c 1,85,-1
 553 251 l 1,86,-1
 553 241 l 1,87,-1
 441 241 l 1,88,89
 447 230 447 230 449 217 c 0,90,91
 451 207 451 207 451 202 c 0,92,93
 451 158 451 158 418 121 c 0,94,95
 403 104 403 104 381 87 c 1,96,-1
 553 87 l 1,97,-1
 553 77 l 1,98,-1
 367 77 l 2,99,100
 362 74 362 74 356 70.5 c 128,-1,101
 350 67 350 67 347 65 c 2,102,-1
 344 63 l 2,103,104
 343 62 343 62 339 62 c 0,105,106
 330 62 330 62 330 71 c 2,107,-1
 330 77 l 1,108,-1
 0 77 l 1,109,-1
 0 87 l 1,15,-1
21 241 m 1,110,-1
 20 174 l 1,111,112
 51 197 51 197 62 215 c 0,113,114
 68 224 68 224 74 241 c 1,115,-1
 21 241 l 1,110,-1
21 251 m 1,116,-1
 77 251 l 1,117,118
 80 268 80 268 80 275 c 2,119,-1
 80 282 l 2,120,121
 80 315 80 315 56 315 c 0,122,123
 40 315 40 315 31.5 307 c 128,-1,124
 23 299 23 299 22 292 c 2,125,-1
 21 251 l 1,116,-1
407 193 m 2,126,-1
 407 200 l 2,127,128
 407 233 407 233 384 233 c 0,129,130
 368 233 368 233 359 224.5 c 128,-1,131
 350 216 350 216 349 210 c 2,132,-1
 347 92 l 1,133,134
 380 117 380 117 390 133 c 0,135,136
 407 159 407 159 407 193 c 2,126,-1
329 251 m 1,137,-1
 328 404 l 1,138,-1
 203 404 l 2,139,140
 197 401 197 401 191.5 397.5 c 128,-1,141
 186 394 186 394 183 392 c 2,142,-1
 180 391 l 2,143,144
 179 390 179 390 175 390 c 0,145,146
 167 390 167 390 167 398 c 2,147,-1
 166 404 l 1,148,-1
 23 404 l 1,149,-1
 22 323 l 1,150,151
 38 345 38 345 73 345 c 0,152,153
 114 345 114 345 122 299 c 0,154,155
 123 294 123 294 123 284 c 0,156,157
 123 269 123 269 118 251 c 1,158,-1
 329 251 l 1,137,-1
EndSplineSet
EndChar

StartChar: Idieresis
Encoding: 207 207 66
Width: 993
GlyphClass: 1
Flags: W
LayerCount: 2
Fore
SplineSet
657 87 m 1,0,-1
 656 241 l 1,1,-1
 441 241 l 1,2,3
 447 230 447 230 449 217 c 0,4,5
 451 207 451 207 451 202 c 0,6,7
 451 158 451 158 418 121 c 0,8,9
 403 104 403 104 381 87 c 1,10,-1
 657 87 l 1,0,-1
676 87 m 1,11,-1
 732 87 l 1,12,13
 735 104 735 104 735 111 c 2,14,-1
 735 118 l 2,15,16
 735 151 735 151 711 151 c 0,17,18
 695 151 695 151 686.5 143 c 128,-1,19
 678 135 678 135 677 128 c 2,20,-1
 676 87 l 1,11,-1
676 77 m 1,21,-1
 675 10 l 1,22,23
 708 35 708 35 718 51 c 0,24,25
 721 56 721 56 729 77 c 1,26,-1
 676 77 l 1,21,-1
329 251 m 1,27,-1
 328 404 l 1,28,-1
 203 404 l 2,29,30
 197 401 197 401 191.5 397.5 c 128,-1,31
 186 394 186 394 183 392 c 2,32,-1
 180 391 l 2,33,34
 179 390 179 390 175 390 c 0,35,36
 167 390 167 390 167 398 c 2,37,-1
 166 404 l 1,38,-1
 23 404 l 1,39,-1
 22 323 l 1,40,41
 38 345 38 345 73 345 c 0,42,43
 114 345 114 345 122 299 c 0,44,45
 123 294 123 294 123 284 c 0,46,47
 123 269 123 269 118 251 c 1,48,-1
 329 251 l 1,27,-1
407 193 m 2,49,-1
 407 200 l 2,50,51
 407 233 407 233 384 233 c 0,52,53
 368 233 368 233 359 224.5 c 128,-1,54
 350 216 350 216 349 210 c 2,55,-1
 347 92 l 1,56,57
 380 117 380 117 390 133 c 0,58,59
 407 159 407 159 407 193 c 2,49,-1
21 251 m 1,60,-1
 77 251 l 1,61,62
 80 268 80 268 80 275 c 2,63,-1
 80 282 l 2,64,65
 80 315 80 315 56 315 c 0,66,67
 40 315 40 315 31.5 307 c 128,-1,68
 23 299 23 299 22 292 c 2,69,-1
 21 251 l 1,60,-1
21 241 m 1,70,-1
 20 174 l 1,71,72
 51 197 51 197 62 215 c 0,73,74
 68 224 68 224 74 241 c 1,75,-1
 21 241 l 1,70,-1
0 87 m 1,76,-1
 330 87 l 1,77,-1
 329 241 l 1,78,-1
 114 241 l 1,79,80
 105 219 105 219 91 203 c 0,81,82
 58 166 58 166 16 145 c 0,83,84
 15 144 15 144 11 144 c 0,85,86
 3 144 3 144 3 153 c 2,87,-1
 2 241 l 1,88,-1
 0 241 l 1,89,-1
 0 251 l 1,90,-1
 2 251 l 1,91,-1
 1 404 l 1,92,-1
 0 404 l 1,93,-1
 0 415 l 1,94,-1
 0 517 l 2,95,96
 0 526 0 526 8 526 c 2,97,-1
 15 526 l 2,98,99
 24 526 24 526 24 517 c 2,100,-1
 23 415 l 1,101,-1
 166 415 l 1,102,-1
 165 568 l 1,103,-1
 0 568 l 1,104,-1
 0 579 l 1,105,-1
 165 579 l 1,106,-1
 163 763 l 2,107,108
 163 772 163 772 172 772 c 2,109,-1
 179 772 l 2,110,111
 188 772 188 772 188 763 c 2,112,-1
 185 579 l 1,113,-1
 197 579 l 1,114,115
 215 591 215 591 236 591 c 0,116,117
 255 591 255 591 269 579 c 1,118,-1
 492 579 l 1,119,-1
 491 681 l 2,120,121
 491 690 491 690 500 690 c 2,122,-1
 507 690 l 2,123,124
 515 690 515 690 515 681 c 2,125,-1
 514 579 l 1,126,-1
 819 579 l 1,127,-1
 819 599 l 2,128,129
 819 608 819 608 827 608 c 2,130,-1
 835 608 l 2,131,132
 843 608 843 608 843 599 c 2,133,-1
 843 579 l 1,134,-1
 1044 579 l 1,135,-1
 1044 568 l 1,136,-1
 843 568 l 1,137,-1
 841 415 l 1,138,-1
 852 415 l 1,139,140
 870 427 870 427 892 427 c 0,141,142
 911 427 911 427 925 415 c 1,143,-1
 1044 415 l 1,144,-1
 1044 404 l 1,145,-1
 933 404 l 1,146,147
 940 393 940 393 941 381 c 0,148,149
 942 376 942 376 942 366 c 0,150,151
 942 321 942 321 910 285 c 0,152,153
 895 268 895 268 873 251 c 1,154,-1
 1044 251 l 1,155,-1
 1044 241 l 1,156,-1
 858 241 l 2,157,158
 853 238 853 238 847 234.5 c 128,-1,159
 841 231 841 231 838 229 c 2,160,-1
 835 227 l 2,161,162
 834 226 834 226 830 226 c 0,163,164
 822 226 822 226 822 234 c 2,165,-1
 822 241 l 1,166,-1
 678 241 l 1,167,-1
 677 159 l 1,168,169
 694 181 694 181 728 181 c 0,170,171
 769 181 769 181 777 135 c 0,172,173
 778 130 778 130 778 120 c 0,174,175
 778 105 778 105 773 87 c 1,176,-1
 1044 87 l 1,177,-1
 1044 77 l 1,178,-1
 770 77 l 1,179,180
 762 57 762 57 746 39 c 0,181,182
 713 2 713 2 671 -19 c 0,183,184
 670 -20 670 -20 667 -20 c 0,185,186
 658 -20 658 -20 658 -11 c 2,187,-1
 657 77 l 1,188,-1
 367 77 l 2,189,190
 362 74 362 74 356 70.5 c 128,-1,191
 350 67 350 67 347 65 c 2,192,-1
 344 63 l 2,193,194
 343 62 343 62 339 62 c 0,195,196
 330 62 330 62 330 71 c 2,197,-1
 330 77 l 1,198,-1
 0 77 l 1,199,-1
 0 87 l 1,76,-1
0 742 m 1,200,-1
 1044 742 l 1,201,-1
 1044 732 l 1,202,-1
 0 732 l 1,203,-1
 0 742 l 1,200,-1
244 521 m 2,204,-1
 244 528 l 2,205,206
 244 561 244 561 220 561 c 0,207,208
 204 561 204 561 195 552.5 c 128,-1,209
 186 544 186 544 185 538 c 2,210,-1
 184 420 l 1,211,212
 215 443 215 443 226 461 c 0,213,214
 244 489 244 489 244 521 c 2,204,-1
512 404 m 1,215,-1
 511 338 l 1,216,217
 544 363 544 363 554 379 c 0,218,219
 561 390 561 390 566 404 c 1,220,-1
 512 404 l 1,215,-1
512 415 m 1,221,-1
 568 415 l 1,222,223
 571 432 571 432 571 439 c 2,224,-1
 571 446 l 2,225,226
 571 479 571 479 548 479 c 0,227,228
 532 479 532 479 523 470.5 c 128,-1,229
 514 462 514 462 513 456 c 2,230,-1
 512 415 l 1,221,-1
493 415 m 1,231,-1
 492 568 l 1,232,-1
 277 568 l 1,233,234
 285 554 285 554 286 545 c 0,235,236
 287 540 287 540 287 529 c 0,237,238
 287 485 287 485 255 449 c 0,239,240
 242 434 242 434 217 415 c 1,241,-1
 327 415 l 1,242,-1
 327 436 l 2,243,244
 327 444 327 444 336 444 c 2,245,-1
 343 444 l 2,246,247
 352 444 352 444 352 436 c 2,248,-1
 351 415 l 1,249,-1
 493 415 l 1,231,-1
899 357 m 2,250,-1
 899 364 l 2,251,252
 899 397 899 397 875 397 c 0,253,254
 859 397 859 397 850.5 389 c 128,-1,255
 842 381 842 381 841 374 c 2,256,-1
 839 256 l 1,257,258
 870 279 870 279 881 297 c 0,259,260
 899 325 899 325 899 357 c 2,250,-1
822 251 m 1,261,-1
 820 404 l 1,262,-1
 606 404 l 1,263,264
 599 385 599 385 582 367 c 0,265,266
 548 329 548 329 508 309 c 0,267,268
 507 308 507 308 503 308 c 0,269,270
 494 308 494 308 494 316 c 2,271,-1
 493 404 l 1,272,-1
 351 404 l 1,273,-1
 349 251 l 1,274,-1
 361 251 l 1,275,276
 379 263 379 263 400 263 c 0,277,278
 419 263 419 263 433 251 c 1,279,-1
 656 251 l 1,280,-1
 655 354 l 2,281,282
 655 362 655 362 664 362 c 2,283,-1
 671 362 l 2,284,285
 679 362 679 362 679 354 c 2,286,-1
 678 251 l 1,287,-1
 822 251 l 1,261,-1
820 415 m 1,288,-1
 819 568 l 1,289,-1
 514 568 l 1,290,-1
 513 486 l 1,291,292
 530 509 530 509 564 509 c 0,293,294
 605 509 605 509 613 463 c 0,295,296
 614 458 614 458 614 448 c 0,297,298
 614 433 614 433 609 415 c 1,299,-1
 820 415 l 1,288,-1
EndSplineSet
EndChar

StartChar: Oacute
Encoding: 211 211 67
Width: 1192
GlyphClass: 1
Flags: W
LayerCount: 2
Fore
SplineSet
820 568 m 1,0,-1
 618 568 l 1,1,-1
 618 516 l 1,2,-1
 640 521 l 1,3,-1
 641 521 l 2,4,5
 650 521 650 521 650 512 c 2,6,-1
 650 473 l 2,7,8
 650 466 650 466 643 464 c 2,9,-1
 618 460 l 1,10,-1
 618 415 l 1,11,-1
 851 415 l 1,12,-1
 852 415 l 1,13,-1
 852 522 l 1,14,-1
 830 518 l 1,15,-1
 828 518 l 2,16,17
 819 518 819 518 819 527 c 2,18,-1
 819 563 l 1,19,-1
 819 565 l 2,20,21
 819 567 819 567 820 568 c 1,0,-1
928 538 m 1,22,-1
 870 526 l 1,23,-1
 870 418 l 1,24,-1
 928 431 l 1,25,-1
 928 538 l 1,22,-1
0 742 m 1,26,-1
 1244 742 l 1,27,-1
 1244 732 l 1,28,-1
 0 732 l 1,29,-1
 0 742 l 1,26,-1
51 415 m 1,30,-1
 109 415 l 1,31,-1
 109 456 l 1,32,-1
 51 444 l 1,33,-1
 51 415 l 1,30,-1
109 568 m 1,34,-1
 51 568 l 1,35,-1
 51 500 l 1,36,-1
 109 512 l 1,37,-1
 109 568 l 1,34,-1
109 579 m 1,38,-1
 109 620 l 1,39,-1
 51 608 l 1,40,-1
 51 579 l 1,41,-1
 109 579 l 1,38,-1
600 568 m 1,42,-1
 542 568 l 1,43,-1
 542 501 l 1,44,-1
 600 513 l 1,45,-1
 600 568 l 1,42,-1
524 415 m 1,46,-1
 524 440 l 1,47,-1
 503 436 l 1,48,-1
 501 436 l 2,49,50
 492 436 492 436 492 445 c 2,51,-1
 492 481 l 1,52,-1
 492 483 l 2,53,54
 492 490 492 490 499 492 c 2,55,-1
 524 497 l 1,56,-1
 524 568 l 1,57,-1
 486 568 l 1,58,-1
 486 555 l 2,59,60
 486 548 486 548 479 546 c 2,61,-1
 455 542 l 1,62,-1
 455 446 l 1,63,-1
 436 446 l 1,64,-1
 436 538 l 1,65,-1
 378 526 l 1,66,-1
 378 425 l 1,67,-1
 360 425 l 1,68,-1
 360 522 l 1,69,-1
 339 518 l 1,70,-1
 337 518 l 2,71,72
 328 518 328 518 328 527 c 2,73,-1
 328 564 l 2,74,75
 328 567 328 567 329 568 c 1,76,-1
 127 568 l 1,77,-1
 127 516 l 1,78,-1
 148 521 l 1,79,-1
 150 521 l 2,80,81
 159 521 159 521 159 512 c 2,82,-1
 159 473 l 2,83,84
 159 466 159 466 152 464 c 2,85,-1
 127 460 l 1,86,-1
 127 415 l 1,87,-1
 195 415 l 1,88,-1
 196 415 l 1,89,-1
 196 511 l 1,90,-1
 215 511 l 1,91,-1
 215 419 l 1,92,-1
 273 431 l 1,93,-1
 273 531 l 1,94,-1
 291 531 l 1,95,-1
 291 435 l 1,96,-1
 312 439 l 1,97,-1
 313 439 l 2,98,99
 323 439 323 439 323 430 c 2,100,-1
 323 415 l 1,101,-1
 524 415 l 1,46,-1
524 251 m 1,102,-1
 524 276 l 1,103,-1
 503 272 l 1,104,-1
 501 272 l 2,105,106
 492 272 492 272 492 281 c 2,107,-1
 492 319 l 2,108,109
 492 326 492 326 499 328 c 2,110,-1
 524 333 l 1,111,-1
 524 404 l 1,112,-1
 323 404 l 1,113,-1
 323 392 l 2,114,115
 323 384 323 384 315 382 c 2,116,-1
 291 378 l 1,117,-1
 291 271 l 1,118,-1
 312 275 l 1,119,-1
 313 275 l 2,120,121
 323 275 323 275 323 266 c 2,122,-1
 323 251 l 1,123,-1
 524 251 l 1,102,-1
542 251 m 1,124,-1
 600 251 l 1,125,-1
 600 292 l 1,126,-1
 542 280 l 1,127,-1
 542 251 l 1,124,-1
524 241 m 1,128,-1
 323 241 l 1,129,-1
 323 228 l 2,130,131
 323 221 323 221 315 219 c 2,132,-1
 291 214 l 1,133,-1
 291 118 l 1,134,-1
 273 118 l 1,135,-1
 273 210 l 1,136,-1
 215 198 l 1,137,-1
 215 98 l 1,138,-1
 196 98 l 1,139,-1
 196 194 l 1,140,-1
 175 190 l 1,141,-1
 173 190 l 2,142,143
 164 190 164 190 164 199 c 2,144,-1
 164 237 l 2,145,146
 164 240 164 240 165 241 c 1,147,-1
 0 241 l 1,148,-1
 0 251 l 1,149,-1
 195 251 l 1,150,-1
 196 251 l 1,151,-1
 196 358 l 1,152,-1
 175 354 l 1,153,-1
 173 354 l 2,154,155
 164 354 164 354 164 363 c 2,156,-1
 164 399 l 1,157,-1
 164 401 l 2,158,159
 164 403 164 403 165 404 c 1,160,-1
 127 404 l 1,161,-1
 127 364 l 1,162,-1
 109 364 l 1,163,-1
 109 404 l 1,164,-1
 51 404 l 1,165,-1
 51 343 l 1,166,-1
 33 343 l 1,167,-1
 33 404 l 1,168,-1
 0 404 l 1,169,-1
 0 415 l 1,170,-1
 33 415 l 1,171,-1
 33 440 l 1,172,-1
 11 436 l 1,173,-1
 9 436 l 2,174,175
 0 436 0 436 0 445 c 2,176,-1
 0 483 l 2,177,178
 0 490 0 490 7 492 c 2,179,-1
 33 497 l 1,180,-1
 33 568 l 1,181,-1
 0 568 l 1,182,-1
 0 579 l 1,183,-1
 33 579 l 1,184,-1
 33 604 l 1,185,-1
 11 600 l 1,186,-1
 9 600 l 2,187,188
 0 600 0 600 0 609 c 2,189,-1
 0 645 l 1,190,-1
 0 646 l 2,191,192
 0 654 0 654 7 656 c 2,193,-1
 33 661 l 1,194,-1
 33 756 l 1,195,-1
 51 756 l 1,196,-1
 51 665 l 1,197,-1
 109 676 l 1,198,-1
 109 777 l 1,199,-1
 127 777 l 1,200,-1
 127 680 l 1,201,-1
 148 685 l 1,202,-1
 150 685 l 2,203,204
 159 685 159 685 159 676 c 2,205,-1
 159 637 l 2,206,207
 159 630 159 630 152 628 c 2,208,-1
 127 624 l 1,209,-1
 127 579 l 1,210,-1
 359 579 l 1,211,-1
 360 579 l 1,212,-1
 360 686 l 1,213,-1
 339 682 l 1,214,-1
 337 682 l 2,215,216
 328 682 328 682 328 691 c 2,217,-1
 328 727 l 1,218,-1
 328 728 l 2,219,220
 328 735 328 735 335 737 c 2,221,-1
 360 743 l 1,222,-1
 360 838 l 1,223,-1
 378 838 l 1,224,-1
 378 747 l 1,225,-1
 436 758 l 1,226,-1
 436 859 l 1,227,-1
 455 859 l 1,228,-1
 455 762 l 1,229,-1
 476 767 l 1,230,-1
 477 767 l 2,231,232
 486 767 486 767 486 758 c 2,233,-1
 486 719 l 2,234,235
 486 712 486 712 479 710 c 2,236,-1
 455 706 l 1,237,-1
 455 598 l 1,238,-1
 476 603 l 1,239,-1
 477 603 l 2,240,241
 486 603 486 603 486 594 c 2,242,-1
 486 579 l 1,243,-1
 524 579 l 1,244,-1
 524 593 l 1,245,-1
 542 593 l 1,246,-1
 542 579 l 1,247,-1
 600 579 l 1,248,-1
 600 613 l 1,249,-1
 618 613 l 1,250,-1
 618 579 l 1,251,-1
 850 579 l 1,252,-1
 852 579 l 1,253,-1
 852 674 l 1,254,-1
 870 674 l 1,255,-1
 870 583 l 1,256,-1
 928 594 l 1,257,-1
 928 695 l 1,258,-1
 946 695 l 1,259,-1
 946 598 l 1,260,-1
 968 603 l 1,261,-1
 969 603 l 2,262,263
 978 603 978 603 978 594 c 2,264,-1
 978 579 l 1,265,-1
 1244 579 l 1,266,-1
 1244 568 l 1,267,-1
 978 568 l 1,268,-1
 978 555 l 2,269,270
 978 548 978 548 971 546 c 2,271,-1
 946 542 l 1,272,-1
 946 434 l 1,273,-1
 968 439 l 1,274,-1
 969 439 l 2,275,276
 978 439 978 439 978 430 c 2,277,-1
 978 415 l 1,278,-1
 1016 415 l 1,279,-1
 1016 429 l 1,280,-1
 1034 429 l 1,281,-1
 1034 415 l 1,282,-1
 1092 415 l 1,283,-1
 1092 449 l 1,284,-1
 1110 449 l 1,285,-1
 1110 415 l 1,286,-1
 1244 415 l 1,287,-1
 1244 404 l 1,288,-1
 1110 404 l 1,289,-1
 1110 353 l 1,290,-1
 1131 357 l 1,291,-1
 1133 357 l 2,292,293
 1142 357 1142 357 1142 348 c 2,294,-1
 1142 310 l 2,295,296
 1142 303 1142 303 1135 301 c 2,297,-1
 1110 296 l 1,298,-1
 1110 251 l 1,299,-1
 1244 251 l 1,300,-1
 1244 241 l 1,301,-1
 1110 241 l 1,302,-1
 1110 189 l 1,303,-1
 1131 193 l 1,304,-1
 1133 193 l 2,305,306
 1142 193 1142 193 1142 184 c 2,307,-1
 1142 146 l 2,308,309
 1142 139 1142 139 1135 137 c 2,310,-1
 1110 132 l 1,311,-1
 1110 87 l 1,312,-1
 1244 87 l 1,313,-1
 1244 77 l 1,314,-1
 1110 77 l 1,315,-1
 1110 36 l 1,316,-1
 1092 36 l 1,317,-1
 1092 77 l 1,318,-1
 1034 77 l 1,319,-1
 1034 16 l 1,320,-1
 1016 16 l 1,321,-1
 1016 77 l 1,322,-1
 814 77 l 1,323,-1
 814 64 l 2,324,325
 814 57 814 57 807 55 c 2,326,-1
 782 50 l 1,327,-1
 782 -45 l 1,328,-1
 764 -45 l 1,329,-1
 764 46 l 1,330,-1
 706 35 l 1,331,-1
 706 -66 l 1,332,-1
 688 -66 l 1,333,-1
 688 31 l 1,334,-1
 666 26 l 1,335,-1
 665 26 l 2,336,337
 655 26 655 26 655 35 c 2,338,-1
 655 73 l 2,339,340
 655 76 655 76 656 77 c 1,341,-1
 0 77 l 1,342,-1
 0 87 l 1,343,-1
 687 87 l 1,344,-1
 688 87 l 1,345,-1
 688 195 l 1,346,-1
 666 190 l 1,347,-1
 665 190 l 2,348,349
 655 190 655 190 655 199 c 2,350,-1
 655 236 l 1,351,-1
 655 237 l 2,352,353
 655 240 655 240 656 241 c 1,354,-1
 618 241 l 1,355,-1
 618 200 l 1,356,-1
 600 200 l 1,357,-1
 600 241 l 1,358,-1
 542 241 l 1,359,-1
 542 180 l 1,360,-1
 524 180 l 1,361,-1
 524 241 l 1,128,-1
542 404 m 1,362,-1
 542 336 l 1,363,-1
 600 349 l 1,364,-1
 600 404 l 1,365,-1
 542 404 l 1,362,-1
542 415 m 1,366,-1
 600 415 l 1,367,-1
 600 456 l 1,368,-1
 542 444 l 1,369,-1
 542 415 l 1,366,-1
215 254 m 1,370,-1
 273 267 l 1,371,-1
 273 374 l 1,372,-1
 215 362 l 1,373,-1
 215 254 l 1,370,-1
378 582 m 1,374,-1
 436 594 l 1,375,-1
 436 702 l 1,376,-1
 378 690 l 1,377,-1
 378 582 l 1,374,-1
764 210 m 1,378,-1
 706 198 l 1,379,-1
 706 90 l 1,380,-1
 764 103 l 1,381,-1
 764 210 l 1,378,-1
1092 292 m 1,382,-1
 1034 280 l 1,383,-1
 1034 251 l 1,384,-1
 1092 251 l 1,385,-1
 1092 292 l 1,382,-1
1092 87 m 1,386,-1
 1092 128 l 1,387,-1
 1034 116 l 1,388,-1
 1034 87 l 1,389,-1
 1092 87 l 1,386,-1
1092 404 m 1,390,-1
 1034 404 l 1,391,-1
 1034 337 l 1,392,-1
 1092 349 l 1,393,-1
 1092 404 l 1,390,-1
1016 404 m 1,394,-1
 978 404 l 1,395,-1
 978 392 l 2,396,397
 978 384 978 384 971 382 c 2,398,-1
 946 378 l 1,399,-1
 946 282 l 1,400,-1
 928 282 l 1,401,-1
 928 374 l 1,402,-1
 870 362 l 1,403,-1
 870 261 l 1,404,-1
 852 261 l 1,405,-1
 852 358 l 1,406,-1
 830 354 l 1,407,-1
 828 354 l 2,408,409
 819 354 819 354 819 363 c 2,410,-1
 819 401 l 2,411,412
 819 403 819 403 820 404 c 1,413,-1
 618 404 l 1,414,-1
 618 353 l 1,415,-1
 640 357 l 1,416,-1
 641 357 l 2,417,418
 650 357 650 357 650 348 c 2,419,-1
 650 310 l 2,420,421
 650 302 650 302 643 300 c 2,422,-1
 618 296 l 1,423,-1
 618 251 l 1,424,-1
 687 251 l 1,425,-1
 688 251 l 1,426,-1
 688 347 l 1,427,-1
 706 347 l 1,428,-1
 706 255 l 1,429,-1
 764 267 l 1,430,-1
 764 368 l 1,431,-1
 782 368 l 1,432,-1
 782 271 l 1,433,-1
 804 275 l 1,434,-1
 805 275 l 2,435,436
 814 275 814 275 814 266 c 2,437,-1
 814 251 l 1,438,-1
 1016 251 l 1,439,-1
 1016 276 l 1,440,-1
 994 272 l 1,441,-1
 992 272 l 2,442,443
 983 272 983 272 983 281 c 2,444,-1
 983 317 l 1,445,-1
 983 319 l 2,446,447
 983 326 983 326 990 328 c 2,448,-1
 1016 333 l 1,449,-1
 1016 404 l 1,394,-1
1016 241 m 1,450,-1
 814 241 l 1,451,-1
 814 228 l 2,452,453
 814 221 814 221 807 219 c 2,454,-1
 782 214 l 1,455,-1
 782 107 l 1,456,-1
 804 111 l 1,457,-1
 805 111 l 2,458,459
 814 111 814 111 814 102 c 2,460,-1
 814 87 l 1,461,-1
 1016 87 l 1,462,-1
 1016 113 l 1,463,-1
 994 108 l 1,464,-1
 992 108 l 2,465,466
 983 108 983 108 983 117 c 2,467,-1
 983 155 l 2,468,469
 983 162 983 162 990 164 c 2,470,-1
 1016 169 l 1,471,-1
 1016 241 l 1,450,-1
1092 241 m 1,472,-1
 1034 241 l 1,473,-1
 1034 172 l 1,474,-1
 1092 185 l 1,475,-1
 1092 241 l 1,472,-1
EndSplineSet
EndChar

StartChar: Odieresis
Encoding: 214 214 68
Width: 1029
GlyphClass: 1
Flags: W
LayerCount: 2
Fore
SplineSet
764 210 m 1,0,-1
 706 198 l 1,1,-1
 706 90 l 1,2,-1
 764 103 l 1,3,-1
 764 210 l 1,0,-1
378 582 m 1,4,-1
 436 594 l 1,5,-1
 436 702 l 1,6,-1
 378 690 l 1,7,-1
 378 582 l 1,4,-1
215 254 m 1,8,-1
 273 267 l 1,9,-1
 273 374 l 1,10,-1
 215 362 l 1,11,-1
 215 254 l 1,8,-1
542 415 m 1,12,-1
 600 415 l 1,13,-1
 600 456 l 1,14,-1
 542 444 l 1,15,-1
 542 415 l 1,12,-1
542 404 m 1,16,-1
 542 336 l 1,17,-1
 600 349 l 1,18,-1
 600 404 l 1,19,-1
 542 404 l 1,16,-1
524 241 m 1,20,-1
 323 241 l 1,21,-1
 323 228 l 2,22,23
 323 221 323 221 315 219 c 2,24,-1
 291 214 l 1,25,-1
 291 118 l 1,26,-1
 273 118 l 1,27,-1
 273 210 l 1,28,-1
 215 198 l 1,29,-1
 215 98 l 1,30,-1
 196 98 l 1,31,-1
 196 194 l 1,32,-1
 175 190 l 1,33,-1
 173 190 l 2,34,35
 164 190 164 190 164 199 c 2,36,-1
 164 237 l 2,37,38
 164 240 164 240 165 241 c 1,39,-1
 0 241 l 1,40,-1
 0 251 l 1,41,-1
 195 251 l 1,42,-1
 196 251 l 1,43,-1
 196 358 l 1,44,-1
 175 354 l 1,45,-1
 173 354 l 2,46,47
 164 354 164 354 164 363 c 2,48,-1
 164 399 l 1,49,-1
 164 401 l 2,50,51
 164 403 164 403 165 404 c 1,52,-1
 127 404 l 1,53,-1
 127 364 l 1,54,-1
 109 364 l 1,55,-1
 109 404 l 1,56,-1
 51 404 l 1,57,-1
 51 343 l 1,58,-1
 33 343 l 1,59,-1
 33 404 l 1,60,-1
 0 404 l 1,61,-1
 0 415 l 1,62,-1
 33 415 l 1,63,-1
 33 440 l 1,64,-1
 11 436 l 1,65,-1
 9 436 l 2,66,67
 0 436 0 436 0 445 c 2,68,-1
 0 483 l 2,69,70
 0 490 0 490 7 492 c 2,71,-1
 33 497 l 1,72,-1
 33 568 l 1,73,-1
 0 568 l 1,74,-1
 0 579 l 1,75,-1
 33 579 l 1,76,-1
 33 604 l 1,77,-1
 11 600 l 1,78,-1
 9 600 l 2,79,80
 0 600 0 600 0 609 c 2,81,-1
 0 645 l 1,82,-1
 0 646 l 2,83,84
 0 654 0 654 7 656 c 2,85,-1
 33 661 l 1,86,-1
 33 756 l 1,87,-1
 51 756 l 1,88,-1
 51 665 l 1,89,-1
 109 676 l 1,90,-1
 109 777 l 1,91,-1
 127 777 l 1,92,-1
 127 680 l 1,93,-1
 148 685 l 1,94,-1
 150 685 l 2,95,96
 159 685 159 685 159 676 c 2,97,-1
 159 637 l 2,98,99
 159 630 159 630 152 628 c 2,100,-1
 127 624 l 1,101,-1
 127 579 l 1,102,-1
 359 579 l 1,103,-1
 360 579 l 1,104,-1
 360 686 l 1,105,-1
 339 682 l 1,106,-1
 337 682 l 2,107,108
 328 682 328 682 328 691 c 2,109,-1
 328 727 l 1,110,-1
 328 728 l 2,111,112
 328 735 328 735 335 737 c 2,113,-1
 360 743 l 1,114,-1
 360 838 l 1,115,-1
 378 838 l 1,116,-1
 378 747 l 1,117,-1
 436 758 l 1,118,-1
 436 859 l 1,119,-1
 455 859 l 1,120,-1
 455 762 l 1,121,-1
 476 767 l 1,122,-1
 477 767 l 2,123,124
 486 767 486 767 486 758 c 2,125,-1
 486 719 l 2,126,127
 486 712 486 712 479 710 c 2,128,-1
 455 706 l 1,129,-1
 455 598 l 1,130,-1
 476 603 l 1,131,-1
 477 603 l 2,132,133
 486 603 486 603 486 594 c 2,134,-1
 486 579 l 1,135,-1
 524 579 l 1,136,-1
 524 593 l 1,137,-1
 542 593 l 1,138,-1
 542 579 l 1,139,-1
 600 579 l 1,140,-1
 600 613 l 1,141,-1
 618 613 l 1,142,-1
 618 579 l 1,143,-1
 850 579 l 1,144,-1
 852 579 l 1,145,-1
 852 674 l 1,146,-1
 870 674 l 1,147,-1
 870 583 l 1,148,-1
 928 594 l 1,149,-1
 928 695 l 1,150,-1
 946 695 l 1,151,-1
 946 598 l 1,152,-1
 968 603 l 1,153,-1
 969 603 l 2,154,155
 978 603 978 603 978 594 c 2,156,-1
 978 579 l 1,157,-1
 1080 579 l 1,158,-1
 1080 568 l 1,159,-1
 978 568 l 1,160,-1
 978 555 l 2,161,162
 978 548 978 548 971 546 c 2,163,-1
 946 542 l 1,164,-1
 946 434 l 1,165,-1
 968 439 l 1,166,-1
 969 439 l 2,167,168
 978 439 978 439 978 430 c 2,169,-1
 978 415 l 1,170,-1
 1080 415 l 1,171,-1
 1080 404 l 1,172,-1
 978 404 l 1,173,-1
 978 392 l 2,174,175
 978 384 978 384 971 382 c 2,176,-1
 946 378 l 1,177,-1
 946 282 l 1,178,-1
 928 282 l 1,179,-1
 928 374 l 1,180,-1
 870 362 l 1,181,-1
 870 261 l 1,182,-1
 852 261 l 1,183,-1
 852 358 l 1,184,-1
 830 354 l 1,185,-1
 828 354 l 2,186,187
 819 354 819 354 819 363 c 2,188,-1
 819 401 l 2,189,190
 819 403 819 403 820 404 c 1,191,-1
 618 404 l 1,192,-1
 618 353 l 1,193,-1
 640 357 l 1,194,-1
 641 357 l 2,195,196
 650 357 650 357 650 348 c 2,197,-1
 650 310 l 2,198,199
 650 302 650 302 643 300 c 2,200,-1
 618 296 l 1,201,-1
 618 251 l 1,202,-1
 687 251 l 1,203,-1
 688 251 l 1,204,-1
 688 347 l 1,205,-1
 706 347 l 1,206,-1
 706 255 l 1,207,-1
 764 267 l 1,208,-1
 764 368 l 1,209,-1
 782 368 l 1,210,-1
 782 271 l 1,211,-1
 804 275 l 1,212,-1
 805 275 l 2,213,214
 814 275 814 275 814 266 c 2,215,-1
 814 251 l 1,216,-1
 1080 251 l 1,217,-1
 1080 241 l 1,218,-1
 814 241 l 1,219,-1
 814 228 l 2,220,221
 814 221 814 221 807 219 c 2,222,-1
 782 214 l 1,223,-1
 782 107 l 1,224,-1
 804 111 l 1,225,-1
 805 111 l 2,226,227
 814 111 814 111 814 102 c 2,228,-1
 814 87 l 1,229,-1
 1080 87 l 1,230,-1
 1080 77 l 1,231,-1
 814 77 l 1,232,-1
 814 64 l 2,233,234
 814 57 814 57 807 55 c 2,235,-1
 782 50 l 1,236,-1
 782 -45 l 1,237,-1
 764 -45 l 1,238,-1
 764 46 l 1,239,-1
 706 35 l 1,240,-1
 706 -66 l 1,241,-1
 688 -66 l 1,242,-1
 688 31 l 1,243,-1
 666 26 l 1,244,-1
 665 26 l 2,245,246
 655 26 655 26 655 35 c 2,247,-1
 655 73 l 2,248,249
 655 76 655 76 656 77 c 1,250,-1
 0 77 l 1,251,-1
 0 87 l 1,252,-1
 687 87 l 1,253,-1
 688 87 l 1,254,-1
 688 195 l 1,255,-1
 666 190 l 1,256,-1
 665 190 l 2,257,258
 655 190 655 190 655 199 c 2,259,-1
 655 236 l 1,260,-1
 655 237 l 2,261,262
 655 240 655 240 656 241 c 1,263,-1
 618 241 l 1,264,-1
 618 200 l 1,265,-1
 600 200 l 1,266,-1
 600 241 l 1,267,-1
 542 241 l 1,268,-1
 542 180 l 1,269,-1
 524 180 l 1,270,-1
 524 241 l 1,20,-1
542 251 m 1,271,-1
 600 251 l 1,272,-1
 600 292 l 1,273,-1
 542 280 l 1,274,-1
 542 251 l 1,271,-1
524 251 m 1,275,-1
 524 276 l 1,276,-1
 503 272 l 1,277,-1
 501 272 l 2,278,279
 492 272 492 272 492 281 c 2,280,-1
 492 319 l 2,281,282
 492 326 492 326 499 328 c 2,283,-1
 524 333 l 1,284,-1
 524 404 l 1,285,-1
 323 404 l 1,286,-1
 323 392 l 2,287,288
 323 384 323 384 315 382 c 2,289,-1
 291 378 l 1,290,-1
 291 271 l 1,291,-1
 312 275 l 1,292,-1
 313 275 l 2,293,294
 323 275 323 275 323 266 c 2,295,-1
 323 251 l 1,296,-1
 524 251 l 1,275,-1
524 415 m 1,297,-1
 524 440 l 1,298,-1
 503 436 l 1,299,-1
 501 436 l 2,300,301
 492 436 492 436 492 445 c 2,302,-1
 492 481 l 1,303,-1
 492 483 l 2,304,305
 492 490 492 490 499 492 c 2,306,-1
 524 497 l 1,307,-1
 524 568 l 1,308,-1
 486 568 l 1,309,-1
 486 555 l 2,310,311
 486 548 486 548 479 546 c 2,312,-1
 455 542 l 1,313,-1
 455 446 l 1,314,-1
 436 446 l 1,315,-1
 436 538 l 1,316,-1
 378 526 l 1,317,-1
 378 425 l 1,318,-1
 360 425 l 1,319,-1
 360 522 l 1,320,-1
 339 518 l 1,321,-1
 337 518 l 2,322,323
 328 518 328 518 328 527 c 2,324,-1
 328 564 l 2,325,326
 328 567 328 567 329 568 c 1,327,-1
 127 568 l 1,328,-1
 127 516 l 1,329,-1
 148 521 l 1,330,-1
 150 521 l 2,331,332
 159 521 159 521 159 512 c 2,333,-1
 159 473 l 2,334,335
 159 466 159 466 152 464 c 2,336,-1
 127 460 l 1,337,-1
 127 415 l 1,338,-1
 195 415 l 1,339,-1
 196 415 l 1,340,-1
 196 511 l 1,341,-1
 215 511 l 1,342,-1
 215 419 l 1,343,-1
 273 431 l 1,344,-1
 273 531 l 1,345,-1
 291 531 l 1,346,-1
 291 435 l 1,347,-1
 312 439 l 1,348,-1
 313 439 l 2,349,350
 323 439 323 439 323 430 c 2,351,-1
 323 415 l 1,352,-1
 524 415 l 1,297,-1
600 568 m 1,353,-1
 542 568 l 1,354,-1
 542 501 l 1,355,-1
 600 513 l 1,356,-1
 600 568 l 1,353,-1
109 579 m 1,357,-1
 109 620 l 1,358,-1
 51 608 l 1,359,-1
 51 579 l 1,360,-1
 109 579 l 1,357,-1
109 568 m 1,361,-1
 51 568 l 1,362,-1
 51 500 l 1,363,-1
 109 512 l 1,364,-1
 109 568 l 1,361,-1
51 415 m 1,365,-1
 109 415 l 1,366,-1
 109 456 l 1,367,-1
 51 444 l 1,368,-1
 51 415 l 1,365,-1
0 742 m 1,369,-1
 1080 742 l 1,370,-1
 1080 732 l 1,371,-1
 0 732 l 1,372,-1
 0 742 l 1,369,-1
928 538 m 1,373,-1
 870 526 l 1,374,-1
 870 418 l 1,375,-1
 928 431 l 1,376,-1
 928 538 l 1,373,-1
820 568 m 1,377,-1
 618 568 l 1,378,-1
 618 516 l 1,379,-1
 640 521 l 1,380,-1
 641 521 l 2,381,382
 650 521 650 521 650 512 c 2,383,-1
 650 473 l 2,384,385
 650 466 650 466 643 464 c 2,386,-1
 618 460 l 1,387,-1
 618 415 l 1,388,-1
 851 415 l 1,389,-1
 852 415 l 1,390,-1
 852 522 l 1,391,-1
 830 518 l 1,392,-1
 828 518 l 2,393,394
 819 518 819 518 819 527 c 2,395,-1
 819 563 l 1,396,-1
 819 565 l 2,397,398
 819 567 819 567 820 568 c 1,377,-1
EndSplineSet
EndChar

